<mxfile host="app.diagrams.net" modified="2023-10-24T19:22:15.365Z" agent="Mozilla/5.0 (Macintosh; Intel Mac OS X 10_15_7) AppleWebKit/537.36 (KHTML, like Gecko) Chrome/116.0.0.0 Safari/537.36" etag="J8VTOGKGTKR0VK7wbHPZ" version="22.0.7" type="device">
  <diagram name="Page-1" id="hwycf7jDZd6WArkCvtrv">
    <mxGraphModel dx="1595" dy="865" grid="1" gridSize="10" guides="1" tooltips="1" connect="1" arrows="1" fold="1" page="1" pageScale="1" pageWidth="827" pageHeight="1169" math="0" shadow="0">
      <root>
        <mxCell id="0" />
        <mxCell id="1" parent="0" />
        <mxCell id="G5BfxSge_Kpje7iybyFv-1" value="" style="shape=image;verticalLabelPosition=bottom;labelBackgroundColor=default;verticalAlign=top;aspect=fixed;imageAspect=0;image=data:image/png,iVBORw0KGgoAAAANSUhEUgAAAh8AAAO0CAIAAACKk8MfAAAMPmlDQ1BJQ0MgUHJvZmlsZQAASImVVwdYU8kWnltSIbQAAlJCb4JIDSAlhBZAeheVkAQIJcZAULGjiwquXSxgQ1dFFDvNgiJ2FsXeFwsqyrpYsCtvUkDXfeV7831z57//nPnPmTNzywCgfpwrFuehGgDkiwolsSEBjOSUVAbpKcCAKgDAE5C5vAIxKzo6At6Bwfbv5d11gMjaKw4yrX/2/9eiyRcU8ABAoiHO4Bfw8iE+CABexRNLCgEgynjzyYViGYYVaEtggBAvkOEsBa6S4QwF3iu3iY9lQ9wGAFmVy5VkAaB2CfKMIl4W1FDrg9hJxBeKAFBnQOybnz+RD3E6xDbQRgyxTJ+Z8YNO1t80M4Y0udysIayYi7yQA4UF4jzu1P8zHf+75OdJB31YwaqaLQmNlc0Z5u1m7sRwGYYrh/SKMiKjINaC+IOQL7eHGKVmS0MTFPaoIa+ADXMGdCF24nMDwyE2hDhYlBcZoeQzMoXBHIjhDkGnCAs58RDrQbxAUBAUp7TZJJkYq/SF1mdK2Cwlf5YrkfuV+bovzU1gKfVfZws4Sn1MrTg7PgliKsQWRcLESIjVIHYsyI0LV9qMLs5mRw7aSKSxsvgtII4ViEICFPpYUaYkOFZpX5ZfMDhfbFO2kBOpxPsLs+NDFfnB2nhcefxwLtglgYiVMKgjKEiOGJwLXxAYpJg79kwgSohT6nwQFwbEKsbiVHFetNIeNxPkhch4M4hdC4rilGPxxEK4IRX6eKa4MDpeESdenMMNi1bEgy8FEYANAgEDSGHNABNBDhB29Db0wjtFTzDgAgnIAgLgoGQGRyTJe0TwGgeKwZ8QCUDB0LgAea8AFEH+6xCruDqATHlvkXxELngCcT4IB3nwXiofJRrylggeQ0b4D+9cWHkw3jxYZf3/nh9kvzMsyEQoGemgR4b6oCUxiBhIDCUGE21xA9wX98Yj4NUfVmeciXsOzuO7PeEJoZPwkHCN0EW4NUFYIvkpyjGgC+oHK3OR8WMucCuo6YYH4D5QHSrjurgBcMBdoR8W7gc9u0GWrYxblhXGT9p/m8EPq6G0ozhRUMowij/F5ueRanZqbkMqslz/mB9FrBlD+WYP9fzsn/1D9vmwDf/ZEluAHcDOYCewc9gRrAEwsBasEWvHjsrw0O56LN9dg95i5fHkQh3hP/wNrqwskwVOtU49Tl8UfYWCKbJ3NGBPFE+VCLOyCxks+EUQMDginuMIhrOTswsAsu+L4vX1Jkb+3UB0279zc/8AwKdlYGDg8HcurAWAfR7w8W/6ztkw4adDBYCzTTyppEjB4bILAb4l1OGTpg+MgTmwgfNxBu7AG/iDIBAGokA8SAHjYfTZcJ9LwGQwHcwBpaAcLAWrwDqwEWwBO8BusB80gCPgBDgNLoBL4Bq4A3dPN3gB+sA78BlBEBJCQ+iIPmKCWCL2iDPCRHyRICQCiUVSkHQkCxEhUmQ6MhcpR5Yj65DNSA2yD2lCTiDnkE7kFvIA6UFeI59QDFVFtVEj1AodiTJRFhqOxqPj0Cx0ElqMzkMXo2vQanQXWo+eQC+g19Au9AXajwFMBdPFTDEHjImxsSgsFcvEJNhMrAyrwKqxOqwZrvMVrAvrxT7iRJyOM3AHuIND8QSch0/CZ+KL8HX4Drweb8Ov4A/wPvwbgUYwJNgTvAgcQjIhizCZUEqoIGwjHCKcgs9SN+EdkUjUJVoTPeCzmELMIU4jLiKuJ+4hHid2Eh8R+0kkkj7JnuRDiiJxSYWkUtJa0i5SC+kyqZv0gaxCNiE7k4PJqWQRuYRcQd5JPka+TH5K/kzRoFhSvChRFD5lKmUJZSulmXKR0k35TNWkWlN9qPHUHOoc6hpqHfUU9S71jYqKipmKp0qMilBltsoalb0qZ1UeqHxU1VK1U2WrpqlKVRerblc9rnpL9Q2NRrOi+dNSaYW0xbQa2knafdoHNbqaoxpHja82S61SrV7tstpLdYq6pTpLfbx6sXqF+gH1i+q9GhQNKw22BldjpkalRpPGDY1+TbrmKM0ozXzNRZo7Nc9pPtMiaVlpBWnxteZpbdE6qfWIjtHN6Ww6jz6XvpV+it6tTdS21uZo52iXa+/W7tDu09HScdVJ1JmiU6lzVKdLF9O10uXo5uku0d2ve1330zCjYaxhgmELh9UNuzzsvd5wPX89gV6Z3h69a3qf9Bn6Qfq5+sv0G/TvGeAGdgYxBpMNNhicMugdrj3cezhveNnw/cNvG6KGdoaxhtMMtxi2G/YbGRuFGImN1hqdNOo11jX2N84xXml8zLjHhG7iayI0WWnSYvKcocNgMfIYaxhtjD5TQ9NQU6npZtMO089m1mYJZiVme8zumVPNmeaZ5ivNW837LEwsxlhMt6i1uG1JsWRaZluutjxj+d7K2irJar5Vg9Uzaz1rjnWxda31XRuajZ/NJJtqm6u2RFumba7tettLdqidm122XaXdRXvU3t1eaL/evnMEYYTnCNGI6hE3HFQdWA5FDrUODxx1HSMcSxwbHF+OtBiZOnLZyDMjvzm5OeU5bXW6M0prVNioklHNo1472znznCudr7rQXIJdZrk0urxytXcVuG5wvelGdxvjNt+t1e2ru4e7xL3OvcfDwiPdo8rjBlObGc1cxDzrSfAM8JzlecTzo5e7V6HXfq+/vB28c713ej8bbT1aMHrr6Ec+Zj5cn80+Xb4M33TfTb5dfqZ+XL9qv4f+5v58/23+T1m2rBzWLtbLAKcAScChgPdsL/YM9vFALDAksCywI0grKCFoXdD9YLPgrODa4L4Qt5BpIcdDCaHhoctCb3CMODxODacvzCNsRlhbuGp4XPi68IcRdhGSiOYx6JiwMSvG3I20jBRFNkSBKE7Uiqh70dbRk6IPxxBjomMqY57EjoqdHnsmjh43IW5n3Lv4gPgl8XcSbBKkCa2J6olpiTWJ75MCk5YndSWPTJ6RfCHFIEWY0phKSk1M3ZbaPzZo7Kqx3WluaaVp18dZj5sy7tx4g/F5449OUJ/AnXAgnZCelL4z/Qs3ilvN7c/gZFRl9PHYvNW8F3x//kp+j8BHsFzwNNMnc3nmsyyfrBVZPdl+2RXZvUK2cJ3wVU5ozsac97lRudtzB/KS8vbkk/PT85tEWqJcUdtE44lTJnaK7cWl4q5JXpNWTeqThEu2FSAF4woaC7Xhj3y71Eb6i/RBkW9RZdGHyYmTD0zRnCKa0j7VburCqU+Lg4t/m4ZP401rnW46fc70BzNYMzbPRGZmzGydZT5r3qzu2SGzd8yhzsmd83uJU8nykrdzk+Y2zzOaN3veo19CfqktVSuVlN6Y7z1/4wJ8gXBBx0KXhWsXfivjl50vdyqvKP+yiLfo/K+jfl3z68DizMUdS9yXbFhKXCpaen2Z37IdyzWXFy9/tGLMivqVjJVlK9+umrDqXIVrxcbV1NXS1V1rItY0rrVYu3Ttl3XZ665VBlTuqTKsWlj1fj1//eUN/hvqNhptLN/4aZNw083NIZvrq62qK7YQtxRtebI1ceuZ35i/1Wwz2Fa+7et20fauHbE72mo8amp2Gu5cUovWSmt7dqXturQ7cHdjnUPd5j26e8r3gr3Svc/3pe+7vj98f+sB5oG6g5YHqw7RD5XVI/VT6/sashu6GlMaO5vCmlqbvZsPHXY8vP2I6ZHKozpHlxyjHpt3bKCluKX/uPh474msE49aJ7TeOZl88mpbTFvHqfBTZ08Hnz55hnWm5azP2SPnvM41nWeeb7jgfqG+3a390O9uvx/qcO+ov+hxsfGS56XmztGdxy77XT5xJfDK6aucqxeuRV7rvJ5w/eaNtBtdN/k3n93Ku/XqdtHtz3dm3yXcLbunca/ivuH96j9s/9jT5d519EHgg/aHcQ/vPOI9evG44PGX7nlPaE8qnpo8rXnm/OxIT3DPpedjn3e/EL/43Fv6p+afVS9tXh78y/+v9r7kvu5XklcDrxe90X+z/a3r29b+6P777/LffX5f9kH/w46PzI9nPiV9evp58hfSlzVfbb82fwv/dncgf2BAzJVw5b8CGKxoZiYAr7cDQEsBgA7PZ9SxivOfvCCKM6scgf+EFWdEeXEHoA7+v8f0wr+bGwDs3QqPX1BfPQ2AaBoA8Z4AdXEZqoNnNfm5UlaI8BywKfprRn4G+DdFceb8Ie6fWyBTdQU/t/8CVdt8WtzNBucAAAA4ZVhJZk1NACoAAAAIAAGHaQAEAAAAAQAAABoAAAAAAAKgAgAEAAAAAQAAAh+gAwAEAAAAAQAAA7QAAAAA1/hAZgAAQABJREFUeAHsXQd8FNXWz/bdlE2y6b1BIAkllNC7FBFBmgUQC2JHffrs7elne/osYEFUUBGliaAU6UhvoYWQQnrvySabbG/fSSZMZkt2Zjezm0lyh/2FM+eee+65/9mdM/fec8+wjEajGzoQAggBhABCACFAKwJsWrUhZQgBhABCACGAEGhFAHkX9D1ACCAEEAIIAfoRQN6FfkyRRoQAQgAhgBBA3gV9BxACCAGEAEKAfgSQd6EfU6QRIYAQQAggBJB3Qd8BhABCACGAEKAfAeRd6McUaUQIIAQQAggB5F3QdwAhgBBACCAE6EcAeRf6MUUaEQIIAYQAQgB5F/QdQAggBBACCAH6EUDehX5MkUaEAEIAIYAQQN4FfQcQAggBhABCgH4EkHehH1OkESGAEEAIIASQd0HfAYQAQgAhgBCgHwHkXejHFGlECCAEEAIIAeRd0HcAIYAQQAggBOhHAHkX+jFFGhECCAGEAEIAeRf0HUAIIAQQAggB+hFA3oV+TJFGhABCACGAEEDeBX0HEAIIAYQAQoB+BLj0q0QaEQL2I6DRaPQGvf31+m4NlpubQCBkseB/dCAEmIgA8i5MvCq90iaVSsXhcnhcnlnv1Gp1VU2lVqs146NTKgj4ePv6+/mbSer1ellzE4/H9/TwNCtCpwgBlyGAvIvLoO7TDZWWlag1anjQDg4K8XD3wLHQ6XRlFaVGoxHnIMIuBBqbpGw2S+LrR6xVUVWhVquA4+sj8ZOYFBHFEI0QcCoCaN3FqfAi5a0IgF+BDxDgRWpqq4mgwM0RuRYiIA7QjU2NxFoqtQpzLcBsbpERixCNEHAlAsi7uBLtPtoWl9sxRIZJmxZ5Cw4EkcaZiLALAYPBoFAq8CpEZ8PldCCPCyACIeAaBJB3cQ3OfboVDpvD43Ust0gbGzA4NFoNzIz1aWho6rz8lsNudd4tzbhWkUiE04hACLgYAeRdXAx4H23OXeSO9xyW8bFnbblcjjMR0RUE8CFgXX0tUY+7qGOJi8hHNELABQgg7+ICkFETbmbBS9hNEH/iRgB1EQEYsmg0aqVS2UwYuLBZbDR26SKwqHpXEEDTsl1BD9WlioBI5A5rADp9+zwY7G6prqmC9Weq9ZEcGQLN8haZrIko5eXlRTxFNELAxQigsYuLAe+7zYnF3sTOE5+yiXxEO4ZAo7QBRjDEut7ePsRTRCMEXIwA8i4uBrzvNufj7QNzNRb9RztdLCBxiGGGo5enF5/Hd0gTqoQQoAcBy187PXqRFoSAGQJsNltiZWcfSmRihpPdp2Z+BepDkF6Af6DdilAFhACtCCDvQiucSJlNBFqHLxyONRHLO6Q1KcSzhoClfw7wDwBfbk0W8RACrkMAfQVdhzVqCRDg8/lGNwtfYmRZ8hBcDiJgNEKGMQfromoIAfoQQN6FPiyRJgoI1NbWWz5ru4FzscKloK6Pi1i6afDSLNaNjKw+DgzqPhMQQN6FCVehD9kgl0POEvAk5vfFVudizutDsDjSVYDLwiWz2ljlFVWOKER1EAK0IoC8C61wImVkCBhsvMSFhdwLGXzEcgvXghcqFB1px3AmIhACLkYAeRcXA46awxCwemu0ykSIWUcAuWLruCAuYxBA3oUxl6LvGYLfH62s8/c9NOztMbhik9fi4GjaqwjJIwScgwDyLs7BFWmlgEDr/bFtsYWF1vQpwGUpYvLWYzTwswQIcboVAeRduhX+Pt84tgptuTrd54FBACAEejwCyLv0+EuIOoAQQAggBBiIAPIuDLwoyCSEAEIAIdDjEUDepcdfQtQBhABCACHAQASQd2HgRUEmIQQQAgiBHo8A8i49/hKiDiAEEAIIAQYigLwLAy8KMgkhgBBACPR4BJB36fGXEHUAIYAQQAgwEAHkXRh4UZBJCAGEAEKgxyOAvEuPv4SoAwgBhABCgIEIcBloEzLJBQg0SOsbpA3QkMRXIvH1c0GLqAmEAEKgTyGAxi596nKjziIEEAIIARchgLyLi4BGzSAEEAIIgT6FAPIufepyo84iBBACCAEXIYDWXWwBXdJQXdMitSXRY8uEBpbQrfXZoqKprqC51mX90Oh0LmurzzZU2yy9VJLdZ7tPe8fZbqxw38BAL1/aNfduhci7WLm+ebVlXxzZklaWq9JprBT3CtbiQRMXJ02CruxNP73jximX9enloQuj3cJc1lzfbOhU3rWNNa67pn0EZLHQY1R04vIxdySFxPSRLnexm8i7mAO4/fLRTw5tMueic4QAQqBvIyBTyY9kp8Ln2/teTolJ7NtgUOo9WncxgWnfjTPItZgggk4QAggBAgJT45Jnv/VIRkkegYdI6wigsUsHLiqt5oujW/HzhODom9XFNyoKlFo1zuw1xPiIBKwvlU11l104R68ZpO01GDK2I3UtjZcbcxlrXo8zzFvoMTS8f4CXb4xP0FfbflLrtA+vef3iZ9t7XEdcbDDyLh2AH8m+2Khoxs4Hh8b+fP7vjjJEIQQQAn0VgSaV/GTeNeh9smc4uBYgUvNu3CwvHBCGFmBsfSfQzFgHOpeKs7ATb5HH9ivHOgoQhRBACCAEAAFvEQ4DmhzDoeiMQN6lA5lGZQt2Eu0XqtCoOgoQhRBACCAE3Nyuled6erhjSDTKZQgS2wigmTECPsZ2msfpzbAEeOiDvQzRvnqst+OjtE0qZbmMUy9nVbVwKmXogYPwlUBkJwiEe7d+iyQiY5i3PsjToNSxqpvZlc3s2hZ2VQu7QdFrv0VBAUEt8kJARW8wdIINYrcj0D230eq2wxkXITo6WiwWd1Gz0e2Wn+miIsZU9xYa70pUzx2ont5P4yVs7V2jSiVVttp3Wz/NokHtq02YvQdzePtzhDtv8CtkHIyD/iIEAIH4AP2CRNWseM2kGJLQjHoF61Auf3emcG82X6ll9Sr0jO03B+MtwoHeyWSyoqIiByqSVglqO0jFXCPQPd5Fr9drtSRfUMf635VL7liLDK81Pkrz+GjV0mQ7JvpmxWvhs/pOt92Z/HUX3OE2wfA+IvOcjcB9Q1WPj1ZOjKb6m/VzNy4ZqoZPi5q1JU3w9Tn3jOruudU4GxnH9MNtykk3QLi1OmaSM2qhS+4MVBmh88ERymfGKZJDHP+2zUvUwCevngN3h/WpQlUvewhlxFVitBH+HoZnxylWpqgCPR2cBfIUGB8dpYLPqSLe56fc92QJGN1hZBytCCDv0gFnSFPt4x5ered15SMTUjoKukDJdTqpTluqkl9qkaY3N3ZBkx1V4/11m+6VjQijJ6NXPz/96jubV41VLN0ivlLBs8MOJNqTEVg8SP3VXc0BHg76FbOuw7hnYnTTgZv8FX+Ia1pcsSrDY7OGe/kO8/QNFoh8uDx3GhdT+8VB74x1xWZ9RKdmCCDv0gGIM6aHPbhc+IQLRWN9/Bt12gP1lSelNbouzNh2mNsJ9e+Jio9ntwe/dSLiCBt8zMVV0g//cX/7sKcj9VGdnoOAWGD4fmHz4sH0byK+fYAm84W6x3aKd94QOg8PEYczXRJ0m28QnR7Feeb2Xs2ueIjovejZ1zN4gLovKPLNmCQg7KtJTRqCwQ6tkDrDteDtvz5VcfqJhkgfx2fbcFWIYCYCYyO1af9qcIZrwfrrI3TbvlS2boGzwnnDBKL3YgfP9Q9DrqXbv2DIu7j6EoQKROBgggQ0P7vBHf/8U9Jp/aiuuzrc7TGRujNPSAcF0TPt5rAZqKIzEJiboD6yUhrhTc9smA0LYS3nxONSTz7NDQ10F78WnSh2ztObje64skipVOblF5aUlruyUcfa6gEzY3n5RafPXqira3jx+Scd6yTFWiL/0LKSbLHRKGbT4HTVBr3M6CZwM4otJnzh278qvP+HRZnKzgM84GUST0xccLU0Z0/6aVL7EwJ1/zwq9fdwUSB1iNhw+gnp9A0+l8qcMggj7S8ScAYCD49U/rDQJDbdGa3gOmGj1aknGqf94CNV0vBzA7WBfOFT4f341n68jTqdls0KYNMTYd+gVhv4otGxg/C+0EjIZM1vvfuxVtv69DZn9nT44Mozs3J27z2I+5V+cTHL7lsYFBSACzCNYK53USpVFy5eOXX2QmVlNaAWFRnubOyeWbAKmiioKz9z40xu6sEIQfumXHvblfuHTh87d1BM+5evobnhyMWDhWknJIRHqiC+8P7gqB/KCyyVj4lJembKPYuHT+NzeY//9l9LATMOxPMcXNHoMteCtQ6xQHsfbBz1jaSkkZ5frFmn0KmLEZjZX/3dfNe5Fqx3g4N1ux9svO0HX42ehkXPp8LihByTb2Ot0ZA8avaEoZPE7u174M5nnjtxdq9E4eC83E1lS9KIWS9Nu4dtzYfRcsn2HzyGuRYzbdk3875Z9xNxxwWMYP73xdrXXn7WT8LQ15ox1Lvs3nvo8NETxNht511Os6sY6x8WO+WeiqGTf9j4bqidDzt1Bv1d859OjE4i6pR4Se65bYly0sJ3vn2pH2GfZorY71BDdbFSThT+8K4nX7v9wSZlS2ZlYXJEPPHLRBTDaXe+8cCKxlAxzTMMuH4bBPgz8Gpj1kqaVDTcGmw0hIqcjcDwMO3fDzc5uxWr+sdG6jYsli3f5m21lDpzok9AqNDkcVAZGPX6fS+aaRiTOBY+/1w7fuWfbZaTCmbCZqeFLPabz3zp494WVmpWRtOpVNp46swFq8q2bv8TuxsEBvr37xd75uxFEFMolHv2HXpo+b1Wq3Q7k54xKe3dyMjMJrqWVv2uvYOF+gY988gHlVo73k2p0OuWLXnVzLXgyIh4gvef/rzEdCpstiQYF8AIvUH/0h9fhb1651/XTwKHNGvAxrtlQ4K7bQmkv79++1IIs3bRjJwZVuiUFgR8RYY/l3ePa8Hsh02XEO/exb7c4R9C1NAo9n/WwrXgAlOTp4y+bQl+SoXI02nffuITp7oWMGPfgaMGawlmiopLa2rrMDtXPbECJsSmTRmPnV5Ly9Ax9W3iDPUuLBZrQHzcww/eN2b0CAxENsvVpkq8fBNGz8Zap/LXPWZQZFCkDUlIX/bQvf/WGTvGGUme3hxTt/nWnu8/PfKb/FYOTdu9fnqsckGSI2GjjUpWRbMHZmpxU/iZkv6XKoIrmh3Zk39bP+1Lk9pSytjoOSpiMAKb721ybOxbJBWkloecKRlwsnTsyeKh58pirlYEKDSOPAauntsyLNTxgJQoobsfr2OfZrNB/+IDb9mGfMKQSfUiqqMQWB+9Z/4qIaEJ28odK62tqz9/4RLUtZynKSwqwXSGh4X4+0uAHpSUgHE0Gk1VdS1GM+0vQ2fGVj25wtOz9faXm9u+MgH+xvXY3T1h/mtn98YKRaRNN+v1L8x/mlQsLjSuQeARqGm/HQvYnHgPryyHkq3C0vpHs+yeKD9fFskTLRrV7xmWtL5B2gAGRwctkvg+hll+vWiLtOmXYcE5Hnw7hiP/ua1l23UBWoAhvfoMFFiarJwRb99tvV7ByagfGuz3YELs3NZdhaaHSiu7kL+Wq/9rRGi1aQnJ2dr5zWPXtt43HTiSPH2ItdwjBrIorIssnP3QiZ1fESt2Rue7GZ91zho+scV9+48YDEZ3d1FEeNjNnDxiUUND+0ZssbjdI/r4dGRTrK9vAK9DlGcI7SLvUlNr8lWD+R/b/cdcC8jYcZNr06hQytW3HvxtN0GxNG7AKGNxOqmwivJsbHz88MYbZ3CFEOjimHf5fI7M3Z7BxunSpPiID8cPHow3bUkMiYbpgiUyZcWJnFeSA89C7ktLGUuOkOe2Zm7zgk0mv3BLMcRhGgJwfT+fY8fG2+pmTnbj7LEJ700N63SZRMgTjxv4qpvbq4U1J6tq3hkVVkSx1ynhuhUjlT9eIn+Ss1ToS4iXgdKZ4+60lLHkxIfH/2HQ+1NYW504fKbZHcxSm10cy/XUquqa1EvXQMmkCWPKyivNtKnV7VMUnFthCwJBx1hNqerIIqjT66yaGhgQZKbTBacu8i6yZpMgDZ7pt4FKPymOXeAyAL5UFFKUiQ6OKaTgXfiUA8xiQuOuEryLn/1QgOVDgrV3D6a6JlQr58p5308eMoVil8Wi0GlDN9XKcvNrF8RJKE2Iz03QjI7QXihFAcoUMWaE2PMT5NRDDa9V+g+I3Tctkmr8a0zgpJjAY1cKf4r3eF/Eo/SY8u50+aarQq398WNepkH/McHRFPHVc/luZE+6oCrCL9zsDkZRf2diPJ75gyGEGoPLAecxZfL4XzfvMKuIw4e7JR6349ZNjDHT63Wy5nZXRFTSLd7F1YsZxA7bRXfHxJgdBsJFpSjNvfX0gcmzHerYx7dTfeQslArcPHfFBU2haB4uFiDuHxr2T1oV1WDH92ZQNQlvAhHdiIBEZHh+AqVHBzAS1lSGDjzlKaTqWvB+DY95uFz3DUym4RwbBEz2PpriyBqe3jS1UpOccpACxV+fqX4bXXCsCAYrsDgPdUePGi728qSihMPpAbfuDgdIpUsOywT6BxLrwo4h4ikVmkVtVd/D3YM4ZqSi2bbM/tQ9VHbVa1VU762FlYXEFpsouyW81gB/HcW58spmno//Pn9xLF7XLgLuJsMTzmXmjhzgT947SBOQEKDLqnXRN8qujiBhSwRWpig9zB+gLaVaOZcqQicMPmq9jAJ3QOjtORXfeugeF3LxR/BOq/1rgmLteZPA4k5FCQUy0x9RbmluSsIoQnmnJEujdjN92rMqmlWauXDCAqtFjjHVGpOJh7/2HMD0TJ82kaJCfIrMTB6mhfzEfmbM7jp10b1ALDaZqG1pkdvbYYoPGXy+wKwtexsiyiu16sbS7GB+xxQnsZRIe1OOXc7OTvUn1KyF77edB6TWp1JDpWMpeGvDHXUtt5rg+wZsq5fP83MnWSoD+eXDla8fpBqHc0s/+r97EHhgRMdkvQ0LChpEg/vvsyFApSg+dPq5nFWjAsiX0GMlBgemWOt0Jj+is9f+oeJdCioLAim4Fuhgzs3z4jseotJTijJNTR2jq8LCkozMm1ARRi2Xr1wHoqamDtOT0xrTdAS263NuBSngCwRcwsyYv19HNASbzaHxBkixO52J9YDhFWY6DmtnPXEG/4c9P1BxLdC0kM3+5vfPSW0oqMj3UXaM2wxGYzb1Ufwt7UuSTX5Lt9jm/1+pXRIfcps51/7zEJ+EMs1rVOpRNIyKKiTjVASGhugGBpA/LoAN7r6b3Pkmj4aOGTY2/vlTJUOo1L1nCCW3R1SV2dxxswa+obpYriJ/ft2+dz1RiQ06is3dm3rIhkBXii5fbfUocMiaWyBsDD741pbcvAI4hSKhsH0CBeKP22TdiHtchIQVfqyUIX+Rd+n0QpzJvawuutFpsUWBsSLvYtZ5C3YHQ6VRbt72GZcwxZchb1JZ2zzVUceC6u+no5JkML9BODHxfYvaDjKGx6y4VG4yt2lVERgWK6G6/mRVA2K6BoFpsZQeUE6WpIRJhtNlUnL/r5vV5PsKpsbZFyEN5lVqVNXqjgG9J5vz+Y9v2TZ714nf/QjPebaFYXH0wvHtVbJ622KOlXp4kM8EBrTtcQH9jY0yrJVmwvSP361SxwxwXi0XzYx1vQMuHruczDx/cN/6aIEd8ZECFufsgV8gYn1M0ljL/ja1NH254Y1g05H433XmoYeWFc04E8leaY7Jy9mvmFXs4qm/P2Q8W0GqZHy0rqChx3ypSLvTWwWofIsgueSohG9oRMDHPfx4/qyJ4e1rDJ1phtwTXkJDs8q+B9/99ZUPhcbiOoN12g+/e+X1xz/GOURi+9EtTRlniRxSOlIg+vT7Vx9d9tqAkI5WSGtREYAN43Gx0UTJzdt2YpNjsMg/dvRIKIqKisAEqiHcuLoWMldevZaOcXx8vCkGAhCbcA3dY24ELvMuJbXlh07tVBZn2eVasKvlweGkH918Ie3EjHFz8ZQwtY21h1MPlqWfDjYNPr4ik+YryVfLzb4HYyLIn+zKmnjDYh40q9jF07jgKWk3fQYFtu/q6kzbqHDtpitUwiA6U4D4rkBgQjT5tyijLnFyKHGJkAbDhsS87KYl8S7QzOgI3ZFcaiEHt4w621Q/XRIcTkg1FqBWfLjmachiOSl5iqeoPRDrHGSxPLPbz/7fHbQzgC/cs+WTXf6Ri2cs6xcSdavlrv7v6+MNH6IWAb+977CgEt+/1ZnBZsmgwABwLUBDLsukxAFnz6ViVcaPTSHWZRSNvEvH5diw66uqkpsQb8FhscySrXYIUaDcIcvy7nUdGybbqpht+KrRqH+pMgkeM1P8zt718DFjwukgClnFCpqG0PbdJ1ggVY92cztIYFghE4PIb1tWqiGWCxEI9NRL3I2kDYrFC0ll7BWQeEZfyfIdGiy1XTExwG7vAgrXlee/EZMoIuyODGCxy1MPbkk1+dLCD9zhwxseEBsr//rtwwa1JiZ+xMq7Vzmsyt6K9yye99XaDVCrrr7hxKlzWPWEgf1vnznVXlUuk7dv+OkysywbcsHYRd5UH8higWuxbJ1eTr1W/XVpjsI0oyXFJqgsxvp6z6OozS6xiKAlpPID/TuyqJEKI4FuQSCBwnq+QuM2LPohZ5jXpB1BqnZAgCOrdzUa1dqyXCWF3ZGkBtgWEPP50V6eTU3tkV22hekqBUfy5GMP4qMcHo83bsxI4HQWmkxXu13Rw/SxC2QDhU9XemhHXef7FTDmYlP9b1XFDv8GxBSys/h6xNnRa8qi0QFj3Exic6zUDPIy8DhGB7ZbW9GFWM5BwEtAPnCpkfOdFFouFPSDKFvbPYv0cfAZ5aa8+d38GyvD4vq5t0+F2W6ImaXwyharhg0elAA+pqCwRCDgh4eFMn9DJdO9i1WUncTEsyw4SX+dRr2xsvCmotlh/Sxqedd8PCIdbsJGRQ6bXyNn+3mQ/PLhbWblTRwbelBR9yJA5SGqWeOsxTOxiPzRB75CDkPUoNP8ryRrvHfAosBwD9MMMQ7rZE5F2OaCrcQwxyQbliDv0gGOni+obNv0K+ILa5pJpoY7qlGgGrTq87L6zJb2aEIKNayLGE3T9VsXcnPzdg/vrKiLfKlK4OfREfppVZuv0FhONsSxWhExXYOAgXzo4qbRO827uJOvCVLPfmYVMcjbcrqxNlXWMNjTO0UsodfHeHGFzfLWYJwAz2CrrSMmjgDyLjgUbgrf4N3FN+F8oHfgbzfa1806iplBydVuHmSpA2pk2YHigc6wVyxQk6pVOTJnTqoVCdCGgJzCK1jcueS7ER0zqEVV7tb6bg1bh1JDwQHaUtBapjboL8ka4EMmaF95iiQm9UYa1PlP/Bj7avY96R6zqt/3Lo31HrdoyC9ZQ3Oe9cpd5gZ6kv/s0YuQuwyzcxXITXJcWW/LV6iyXtBlrkxZSKqjyc7NLqQKkUC3INA9YxeIc4CYB2d02AWhZc4wm7rOOgUriGy9VdqS7eZ2J3WdFCVL6i6Gcci9S60cLbpQRLR7xKhkLA4WU8oT40AHlKoC0lpM/gqR/wBIuwevcWexnHQDZFQIWfd4l6C2g8JVQCLmCOTXc5KCSH75WtVhN7cXzWt2+byw6tewMBItObVOcS1/7Ny3c9c+222//3+vxsQ4JZzBdrsOl/7vs7XXrt2wXf23TWttCzhQWiRl6w1upBncz+d8Pib+BQf0267ixSGfc86pJx+g227FeaW07FcQi8VDhlDKuua8jrhAM3Ovogs63xObyKkjv30nBpA/HjrQdzH3NGktKuaRKkECTkXAYGTl1pH/8LWqv2k3o1FRNiSYfCEkp6Z7nnpp728fV0j+JeuDADF5ei21nHxG0Vekv5D7Jb0Xrqj27JAgkjQw0OLFMnLz6DUMaXMAgUvl5HlWBgUWNSkqHFBuo8q1gk/YLPK5JSpfchutOLWI3HqnNt+jlCPvYuVyOXvji5UmKbOO5ZHfF0CZl9t6yiopCZZVvUVF7ig186ioQjLOQ+CfAvKHALHAcDmXzlyoal3LIMl+0k5BVEhaJXPHLrTMjJGC0DsEkHfpYdcRMtdeLif/7cHbJM/nrKGrb4W1p8eGF5Jqa1CwLpSS37ZI9SABZyNwKJcsqr3NgpTgszIlbcOXs5kvwaiatGt7sijZRqoHCXQ7AuT3qW43ERlghsC2NMGIMPJNJeHCtfXN8/y8Ysyq23uq0cmVjU+6UciWuzWNhi14WVm5lhbW1pHndIJ3/KlU5ttxEhL6W2pzPaeyqrpRar6XVi5XkFpiFY2AAIm/v61kjEaynA6VMvaJQu7kGJJvkTvfeDHvnrGDT5PaSSqQX318RBClF3Btvoa8CymcPUMAeZeecZ2IVm66Kvp4tpw0n0eIlzazcoG3xwUuu0s/10tZd4wOp7S37tdrNHiX9z/8gthZ6vSGnzZbCn/z1UfwAgxLvos5f+87cuz4GQcatYrGooVzFi6YY0Mbi0JOh9+uCCfHtO45t32MCq84nv7wlME/2RazXdqkKBeoH/fwIl+zqJWzDqPJVdto9pxSNDNm5VoxeVUfzK2Vs//MoOQwEgNklzKnydWOv1PveNqdo8NLrWBkwYL5uotoWswCFsYytt0QNVLbMTkx/MTx9Kcc7khVU0Zp2R3wrENFwzfn3I1GRi9tkHtIKv3sGzLIu1i5zkxe1cfMXX2G6kszU8IqK8snFFbbPblRK8tNz0meGJlpBSBrrP+dIH+Bq7V6iNc9CMjVrO8vUP0WwQslz92YpNKaT+6Rmp5W9CtPMT8hgFLmVqXW7euzVE0ibdpJAox2fU7qs6NqkXdxFLlurXemmH+mmOr6eYyvOpL/wD/XH6Z4d9Ab9CdvPMOTz4ahD8VeZlZzdtygYVqMYnNIjBYEvjzrAe9xoXiMCiurrRx1MfcTivINLUXH0+4Y5P22j5B8JR/T+c15GE6hOxJFgHuAGLqWPeAiWTXxkR1kCWFMq02KOFFfOfJ4+nMFNSdNSzrOKqTXTtx4sbBw0PiwffBu844CMurB38VkIt1TboB8uUw4aH3iJV1yI13VxyCpama/vN+O96CEemlG+K+7nJlyJvuDhpbiznDNKN31z/WHuPLbJkZCRiKqR24d550jdhhDVS/dcsz4PtHdK+foQ6v6VnBl+LoLZnFePfeFfZ6fzyFfmMV7GOylC/ba4+a2p7KUW698RMhdCEV1jX8X1/xhMNRLhLWRPpogslwvuDacePeox9UKqgMpvFZnBCzCNzaiDP6dwdPKl0gktortKVt3wX1hknpaP0qLIpji5BBYxtvgpt2Qleuu0PlxOAEiQbhOL1Nrq9wM9bE+9QM9DQPtdxMPbBertLQ6YXtwQLLOQAB5FyuoMn/dBTP6yzOixYNU46JI4kotexjoqeNz5dK2F7X4CXPjfK5bylDkXCnnvn+MzhWX6bdN2vEHuEB6DsY8KNB23/SV+IweNdw2Onb1+oHfxZnPN1B556lZo/H+EFENHwj6uGJWZO/pu0fcU3tIlgfaLqS9GPVA+e7xLg1thzPgCg0NdXen82bnDCPp08lautX7+nOO3BposaFFzbp3ize9QT4L5s9WKhX7/j5Ki4WMeVCgZ0IlLDTo2WceFQpJIgbt6nVVM+fpv7w23SujBXAHlJwt4b53zP7BjgMtMaaKQqGoqKBtmyqxWzCupXFoS9TsAN093kWlUjU1OWX2IyAgwAEUem6VsibO/F+8Dz7SyCNPbklzLyHP7vxN3oUN9De8dMmiaVMnbvt998WLXX0oZpOuUdCMSifquuxcvL3FixfdOWXyODabfK2Uyn4XoqFb0oRDQ7QvTiJ56yixCl10SSN7/kYfurT1FD1ardZJN0BGPVt3j3fpKV+CHmHnySL+ozvFP9/t6mfPR/4QHy+glPTMARiDgwOfe2ZlQUHxb1v+yM7Oc0ADaZVly58ilbFLgHSTo13acGGRSDhv7qzbZ03l852FNrT16gGvKF/93YMpx5Dh9nWBqJOzZm7waVCS+8suNIKqdhsCyLt0QO8urZonbA23FyllIVH0vDm4Radr1GnK1MrLzQ1KPdXQzA6bqFG/XhVq9G6/3C3j0j+QsGKBVu92/zbxH84PQY6NjXrrjReupd3YuvXP0jKnzCRY6R5jWFweZ9aMKfPm3u7pSfauYDpshllWpbb5geHU9lh2ucViKXvGBp+CBifegry43JFekhC+yIfHc+fQ05AXVzh5eOu6l7vSKbMvXcaVQQroQZxBHeqCKVytJgT7Cup1Pu72xfuSNvtASDS84ntffUW5yinzD9uvC+EZcOuSRh8nbzuBVJX3bPE+nu/E52gzMJOHDoLP6TMXtm/fXd8gNSu1farT2R3yYFuhY6U6nd0PFpMnjV288E6Jn68jLTq09AzrZyt2iEsbOW9Mo5T4xxHDbtW5UMKFaVXnvYMyydN7um8Q/L3VIJ3/h/BbL4rMYEegHZ3N9xxdyLu47lqNFEvgc6qxZlNlsTNaPZLLH/SF39YlsgnRzvreH8vjLdsGN4VumMqYMH40fA4c+ufPP/c3N1ONwy4qKrWd8NEZF8JSZ0FhiSWzM07y0KSlSxaGhYV0JkDKt2tV30zbf454HMrlwbcoRGzHhiczJTZOYQfSf497QBS73uCQD7Shuq1IxOE8Gho7yLPPreWQAdMN5ci7uBr0iT6BQXzRV6U5agP9v16I/5n6g++yZNUHM1vCvOnUD6/LffOQJy1ZkLuC+O0zp06eMHbPvkP7DxzTaMgXCfbsPTRyZHJXWux63cuX08rKKU3rxcVFL1u6aEB8XBcbtXdV36w5yASRuFry+hT5s+NUAm6XAxII2k8U8p7d7ZVR7azbjoTL/1dkfLCA6elkCJCYkEqlqqKyCh4OIsLDBALr0wMN0kZ4ugoLDeZynQWjiU1dOGGufZBN/dKVtPz8IkATFjZHpQwbnjy4Cz0lr6rj8LRGI8/5UUbx7l7wePV1mfXFahFPsDRlZoQkqExacyrv2s1qOx57oZOwOR2WYXZmCJ4dp3hlksJL2NW7g1TJev8fjzWnmRLnLXIX3nP3vOnTJn70v68qyqtsX9e8/KJPP/928YI50TGRtiWdUdrUJLt0OW3zlp1UlC9buvCO2dOpSJLKUNyrb0NPs4r92gGv7y64vztdvmwYDSsxN6o5rx3w3H/TJJZawOV9de+/7xg03kfkmV6R/9SWT66W5lhadefg8d/c91KkJLhZpXhhx+r1Z3ZbygBHwGY/5yrXItdq9Ww6b56VVTW7/vr7RkZ7dgMelztn9nTY+0UMEUy/kfXHn/tqauqgs+Ba4JZ4z6K5To31sIozdSarK4No6s2YSUKsd2VlpRmTeJqbV7D+p81mEyBjx4xcvnQxUcyS7tevn7e3g5OtOoO+pKHqeuGN7OxUj7oKIcfBJfJqo1twdGL/qIRh8cOLq4qyizLzC9L9FOYxXbtry/fWmT/SxviFHHhmTXxQ+63QYDS8tfu7Dw9stOwpFY6vyPD8BMXjo5V+7uY+plF1v1S5HJT4ijb5CH+1qq1Cxv72vOirc6IWNW1TYZvueGlM0hCrzdnLLC4pff2Nj+ytxUz5saNHrFr1CF22PfrFu8d11p9dHGhiUJDu5cmKpckO+hhYYvn6nDsEPZs1DfNix57/Zkr8CJlKXt5YmxAcrdSqJ3/2RGpxFlFyZOTAc69sgMjy62V5CSHRAi5/5aYPNpy1st/2ibB+w8Umy1QwPaDxC46JTEyMTQqSBF/KvHiz6EZzeb4fhahuog043ajVNHr6J8QNG5UwMjY4nOtopACEI+fldVygvPzCb9b9pFabj8UhAP2eRfOw1tPSM7/74RfcEoyAYe5zqx4lMkNCQmDPH5HTjTSd7peubrS0yH/48Tf4a6bw3PlL8f1jR6e0Bmw44+CyObH+YfBxS5m1O/VQ7uldYju/PUqD3id+5Jt3rMDNGxw7BD5u0+67mnftrz/XhvE7nt1m+4Wcbqxt1JmskXyz5KW4gLDnf//il/P7BwZHfbJw1Qd3Pbkv/Uxaecd3EVdOSsCLLN8+7AmfZcOUU2O0yWHa5BDy5eXUMu7lct6BHP5eZr8lMCoywt9PUlffQIoD8wXonb7r4syYGVw3qrmQpuVfez0fGq4cG6lLDtXGSEgmXSH0A5IDwUsZYBidWWP9JnP/6NngWk7kXpn91fPgV56YuODbpa+8dceKed++RDRg7ZKXwQ9N+fzJU3lpSSExV17/5b8Lnt50Yb9GryOKDXQXm7mWKjf2Q8tejgiIwMWmp8yED5x+ufV/ohr7pgSgVqVWM3n2I5MTR+EKaSEg8ARud5hrEXt5Dh2SdOVaOvZmueMnzk6dND4gwA8mgbdsbR8Bx0RHwuYnCKSE1m/m5GffzBs4oB8tltCuxPqFp70ZuxSeOnMBcy0e7u6PPnK/l5fn9+s3VdfUgpKz5y45z7sQjZyXMvOit9/pfeu97HEwQybfPWXYVKIenB7WL1ny8H9+2/heALc9JRePzQYHs4Uw8RUfGDE7adyOK8dWH9vW2tmC9Df+Wnf8hW+nJ4xyzLvgrf92VQQf7DQ5VAdb5+Yn8QYFtTLy6jk3KoUVzezsWk5aJc95c+K4MTQS8N3oHd5FQLb9nkbQHFPVoGB/fro9MNpTYBgeqodvUZSPPtDTGOhhkGvdICdmaRMHXFFaBRcI0lbGxCSBDAzNwbUA8d2pXf8397HhkSY7AcJ8AlKiE+EXAa4FZDIqCzenHnxo7J0zE0fvTT9DbGJ+YBjxtIbFfuuZNUQOkX72vpd+2vuDruA6kWmbrtSolt3/ZlxwlG0xB0rLK6rwSZrnn308KCgAMv18+sW3mCoY1oB3uZF5U9YWyQLu57lnHuXzeF98+T1M8IDMhdQryLvYAfvVNrcMFSaMHwWDFSBSRibv/fswEOUVtubT7GiDguio+BEXMi64lZqM023UaxRLOnMtWK0ov7CxU+7NO93+DALMkd5+RO8yJKz1GeRCYQbeCiy9AB3uE4hzuk5cq+DCx1vIx7zL5mvCL8+Iu64Waeg7CMBM6clC+HQpdem3J3f+fuXYxaJMDDeYum1QyEK9A4gwJgbHwGlqcbsM0AczL4B3GR2dRPQuEp4gVtSRS0Zt0D+w7GWiHkv64TsffX/NM0EwLKJ2DJ64wBmuBRqHRWVYYsGsCAz0ByI2JgpWU7CgleaW1vDIvLxCTGBQ0kBwLUDDVCrmXWBlGiti4F8mjl3q6iAJa+sRFtoelAkXAONoNSbzSBjTeX+Xz1r+5TfPh1AIQdEYDCsWPUtqydThU0+f3hl8Sw4GRtFCjyJV+xzgjqv/sJ4cc6uw9X9YyYS/lbLWdTx0IAR6EwI3KlofvfEjWCzpFxB+Or91jIIfsO4ItELTseRT2dT6W8B+F7jYUNN9LWpJMHFCDBczI8ZPXEh81DMrJZ6mKxVfjr6DyKGRDgzwx70Lplav1+tuTZiLvVo33jXeypslFrc/CPr6todcww4wWDu3K28pjcbbVuUi7yKTNRHtMNgMxv38k3eJwkA3NrUviUskvmZFZqcajdqsLTMBu07Zbm5eYf3d6spIa0l5Aj8vP1IxEIiIHaot6PgJhQvdce9iWf3hcXcCc3faKcuiHsrR0rq9kdkvye22S6ShFWQXdAMWVD5f/C82i/3h/p+JzRXUlcMpcUAjVyuB400YqcBpMN8kZGDy6DlEJZ3R8Kh36fh2HwpxvYMHTaTxrgL2aLTmC/hEIy+kXjUYWsNwhEIhLMMQiyBDI3aKZzIF16JQKmERAeMbDHqrporFDsY6EVu3l3aRd6mpa53hwQ/erbUHnGOD0Gi15y9cxgRGjhhqQxKK5Ap5U7OJJ7MtT1qaFDOsmIJ3EXpQnVxKiB10neBdAjpPHpUc3v/+Ubfvvn4yu7qY1M6eIpBRVzzRjb64DIa8HIxJ6MP68FVlsVsP2fIB0cZ7nvoMw++TQ5sOZV0kYlnSUF3bLL135PR3961Xtz3OLxo+FQTUOpO7s9j0fjIifhhRiQ1aDb8+m0+6WN1BEQlmdzAbOqkU8XhW9rIUl5R9/OnXeHXwH089/iA2bSPxbX+qzi8owgRgfINL6rQdAQ5andaqqd3iXeDpnOnHvr8PY6tesL1o8sSxLjaXSy0u2fZojGizwPSLxXGzPvXLY3M2LH+jWa14Zmv7b4+opOfSP2YfVtCXC6exsX1Q23MBwSyXNjTS1YWtR/YrRCQxXXS11XU9OdUl4Dl+v3xUo9O+PHP5qimLiTr1RgMsz0AY587HP140bOrmFf/36qwHQYA4VwanZm8glckpfytYlG6AEE1KtMo1dHz/uMjIcKwtbPkZaMi2d+z4aQh62rf/CG4GY7e8uGjsIvYyebS3jOzGkTIjYHvR4aMnMeZdd5Kn8xMIBO6c9kGimSrHTssyKY0bNMpmivoLK9sX6DD5JtPASlzJF3c/D/Ezc75+oURajTPtIsbGDhWLWidtrR6eIu/0mtauATEraYJVGZxZI6u/Sjm6Aa9llZAqmu/b9v6bY5aI2HxW6+jfwUOpVu8/eaJE2+DWHsfkoB6GVPvx7z/lbtqYcJPAJ3ttg3nCMwXpn2X+aW/FbpTPqSl9Z+96MABCWi6++iOEja07uQt2nuEmfXzwl/FxQ+4YNA4+sJvyowMbX7v9QSzaBZeRmf6IckpzUhJG4aU2CJZG7Ubh8bGstjhqEMlvxEYrlkVWdxlCnDEswMAu8vSMLNgyeT09c/WX3/8LIsT4/KTEgXjw/Y6de+FD1Enc1c/hcD08mPKTcJF3CQxoi369BQnFN+fAgtVPv2zFKoH3hrx+txR0+r+7yMPh3ZRWlZbnpvpTCEr2tjmRStSclXWRGBZTC99viwP26j89ZfHqo1v/zjhrUUiV8f5dzw2NMInvtFpz0tBpVvlE5sGM08s2kAThEOVt01k1Jct2f2xbhmppHFVBxsspLlz+0a19ApjxxjrBwOvleUeyUucMHh8pCSog7DJWaNUz1jwzKjpJxBdcK81ZOGwKNJ5Wlks0oU5n8iM6e+0fKt6loLIgkIJrgYZuZJxcMHURscUu0lZf7uLT5l1A8/x5t7/21ocwQCkqLj1/8cqkCWM4HPaKh5as+foH/Lk8JDgQtveDMCzvE/fzwwZPs5ttF03tSnVKA8OuNOBwXa1W9936TZB4BzRAlPfKh5e5Pi5i25HNVFwLWChks7/eTj6FVVCRL1G3R4hBLRjRZ8vNV4kGh8b9+MCb8EN6ZVfHJKzDMKKKCAFmIvD1vS8ef2GtkNuxAiHXtK7YwxSZmcEwxL1QlHE850qjsmVW4hgIJDt68xJRJtN0qdVQXaxQK4gCVulte36wyrdkBhkM13KvWfKdxOFwOP3iojHlJSXtIUXRURFvvf7C/Lm3z50z87lVKyGjKyYACcecZEbX1TLXu/z+x+6yW6/0WLnifte84oIIaFldRVm6PcFalfkXs84TNZjRKo1y87bPiAstGfImlemiorfQY+/Tn+kNhgXfvWK2G9lMGzpFCPRoBPw9vSf3Hz42djDWC8j1khKV2CCXlTXWdtave0bcds+I6ZsvHoT5VaIMbHWsboslw5iebM5nG94kCljSu0787q9qseRb5cDS6N6931u6PavC9jIvpl6FrZHwwedpQAM4GEwPTJThCiW+PjNnTJk9a1pcbPTRY+23pqTEAbgA0wiGehfYgHr6bHv0yO0zp+Ge3GXw5ZTn/LjpPbsywQhYnDMHNp413UKMG9zU0vTpupeCbn1pMP7fdSabQ+FLvOPxjyCW/5FNHxTVmxThehCBEOgdCGw8/zd0BFIfpUQlBHr5frbouRj/0NXH2mfCiX2cEj/8nTtXfrvk5a2PvA8TaP/6/QtiKUbvN/29BOu0H3zX6Vzu9qNb6tJOWiqxwYFf7n/XvdTQIrUh41gRrMHAvkj4pF66hr0iD9LAZGW3T/3BRn0ztTCds/HX7ZDbF/it6X27OwW4mXnEUxetuxCbJKUrKqrwtLK+Pt4D4mNzcjs2XgUF+sPyF6kShwVKassPn96lKMpsf5OYPYo8OdyMf7ampp+aMW5uYnR7oHptY+3h1INl6aeDTOMmr8ik+UqTp6cQb//pA0dBg1seeQ8+xJZHfvTQ5ZJsIscxOkOZdlOZCXUHiBKTRCTh3Y41gWohBKggsD/j3JINb315zwsXX/0Jkz+Qce6zw79Z1gXv8p85K6tlDd+f/vPfO9bICZsrceGzTfXTJcGwewznBKqVH655OnnU7EnJUzxv7Y85l3nuxJndfqa/O7yKbSLEoP/ph9clccPuv+Nhu/ZU2FabkBAPGZGxfWBffrM+NCS4trZOoWidJIS1gJQRyXh1SLR45lxqUXEJthsG+EvuWSASMTf2nIk5kmG5Je16Bo6pGbH0voUTxrXegq0eXcmRvPP4tuyMcxKdjkNHEn7YvQ8rKkKj0ct0vIKZXaNRf1iUoSAErQOfz+GOixtitV+XirNaCGN/qzJmzKPP/0hc1W/RN39V+d/jssO42DTv258JedWd3fGDxIvMCHpX9c2Uo9O+jAB8528bmAIBY7BQfzDzvNUoQsg2ptZq6ixWKM1wC+QL34hJFFmLHm7U67QsVoC1IjMlVE7lOp2CLRgybPKdkxdQkbeUMcuRDGkrf/x5i+WuhvnzZs+cPhmvDlHIeCAym80C1zLe4k6IciTjcFkniBuFLCWsBvNZijnAKSvKCoDbPR2uBVrns9nE2DCiPTKd9uvSHDPXAgKw0AJLl0RJGuldDVuIrgU0H2s6EMoPXx7wGI2tIFUIAbsQgO88DGLgY6MW5Oe3UYoX1WhU35bmvRBlZR3Ch0LYJ66HlPDgcj3c9Ddz0xz2LmZNwJurQl8L2vHH3uycXBiXwJAFEiHPnTNjQHw/M0k4FQoEw4YNvn3GVMtJM0vh7uUwcWYMBoNRt7YRWaITGRFmyaSFY/W5iRbNRCUVauXqkptmifeJAs6glQbl1rqfLTUDc7HfchGbuYNrS5sRByHQGQLZCtn7hRnPRcR7mc5CdybPHH5wUOCqp1ZAXpLKymqINra6QRLSw0M+X9j4QgxBZk4XLC1hpHdh8DqVJYLUOVKtZn9D5Wlprc7l+UtylBk6o87SVGBC0VCPkZZFiIMQ6IkIlKgUbxfcmCEJmioJsjpLxuROQf5jGw/W/v4SJhtvaRsTvYulla7hOGM/DUzRSnWaMrXivKw+s4Vyggq6Oyzh+nem0kZRZ1UQHyHAZATket2fteX766sGe3qPEkuC+EIfHr/HeRomI0zRNuRdOoCSBUb+UlEI5wODon5LPdhR0POpEH64L1ci1TWYdQWYUGTGRKcIgV6AALzl5ZKsAT709iVFEpN6Iw10/ue+p+jV3Pu0MXS/S+8Dunt7xGVxXwn7P7MX4gLztbD34W/32oZaRwggBHolAsi79MrLaqVTwzxGrYvbPMJzjAfHEz5AfBO7Ca24WEEKsRACCAE6EOie59bg4OCAgM7idbvULS6FdwF1qYGeXDlaEPdh5Jc9uQfIdoRAb0AAXjE5ZIj1nW1d7B6eQqaLemip3j3eBSLqekpQHS0oIyUIAYQAQgBHAAKIeDweftpbie7xLr0VTdQvhEAvRiAyQ83R0tO/Zj92XUTvv73SA1aP1YK8S4+9dGSGnytIq5LVkUlRKqfr1WGUGkNCTEVAIDfwaPIuKk+mdhLZRR8CyLvQhyXDNL351xqGWYTMQQggBPoQAihmrA9dbNRVhABCACHgMgSQd3EZ1KghhABCACHQhxBA3qUPXWzUVYQAQgAh4DIE0LqLy6B2ekNLU2bGB0V+d3JXpay+s8YwGctSYq1Qb//HJs7HZdRa7cbz+yqa6AkQwNW6noD3GzarFJ8d2Uxs2gZoo6OTkiP6e/BFqcWZFwozLF9E/diE+aE+HQnclBo1ZJKHlycS9SMaIdBnEUDepfdc+qUps+YMHr/n+mmb3qVVxrLPxFrgXeBVgESZ/5v32DfHd7z4x5c6g57I71k0dKqyqc7Cu1gBzYMv3Pn4xzMTR+MdhFeMzPry2YzK1jR0+AE+eETkQPwUiP8uePqD/T+9ufs7IhPRCIG+iQDyLn3xui/67tUGhUnC5pvVxWZA7L5+8q5vXxZweZDT8+OFq56bdq+fh3j5z++aifXK0y/u/he4ltVHt/50bm+ptHrRsKlr7nnhxL/XDf6/pZaeO+SVO6pkDUIuf1bimA0PvPHG7Id3XDl2rSy3VyKDOoUQoI4AWnehjlXvkTxXkA4vwSR+OnutslqnTSvPm/P1C+cLb9w/evbYmEG9B4XOe7J4+LQyac3zO1bDNJdU0bz+zO7Pj2z28/B+ZPy8ziqpdJq/rp/84ugWEIBX+XYmhvgIgb6DAPIufedaO95TvdHw6eHfoP79o293XEsPqSlxF/u6i6WmY7tTedfA/AFBkbY7kVtTCgLhPoG2xVApQqAvINA9M2PNbYcz8PXz8xMIBM7Q3Md1XizKAASGhvfv9Tg0q+QanTYuIBzWn/BYhkNZF1lPjiHt+6DQOJAprK8glUQCfRkBtVpdX99p6E1XkPFqO7qigca63eZdKisraewGrsrDwwN5FxwNGonqtrcwhXh3hEjRqJxRqrQG/SeHNr15x4r0tzZ/fOgXiKZrUslJLRTxBHcPn/bv6UshLG375SOk8kigLyOgUqmcdAMEVMG/MATb7vEuDOl8nzWj4uN9xL4//tt/vz/9J5EDNJtlMmuKxePCPdRMrFeevr3n+3p5E6zPf7xg1fvznth66TAsqFwtzbHa2cqP/8b5MOhZsO5lWOTHOYhACPRZBJB36bj0fHnjCB4fzgO0yrkBoR0FzqSKlYrrLY3ObMGK7s+O/EZcxr9ckm1FqA+zjG5uq49t+/7Uny/OWLZqyt3LR8++d8T0hd+9su/GWUtUMDDBGY+NHTR94KgNy99M+r/7ZCqFpSTiOAmBUWK/IFfNh4eJ3INjY6AjAg26xCTXE3mXDoAELU0j+W3P5mpllH9YR4EzqZPSmm7wLoc3W0bWmvXSYDQQORCaDKdavY7I7N20Qqv+v79//PDAxpXj561d8vKOxz6KfXOhJW4Q74APVl6b9eCH8598acb9b+35vneDw6jejRJLhnj5uMyk4TGx0JZMi7wLCeQmsx8ksqi4DyMQ4RsEvYfw3L6GAWwgXXdq10cHNgp5ArOIZFYbFiw37P/Wk5/P7YW/sweNaytBfxACfRoB5F369OWn3vlR0Ykg3KPTnDTIZd4i8/eKeApF0C+FRoVDAZNgxm/Pf33vizgHiMPZF+HvwOAoIhMm0OAwwr9bR5OyBUhPQatOdCAE+jgCzJ0ZU6pU5y9cLigslslavDw9xo8blTCw94fDMvPryGaxXpi+FGzbfPEgMy2kYlV2VdG4uCGQeiD7VmICCFKAGGK9QV9QV45ruFaWA/RtA0dyWGzY6IPxQ8R+QNQ2k6yQDQ7rB2JZlUXwFx0IAeoIVFbV/HP8dFFJWUVFldFojIuNXnDX7Jhok/1V1dW1v/+xJzsnz2AwwIuTRw4fsmjBne7uzH2UYah3Aafy/fpNsubWJ0HsuHItfcK4UUvvW3iLQf//Tz/w1o28a9dyr1SX5kgID7P2tlRtdAuOTuwflTAsfnhxVVF2UWZ+Qbqf6e48e3W6Xh62pk+JHw7tRvuFQLpGSKh1KPPCgczzrreErhZ/ufA3eJefH3wbEqZdLb05ICjqzTsehm5Cjk5ISYC3crO65ETulcn9h29d+f5/D/5yrTTHz9P72Wn3gsCRthEMLkkkwAGPjxvy/bLXgPnbxQPEIkR3FwJqg0HjFxwTmZgYmxQkCb6UefFm0Q1ZWZ4/h+OwScV6t8iw+JRBYwYPGOawErOK5RVVn36xVq3W4Py8/ML/fb72wfvvGT2q9TcIB9wSV3/1g07XvvCp1WrPXbicm1f4ykurPNzdMRmm/WWidymvqFzz9bpmMkcAAEAASURBVHqAzwys02cvRkWGwyDGjE/XKZfNSY4fAR+YJ/n09y9C7N8TpzTofeJHwlYJ3KTBsUPg4zbtvqt51/76c20YFjWAFzuBuPTaz2ZaLbcBmkUkg/zctf/em36GWHF83NB/nl+Lc2Cz+r3r38BPeyIBMWDzhky6Y9C4Uy92ZJnMrCx8/vfVZt15aON7ux7/GPLBwAcrkquVT235xGrMGDEiGYQPZJzbcfUfM4Xo1PUIVLM4Dy57OSIgAm96espM+MDp19s/FVQV43yKhFynU0cnvr/wGYry1MU2b92Ju5agwIDqmlqs7uZtuwYlDfTwcIfBys+btmGuhcViSSQ+9fVSkKmrbzhw8J9FC+ZQb8uVkkz0Lv+cOIu5Fn8/ySMPLwVkv1n3k0KhBFzOnr/kPO+C4+7OF7697LVNh39VZV3AmVSIIZPvnjJsqlXJYf2SJQ//57eN7wW0BV9Zlekic3PqwUslWbaVdCaTU12CV4QN6u/uW4+fQgb+0/nXTuWl4RxaiEAPn/uSW7EqOH2dVCHfSxQ+tH9Nc+PW647fuGF55M5vXoCV+XDfQKxFWCZZe+IP4sAF4xfVVw778IEZA0ctGDY51DvgcNbFrZcO1ctlZnaCuyJm4IeAOkjddjafvDtmeqyejo5MGB0xUF4vq84qsipAZPpEBkkigy6UZl8g+wIQa/ViusqN9dYz5g8NeH9X3fPiz3vXawvs+Eor9Lr4yYvuGDEdV0IX0SBtLCxq//U99fhD4E7gLvfr5h2gH26DN3Pyhg8bUlFZXVfXvolq+bLFo1OGf7Z6HYxmQAb7S5cx9OphonepueW6hyUPgsEKdHj82JTDR08CUVVdQ2//bWhbPuP+d0tvhlLejNIolnTmWrBWovzCxk65N+/0ThuNdqVoc+oh0upUZMC7vLO3w7uQ6nRMINDT95lxC6HuXZ9sJtUQGxf7zJOvZFQVdsW7QCvgYCAlJWlzmACs5GOL+Z3JW25B7UzSAT64FsDn4sVLH2xojUOzfdwXkbgEwDy7E3kXAEpt0D/UNkVpA7SH7lz5/ppnglg2REyKjLGDneFaoI2WFnn/frFYY9jSMjgPGM3AUzUw6xsa4W9TU8eTTcqIZBi+DBmciPkVWTNzwziZ6F1eeO4JDGv8r1gsxmgMcZzvbGL5vCf+3PS+F4ccJY3B8Mii50jtmTp86pkzu4KMcJdDB0IAIeAUBNSSYOKEWGdtjJ+4IO/0rs5Kifw8pfw/s1cQOTTSkRFhzz/7GFEhh8PmsNnYvY7NZkMRn9+62ww7wLUAAQLYqUgobC9g3n/k901abIasbV3RAysxWPW4mGjbegwGfRfbIuoP8/KXuYu91OTbpqQ8gcRLQqzbGR0eM8SuIXlnehAfIYAQsIrA5NGU1iGmDp926fjvPlzye6AkciDHyKLxxgJhilYtx5j5BUXaW6v3A/rHAjM8PJTH5WLMa9czhg0ddP1G+xx4v7gYoiqIN7NqZ7dkXyRHlmi6w3RpeQmxLo/a2kPqpWs1tXWw3nUx9SpUB3znzZ1F1GNJN8ma6qV0Jh8dM2hy6eX9lg2ZcQTuVDPH9YuMz7JnwtesIXSKEEAI2EYgMWqAbQG8VN16IyKfSJiQONHsDoZrcIzgtWWcMqsL0/5btv0JzIrKKqzonkXzwK8ADQOU+5cu/umXrUD/+PMWWNXHlmF8vMWzZkzBhLG/Gq3aqqn9YvsTxVxDu8i7ONaZ1MvXbmS0p8CCEeK/n38SRpGOqXK4Fp9HaeDJujVQJW1I0rZzglQMCSAEEAKOIeAuNN8z25keFtzlteTTKgIuvzMNNPLhMTo3rwBXOHbMyCmTx+GnKSOToRTiZmHGDF/hf+KxB72921cNcEnmEC7yLgLTSFyjgfx5wQwjwHTXX/sfX7lcKBSYFRFPuVwupwvB7ERVGC2Vt4dqWBYROWpFx9YcIt+SLqsps2QiDkIAIUAXAjdLswdEDKSizaiFHA3kK/uNcmmQdwAVhRRlrN6jBAI+LO/DvFZJaTnoOXf+klAguHvRXEzn7r2HwLWY6f/62x+fW7UyLDQE58NTONwD8dPuJVxkR0S4yabTiooKKt2G+DwQKyuv/GPX3ps5+RCct/HX7eBgbNT18hR7e3vbELC3aO3vH8dy2hfQbNQVUXgFCFY9/eZF5j5s2OghKkII9BAEzlw7TsW7NMmbJPCUS+5c3M5fPTR91HQae9/U1GSpLTgoEFver2+Qvvv+Z7C75Z8TZ+Lj44YOToR74IFDx7Aqj664PyYmctdff8PCAcSbwWTai88/iWvjcfmhoa2TaUw4yO+b3W5leFjIzOlTMDPSrmcola0bX1xzpOZdC2NRGmZ5cTjbj7bOito+FGo5q46SZ7WtB5UiBBACnSFQnXe9syIif9PeH3ht8VdEplXaVyWvkbpuL4SfxDe+bTEfjMnKyoG/6bfW8GNjomCfBiy33DZ1ImYqxCUrlR1Z8qza311MF41d7OpeTm775GNoSJCnpwfUDfBvzfKEHU2yZpHIRal1ft/7fX821aQRRddPVI+YGuQTdMtSK/+v2fieP4X4Zis1ex3rRnVh//+1DUPHk1/NTLfKvZhwr8Ohsw59eWYXfFpLKeDzdtmet/+3pzNVfY0PiV6+3bH6ycX/stHxtPw0Q2WBG7VfN5/F/mHb/9544n82FDpcBKsp2B0P9uRPmdS+0OLp0XrfgwNGJ/AX3++CrwsQ04tJpY0iUXCbOLP+MHHssu6Hjau/+h4+kEgHQ6u+oWPxg893xQobtPvC+jeouxaQ9+VwN/z0bm1jbWdX+NON7/pTnkDrTAniIwQQAqQIcCvyf/n7x87EbhSkH97znYiaa8GUBGpUa7Y5xbtA/sp9+4/AZ+effze3ZVaENeaiklKsXS+v1ggF3JfgbqaxsWN/pWebTGed7UY+E71LRHh7YNjhoydgSJiVnbv9j/bnMl9fH4mvj7PxuliQturTRxPszzsZwOH8+OPbxy4fNbOwtKbsva+f926qM+N34ynMNocJhPChMO3cjWaiphECDiKgzrv66c/vyFXm4TabD2w8svtbb3tcC2aBe3XJu2tWXac27UbdaHwSDBZa1v3wC7iZb7/fWFPTfq+AxDCgCt/MD/kuYTEGxjp79h3CmggJCRIz1bswcWbsjttv+/KbQtgWBKNCAJp4nZyar+3g1WNnsy+11JXHGI1D+ZQCkYm2YbSEy80/8+eVE78ruXyh2Fctb+ZoVDBUZ87ANdHDa65/WKTIg8dqfbbQGg0lSvmeuvJMOXNTSljijDgIAVIEvGX1m79/rUavdxN5cvkCbbNUbDCIOBwP+10L1lYoi3Xh7x/2GtgCT9/E+BGzJ7UHdJFaYkMAFvNn3DYJy3QFCcfwnGNQJXloUlJi694dyBATFxsNuyyBhiT88Bc/5t4xA6eZRjBx7DIgPu7Jxx7EhoQ4XjweF4LzhicPxjm0E9lpJ8NrSwcaDQIKG6xst+7N5QW7GX1kDUF6bVfSfdtuxd5STzZnRUjMvyIHxrl7Ya4FNAABp8B8OCRGRHnXjr1NI3mEQHchEMjhBGqUkpbGIBYLXEvXzQhgG8SK+syc9nn7ritccNcd8G4RISGnC0QV3z5z2ooHl+DKH37wPizpIs6B4OPbZ05NHjoI5zCNYOLYBTCC8eA7b7146XJabm4Bi82Ct+hA8gMm7xti2nW1as/8wPAxPv5Wi4A51scfxjG/2p+ZvDOFiI8QQAhQRABeXjUqZVhBQXFZeUVoSDDEhuEL+JgGWBF4+d9PQwKYsrLWoFPYHDN0SBIx3IliQ64UY6h3AQgg+cHE8aPh40o4enFbMCE26Vbm+c66CQLXmhtvyK0E43dWxWF+nCTkszlPQfWvPviCVElQSOA9K5blN5T/e986UmEkgBDoiQjwebyBA/rBpzPjIX8l7H2BT2cCTOMz17swDamebs8MSceGXht9uU0S5BrvIuIJk4KjwZLKtp3JNkyCIhFf0CZMae+RbVWoFCGAEHANAsi7dOCslAQfrWkNBIz0CTpyM7WjwJlUo978FZxOai1C4E5FM0UxKqqQDELANQjsqis73FDlmrYGeAXfLGrdkLds+mLXtNhzW0HepePa6XiCCggvcXMTc3k3Fb0qgMqbyxXzIB0s+QFiINx0KwE4eQUkgRDobgTKVa7L3yEW+t+USqHHeg6lH1R3Y9Od7SPv0p3oo7YRAt8tfAEHwVCZb6Bp0YsldOeEt26VwI7Hd35+i0T/IwRchED3eBc/Pz+PW6kO6O2ok9TSa6TrtcFYRKbVUhm+gBgauLjyAk2LG4Y3d6Uyv05Gz5ZbT07QWIJmvAlEMAEBuE3169fPGZYQw5qdod8und3jXeBFad3yrjS7oOllwqVqRRKPPHs0iPWyjqPu0IWA3JfNoWmVUOVOw74Tuvrlej2wnYXeVO6u7wKVFrvHu1CxDMnQi8CB+soEDzHbZlJYg9H4N0rhTC/uvUhbRX9br1bqRR1FXaEHAeRd6MGR+VogTmFffQXkgLFh6p+15blK87xMNuS7UiRTy4/lXwUN0QnkUwTiAF8QLpFWd6VFVBchgBBwJQLIu7gS7W5ua09thVSrWRwY4W7xFgCFXvdHTdmpzhM80256SWNN+1KzhIJuffnmnTcoyCERhABCgCkIIO/ClCvhGjtON9alNzdOkwRFizzCBK0vVilXK4uU8mMN1U16nWtsQK0gBBACfQEB5F36wlU26SN4kV21rS/uRgdCACGAEHAeAkzMkey83iLNCAGEAEIAIeAaBJB3cQ3OqBWEAEIAIdC3EEDepW9db9RbhABCACHgGgSQd3ENzqgVhABCACHQtxBA3qVvXW/UW4QAQgAh4BoEkHdxDc6oFYQAQgAh0LcQ6J6IZLVarVKpnIE0pIeDHD7O0Ix0IgQQAggBWhDQ6XRyuZwWVWZKIIslc1I4ds+NuL6+vrKy0gwXWk4h82hfSA9HC1ZICUIAIdAtCIBrycvLc0bTISEhoaGhztDsgE40M+YAaKgKQgAhgBBACJAg0D1jFxKjuqlYIG8aweND4wFa5dwAevy/XK+X6jSlKkWdRt1N3ULNIgT6LgKQ7iiYL/Lh89zZ9OT8DxO5B8fGAKACDXpXBcn3CnmXDoAELY0j+W05xtXKKJu5hDvqUKYgl9dZWd3xhhrKNZAgQgAh4CACIg5nim/geG//QL7QQRWdVxseEwuFMi3yLp1j1FaCvAsJQHQVQ9ZI+MzxC/m9uuyirJ4utUgPQgAhYIbA7X4hd/iHCGkarJgpR6fUEUDepQMrYwfpLMqby18ZFhvCF/5Vh/JIOgtkpLfPIsBxYz0aFjdc7NtnEWBUx5F36YbLMScg1Ohm3I3eAtkN2KMmezMCT4b3G+Ll0xN7qNFo0tIzi4vLKiqrjEZjXGz0bVMnikTt03pHjp1UqzWd9WtQ0sCoyPDOSruR3wO8y6Ejx//cfQDD6KP3Xvf2FjsJr6kT51/PvFBZVSxSyQVGg8OtyA36Fr67l29gREhMfVNtQ12FQVbvb/rCrjsDwkrUymvNUodbQRURAggBIgJ3+odaupZqg0Hg4+/nH+bt6VNSni+XVvvqtHy247GyzQajkiMICAifMXwqsfWu0AqF8vM134FfwZXczMk/debCU48/hLmNw0dPNjd3+tJYsdgLeRccOjsIpVJ14NBxOyp0QXRIXDJ8QEFaSfbPO1YncnkOKKvluz+25CV/b3+zuht2r1PkXxdyOgJXlgZFZsgbtQYXTMiZ2YJOEQK9DYFAnmBegMlbvZv1+rgRMx6dtMCsqwWVBZt3rA4yOvK7u2YwvPnwuyEWv26zJuw93bJ9F9G1YNXBnfyw4dd33noRtoezWCwbOmH/pI3Sbixi+tjl8NETTtrVbwP0oZEDv3hh3Xsb3gyWN9kQsywyRg58ff7TlnzgPDLviYPX/sn+Zzv+1mEfHn+ab/DBeqfsKrVqA2IiBHorAncFmEwNNeh0j6x8z19s/pAH3Y8NiX3zmS//u/4NP4XMLjSkwVHf3POiXVWoCMvliqvX0jHJWTOmTJ08/sy51D37DgGnQdqYk1uQmBD/2CP363R6orbyisrf/9gDHDablZQ4gFjEHJrR3gVwP/rPqe4C661H3n9jzapom08NRNuq3VhvduJaMLFZyVNLS24aizLwWuO8/ZB3wdHom0RGVRHecSWLw/WgZ9lAzxUQNeNN9EoC4o9TvCXErk2Yscyqa8FlXl35wSdfPOlrOl+Nl1oSBQL3j5zgWqChyiqYvWsfSM2+/TY+jzdz+pR9+48YDK2T85WV1eBdYmOizEzCHdKQwUnu7q2vMGfgwWjvAhBrtToel6vV6boFu9tnPpB+cCOP2izt/LmPkRq5ct4TH33xlP+t+bEQgSiAL6hFGy1Jgeu9AvM3veWszqX+7SzNDNM72NQl1/AEjw6eQGpjxKDxLVkXSMVAoEqtfPbB/1CRdECmX1zM2i//S6zI4bD5fH77nI21p1u9Xn/x0lWsyqiRrZP5zDwcX91ydn+k0saTp89DK+PHj3J2W53pn5gwqlDXaagGsVa10TgoZhCR0xktDosjFsWKPIiniEYIIATsRSBKaPLwPnL4bVQ03Dd9mcpgMt3UWS2Zhzftay2dtQX8+gYpvhwQGx1pKZl2PQMWpIEPQWWDByVYCjCE46KxS15BLrHDPAoL5rv3HYKxoYe7e8qI5OMnzhKr26CljQ219XTuh586+q7yqwdttIgV8TyphtgPjB1SQJgMkXAZuiJH2mUkgBBgCAJepveT0UljqBgGS+VNLHZ7zK/NCvPHLza7g9kUJy/ktWWcMpNrbJKdOXsRmJnZOVjRiOFDYmKseJez5y+1Cwwbwrk1EYJx1BqVVVP7xfbHBFz510Xexd4uVVXXXExtHfpNmTyOTW1iyt4mKMqLhO5UJLk8qgFmIf6hBQSNYtMfBqEEkQgBhAAlBASm2/J9KD/qsSBPjJY8ASCf25p+0NlHU5MM1gLwVoYnD35o+X34KU6AE8rKbn9YH5UyHOczkGDozNhfew7CliIIh5g4fnT3ogbPAlQM0KioJh2qa6ojKlTou2dJiWgDohECPRoBuem6bElNMcXuGLSU5r01FDwQxRapi6XfyEpL74gAwiuev3AZ7o1w6uMt7hcXjfMZSLho7GI2LquoqLCBRXFJGUwsgsDI4cmwUUjaaEdYsK+PhN73u2z4a3Ush9wHGynHLmfkXiWC3qjV2oACFSEEEAKkCMj0Jj+iixnnIwPNg6wslcA92hvWXShMjRy6uPvdx0wW3i212cVpamqqqzF5yoTqsCMSlvdVKvX19MyfN22DUKYNP232f3FVZEQYUTk2ewacMaNHEvkYLeAL0ftdLGHp4OA78/UGPQwVT7fNRWLFR46dApfeIepkKjXvWhir9TGB9AjgcM9nniMVA4HG0vZJVUy4UO2UV9RRseSj+U/ueOwjKpJIBiHAZASKVCY/ouwMSr/E7Ue3iii4Fui4e4u0rqXRNQjAuyVHpQzDQpDB/+GxYVjrefmFsOaP0WNHj3CNSQ63QnyMdlgJzRULCtsHtpevXDdTDdtf4K3JLguT+H3v9/1Np3TN7CGeHjny25jEsUSOJf3DX2vxcGQolWo1ZZSn1Cy1dZEzOLTf8MgBXVSCqtuLAEtnEFCabbVXMVV5jcDNwCMfjhPVcdUGPixPOLS/naiHSBtZLLU7y8C1tQudKG+DzpI3E0uDDPpDqQdnpswiMs3oppam4vSTFPe7SLj8L7Z8/MGjTnkUy80rgC2TYJ6Hh/uUSeMwOwP8/bDbYKPUZOYGpsUwARjoBAT4mXWKaadM9C5enh6wSbXbkXph/RsJlF0LWBvkxvrw+1df73wE/efJnW7FJgOvU4213d5NZICLEQDXEptGvpLsPKtKBvJbKN+X2DpjeI7GU2pwkj31IZzq2K6umasN+vNNdWMICVqyTv/l6+mbkmB9M0OLsuWrDW8GUd5KCX2PVrZ8uW/9s3NW0o5DZVUNtpgPGV9GDBvi5eUJQxYIa8IaglO8RY1We+nWA3cKg7e54AYz0bs8+sj9xISgAPTW7X9iFj+64v7QkCDceicRDS3Sj3/8T4IbpTkxog0BKvkHa194cvmbEi+TncMg8+0fa7jleURhmU57uKGayEE0QoBpCITka53nWqCzfpV6jUgnDenqjQgyjhO9izuHc+7gzxV15XdNXGAGaW5ZzvYda4KozYkR64ry095e/8b/rfyAyOw63b9fLKZEp9OtW//LbVMmnL94BdaeMSZxnubq1XRIpQx8CKMdOYK5myhxTLp6UXFFNBJm+T4Fgo5Hm9iYSOflSE4vTL9eeKOyLFfUVN/PfteCIRCo025c/4ZC6CGWBIcHx9RKq6T1lcbmBj+LYdCW6mJ45qIRN6QKIUAzAkajV4PTv6LiOhq8C7xZ/K/aMmK2MRGbU3P12PuXj0CO5AD/CC9PcXFZnlxaE2zUB9rvWjBgIxSyz1evEof0DwuJjY6ITYhJ6jrgIcGB48amnD2XCqoKC0vWF27GdQ4c0A/SwOCn+DYX4IsJYxpcgGkEE71Ld2F07MQf7rJ67y4378nhekIIY3VxXXUxTCq3jmIsXMu+2vLLsvbVuS43iBQgBJyCAF9pZDtrSqzDYIHC7kmCjsoEal9dZaTQY5iXyb7m1jGKrEEra2hwc/Nq+xBqOEJ6sVnG6ryy6rzMHL+ElTR4FzBi8YI7tRpt6uVrRINgYf/+JYtwTl19A6zQYKejmb3NBbcZeRccChcRWoPhj9qyY86cEzN+25pBh8pRabr5hkoVJNN3EDB0vC/CiZ020rCu327e9+X5C+DNK5Ig2ynrndgZh1RDnNjDD943dcr4rOwcyGgJxsdERyYMNNldDyl958yejqkfOpQer+aQsXZU6gHeBQsDt6NPjoq64BuZr2z+paKoktoOTUf74ZR6HBZ7btL4QItd0HKNMqeq2EBrNBHWATaLFR8c5cE3SSEFRRWyuv1Z5/VdeL2bUwBCShmAgN5o3FFTekPe9EBwtD9fwACL7DAhOioCPp1VgNug2ZJBZ5LM4fcA7+I6sJxwi8SNL1TKIULstEuCxFhPUsqzhNtGSjw48vbvlr8u4HcsgBGrQDo42B5bXU1nhEJQUBBsCussCZBKrX5y839/vrifaAaiEQIYAtly2ev51+f4h0zwCfDj9TAf05suIvIuHVdT7emT0fau+wAvn+um8V0dQnZScr0eNrUUqxQN3ZFMwk5jrYsnh/Vf/9Cb3M7DN8EHhIeHt7S0yOUmm9qsq6PA9fLyAoU2BOFlfD888EZqcXZGdaENMVTUlxGAZRj4RAjdg/hCHy5fRCHjBhW4wkS+5TVVIDk2udNxBhU9fUEGeZeOq6z28L7clndoIE+0p7aio6BvU4+PnWfDteDY+Pr60uVd/PzIt2OASU+Mv+uZnatxAxCBELBEoFSlgI8l32FOikSQWtD6TDN81GyHlfSRivZt2e0joKBuEhEI8wkknnZGm2UC70yMCr+zCTGzutF+IWYcdIoQQAgwB4HuGbvA1IeTIBAKqbyvwUmNM0XtO3euvFSctTf9jG2DlqbMhHcifXakI77etrztUpgZsxRwd3eHa+3ZdsBWZFwANo6BPBzNzc0KhfmjJfBhJIQLIwIh0MsQgNtUSIhTno2cd2t14BJ0/OAdqOxwFYCAUSg43BFmVvzPnJXfndpF9C7/nr507pAJUz5/imjw0pRZwyLiSb2LtVevEtW00lKptL6+HufCjwdmt+DgdfLaG/A0Pm0HVNFqtVAXDvx9fDU1NfD1gHJcISIQAr0JAYFAwJxMxs4Dtnu8i/P6gzRjCLDcTDYRDAiKnNzfyouGaAnClslkBQXt+7xglAI/G7seHcADBbcdMI6B2DMYuEAX8vPz+/fvLxaL0QVFCCAEeigCaN2lh144ppgNriUvrzV/Gjgq8Cvx8fF2uRZiN6AiVIcZA8zngVpQThRANEIAIdCDEEDepQddLMaZirkWSOkKM10w1MAdg8OGYi4qKSkJPA2oBQcDAxqHtaGKCAGEQDcigLxLN4Lfs5vGXYtIJEpISHB4yGKJAsxK9+vXD6bFwMHk5uZ25mC0eqcnWLS0DXEQAggBigigdReKQPUwsRFRAyFyDDd6RORAoIkcOI0PisQFbBAF1WWWpbhrkUgkUVFRFGOILfV0xgGFcXFxsPoCDYGDgRkzWNExE65oaH8HhhkfnSIEEAJMQAB5FyZcBfptAHeCeRSiaoglI54CTSWLZXZ5IQQNQ2wxXhcW3mHOCgYWwIyMjKTdtWANYQ7m5s2b0DrmYDw8PHAbgJlRavK+HLwIEQgBhAATEEDehQlXgWYb3t23nqLGZgrbmCFfZE5OTlhYGOxBgZRiDQ0NENkFrgXu/rGxsTRuorS0GZqAKbKsrCyIWgY3A1EDEOUMazNNTU2lpaUokaUlYoiDEGAOAsi7MOda0GbJO3upeheKTer1+pK2gygPqcBggYTIcQYN8crgYLKzs8Gflf8/e9cB31T1/Zudpm2apiPdmwJlFijIHgIKKIgoouIEF+L4uf2J6/dT/+KeqAgqrp8CypC99yq7k+69Z9rs9T/pK68vyUvykma8tjeffOC+c88999zvS995955zz+38uKMXJBMhgBBwOQLIq+9ySPuFQFgTCw0N9cxQoa/AwJ4f6uYZZVEvCAGEQBcCyLqgn4IzCIC7xZlmzrbpDxubncUGtUMI0BQBZF1oemPorBbkaCE62D2gKgQ9g8fFAx2hLhACCAFXIeAdvws4h2Ep31VjIMqBbX3YTm8isR+W4SjJFVMXPTh+3pqjf60/9Q+GQLQo9KNFT09KHhnsJ7xSWfjc5s9OFWc6AQ4c7eVEqx42gU4hF1kPhaDmCAE6IABOREjk6g5NIMrGTTGcTmjrHetSW1tbU1PjhLp2m4AHGK3RCzi8HU9+Mn3gaICLyeianoYFBJ19+YdIUZezZFzCkGPPfzv5o8dOl2TZRZXIwOVyPTxxwXqH6Qskx8QzXRJVQmWEQO9CANsu5g6dIV8GfZaR0cqYO26xl2V+cuezYFo2XjiQ/n8P/nB94rLm7pfAtKw7uW3kO0uZT9ww6r372xSy9xc+6aiusCzmrdkhSmrp6M1C/AgBLyLgnbmLFwdso2u2RhXJYgGDSKsZKHDNCTQdem2rRiPTuWUWTDoWyI38wA1zTxVdXbJuleE6R0xQ2O0jp10oz3v01//DiJcq8sHwQGZ+Xw5P4cipzF6cGkLXkJz/+pjQ/wgBSggEsNgiDlfANP5p9/wTwWEP7Dx8iKXT9Fxa35aArEv3/RW01N3K79yRrmwfEWdMneKqT5NGdUHacqqtsVqlcJVMa3JC/EV8Du9E0RXctADn8okLYMLxzdG/iMSq1nogguHJr6+wJs2STty0b1nrVopXVuTcOiIk3H0IJPr6TxQFpwUE+bM4ru3lFrHxMAupss21YvueNGRdPHFPgzm82cHh8L3U3rylvqpWrXRfr7D9Xm/QJ4VG410I+YLHJi+UKmX/y9iHE6EwKDwe/q1vbyESbZfBZ0g8YtI2s8trsd7d5A51ubZIoLcQALuyKCx6gIuWH7w1ij7QL/K7dN9ECOTovnBPKS1A/O+EVFctu5HqqNSqjxdeXjBiypTkkcAwMnrArpWfSoTiNUc3y6+vgDEZDFg9e2TSgpNFV1oVJCcWk0oGogc251vrGqN7XQHb6qFaryMwSRTyUtwgZFq8fiNAATR36b4LnnFW85ms5+MGfVVRcLWjtbtvl5ae3/zF8Re+O/r8t7jUzKrCd3b9iF0uGD7ll4feCuhcA1y1/Tuch0rBixMXTD23pjWjggDioTMCs8SSO6ll/qbhKNrapKXlldXVtfCam5QYPzAlyZqSrW3Sy1eyZDL5mFEjJBIPpcywpowNOk2ty99bdx04dMxS79iYqFdefMqS7hJKQsKQomsXfOQdfianBjsjW6rTKtgcrr9Io5QxVYoQC4/iI5GJ75Xl1rjHDQPe+wkfLP/yrhfSYlLKW+p2Zp78z871suvLcRCaDKZld/apt3esP1ua7dDwvP5wp08sv0O4IWYPIDAsQERqWhr0egNPwObxNe2tAXqtgNXTh16zSqXj8IclDXfVoGD/3+9//H3qzHmiwNRBKQ/ef5e/f3decKhtbGre9s+eK1dzsPVheB4i60IEjVJZ6o0TCW+dcofPlDtgZWnTia2F5/dFc30p6WrK1KTTpk9ZdOPomURyTVPNDxs/CdN0u1t4LNbDkQnvluQQ2VxYvlxZMPnjx0gFbr96fPPzh1rk7aS1tonwZ2Cbwd21Hli9dPcQkHx3IODLYi2LSDCT3CIMfnLJC358k5OBft/3a032SaFTNiZfKZs1675H0qabddTDy527D5iZFhCYk5f//Q+//evpR3HhDQ1Nn37xHUxccArNCz01424anlTa9eyLjAj38+s+WUQSFuKmHnGxfDb3vmmLq0dMXfvzf6Kub0XEa20X6rn81x7/0JInIjjitSc+XL3xI3FtGV4bx/cbIxSflzbjFM8U6to93aNnxoV66c8IzBFHECclSr1++LQ7p46cZonJPbOXNo+f+80Pb4QxHFujKPFhvrbyc5GrgwVkcvmBg13rNANTkieOTz93/lJWdh5oXlBYXFJanhDfldNv/U+/Y6YFZvAzpk2KiYnEqyyHSQcKTa1L23XrsmTxbclJ8Z5HKjJIsvKh/675/tUIDpdi7zBrITUtePOXF7/w7rrXwuTdrx7Tg8I8b11wfVABIdBnEJgmDiOORZQymtS0YDziAPHSJS9u+99qX4sla6IQYrlAq3n7qc9hcxiR6JJyVVWt5npWmEeXLYWUFEOHDHrupTcx4eUVVZgJuXDxKpSB6CcQrHjswYQEj6aRdW6kNI0Za2/vCmTy9++euDg3QqdbhQjFA8feTL35iPG32GX+132vyfXdCdaSff39nZqh2+4ITji+ZdhE2zyoFiHQZxAY4ieEYBl8OA0Gw31zH8YvSQtxkjhGuPlKGiknEBU63f2Ln3OHaQHhKQMS13zxPvYF0wIUPp8nEHQty6tUakyrYyfOYIWl9yzqFaYFtKWjdYG19Y4OGQalP+GwW4ziyX8XTZxfpJBT6bFJr5tzwzy7nAKeQC3qfsmCKLVkV0+0QQc44fjWYZPtKoMYEAJ9AwGz+OOE1BuojGupxUHg1loV+RiGRqdYq3U5Hd6t5fKubdfhnSFhsHpWVFwKHUGWv9CQ4P9t3Pr5V99v+HUj/hbuch1cItBDK2MVleVEdQ16WztLcKcLNNn89478giJYbYTZ4qwbpwxITiTKsSy3d0BrV+6hTRt5o/TaacuOzCn+QeYUK9epKaOrz3fvagzmUl15syIPkREC/R0Boelu/Bnps6ggEhQQVG8wUPG+zJ1wu9kTjIp8GzyksZcKpbKiolqlUu3dfwRrGxEhgecelIuKSrGAGjab9dFn3+K5XHNz85//1xNgb/C+NFo1qaox0V5YSfOQdVGpVfj4ocBh28rNgDtdgBMcXFhDcHPBd+WKhyFQjyjKrAyBelqXJvUKEUm6/SRmnREuOTyqAWax4XHVhIbBLGRdCHCgIkLAcQT82N3LYtBaIqJ8QgSX56PpWnqy0a3YP8jsCWaDmUoVh8ybW1/f+NmXa/HmEG0M/hUsBF963VOAz2kwNqD/+vtfxLgyMEIaLV0SoHnIuuCQUSkAQBDlDYtjcKb6iGGpsHyUceEy1vCPjVv/88ZLVIS4ikenp5SAUkN554pcabLUpnZPjO/ouEHgfbELAqSN+fjA73bZEEP/REDHZuiZPkw3R6FreD1dn1eZ/hHVNddJxJQMjIHam6hXkg+Bq1+pVAmFxnS6uKcAyssfvnfwwOQ/N28/l2F884a4stq6+nBJ93o7fX6rHrIuMVEm8zLbx0DFx8V88N7rsHMVYAoMFMK/sbHRf23ZAYXGxmbbUAYKAwUCk/1HPcR64+FfqeyF1RAiwWz3mF+eS2RodU+m1dGxg+BL7Ii0XNPWiKwLKTKICAgYWIwOEVPY7F7z0h7SU+vSZvq2nlWSSdG6cGHiQiGs5sy1kysWrHThT0ImlzXWN5oJjIuNBt8+WJSrmTk//fJnTU3dR5998++XnxEFCvGzFsE1MGrkMGh41x3zL17KxMxebl4Bbl24HF5IiNu3bZhpbu3SQ9bFifRQmF3B9E4bMQSzLnAJW4pwKC1HxWSynOjLUg5GqW5t4LTV+dhcx8M4w318KhoqYkJjrInC6WUFl4ivVbWq7i2WOE/PC7Bdf0fmCbtyYO5ilwcx9GcE6uM5fJmaq7LlKO0JPvIARlOUrXVyKsJrruehwJgzLh02285MKuTYlaNBFEwLtG0rv+bCpwoIxB0nlopBwNjY9DSIECsuKYMpy8lT5+bNmYlnYIJarAkcphcdFVFaVgGXTc3diWhhpce1qlpqSJ3iIetCXSFSTqKlgew6pDzuIH67+bMYCqYF6/q3rd+88sh7ttU4fPGQhJArU6nT5VGe9NiWbFZ7oSzvrR3rzIjokg4IqHk+5YO96WxT+DswV1D7MotH8vgy90xfGAy50AFlrN2+rA6TQB5hR2tRdVFSZJI1fox+7MhmCbX9lFFc3lfb1qxcsMK2QOdqwTY0NRnNA4/HhekLJgQc9WBdoAxLNfAvHqCsUCgwBvgX+LEynHWME2lVoKN1OXr8NEz6AKaoyPDFd8yHglrd7afCQsI9AOJ3+3+LceTRH6xo37Br3QNzl1vT7VpF3uWjm4gbXNBWSmtY9WG6nsPsEPem8enZDHmgiducbtpLtZprsvaBfl0n/nGYzI1/fvT48vcgKsyaqh/+9DZF04JJUBRdPZxzZjq1WGdrnZLSIR/lX1t2QhU82Va/uwqbpjQ1dyXUgBBkqAIPP9a2vqEJFwJuAqwcEkzT3xMdjR4sMoKrCr5nzl1Qq40RHXnXCnFMPZP84JO/vujIPI53SrGgLrzy3d9fkjJn5J3dufkLomkBth1NNaTMiIgQQAg4hMD2RuM+dvwTwmJ/u/41WKzGKcTC6vWrRFJztweRwbIsYnNO7frhtyObLKt6SImJ7rIcCoUSzAxsYdl34GhhUSkmFpIlQwGsC3hfoAD7LfILiqFwLb8IXxAbbDOMFpi99aHj3GXkiKGwzQUQAQfX2nW/hoWFnDydgQE0csQQLIjCHXhp9brSpppLOWeq8y8GKNqpuFss1WBW5r/z5dMR8akD4lJHDRgFM/S8kpzi0qwQuTSg81hlvMmOxurm6weu4ESXFKZ/ugI8Ri4RhYQgBHoFAgXydlgJgMR9uLaQmHzbb++rg8MT4lKHJA4LCwo7l3O2oCSnoypfTM3dgovCCmFcnvzqsTcuH49NHj0lbWpSRAyLkCDAjJn6JezVT0yIw9bBYNkGvnjbsNCQcelpcAnelJtvmgERs1CGbGPgeK6uqcXYhg0dHBLSPWq8LR0KdLQu4iDRzbOn79l3GACCRKHwxZCCOePCBXPdh9rXP/9XIDVOPHuYfAY8K/qS7Gvwvf6mYxnDkdPR9k+DyduWC8d1JP+iC6UhUQiBXoHAhuqSaJ5vOGHnGY/J5LXUN7bUH718BBsCLDM5Z1pwBGKYBkPx+aPF5/8RBD+//C2c3pPCA/ct/vLr9ZBdnyiEz+ffe/ft+L7LyRPHVVRWg5MfJjf4Fn2wK/fctZDYilZlOloXAOjWebMh8mHPvkN4mh2YsjywdDFxV6rLcYQXBJfLJBV4UdryY02xu6JwSLtERIRAX0dAZdB/WpH/eFRygq8r9yR4ADZ4rL3+7+cOHTmRd60ADqNhMhmw/g9ZkImHu8DT6d4lt0dGSC5fyYZQsbDQ4NTUgTOnTw4I8PeAhs51QVPrAlDeNGvalMk3QGoEGBiHw4aVR9yMOzdU+60I0Vz2mZ3igCCxTQ0Vx1vQspVT8KFGCAGbCLRo1P9XmnNbaNTckEibjLSrhEccPPHga1uz6VMnwtc2D31qaWpdMIB8+XxYlPQcWG6eu5xpbdrUUN5+Pdu2u8c1a9DYl25aOiFxuIDLJ/bVoZKfKLzyf3s2HCvsyoBArLVd9sqmZaJKXleAqIxLykMl3Zl6Axg+fAePFLKmg8ZgaCW8LWXVlVjj7Hv0rQ1VZ9ualoTHDvYL7Huj60UjorV18TCOSj9hdqcvJDRAdLWqO0qt52o0a9TgcjTLV9FzsTYkvHLT/f93G3l4vj9PcPOQ8fB98a8vPzrwmw0hllVeP5vS6wpYYtJDypb7/4NLuHhic2NNEX7Zk0JAkGT8zAdxCQM+vA8v94cC7K/8tDw/kM0BP7/ANJqmh8OP8g2qqjd61MePtL91uod99fbmyLp030G1n+hCZ0q7QRzffxqMK3K99PPADXPBtJQ313526I/dWafz6ozbsvBPbJBk/ojJT01b/OGipxo6Wjac2YVX2S1AAlc4H8FjDiozfaBrUMCMiC4RAtYQgAwxB5vrrNU6R08X8zKKjRPBUWPnOCeh/7Si436X/oO+m0b61i2PNMukkz569NODf5iZFuixvKXuqyObx3+wvKG95b0FTzikA0wdsB1IDrVyFTN03ffmLq4CB8lBCNANAe/MXSDYLjDQLUuikFaZbhB7WJ9Avl98cMSvZ3dXtBhzSFj7NMulf144sHLanTFBYbY5zSR0dHR4K5GRVCo1UwZdIgR6IwLwmHLTAxAerfQBxDvWRdz5oQ8KfUkTfacvF4yH3UFpdTrg4ZqevGS3FTzig4O7Tyuyy+9CBmRdXAgmEuVFBAQCQXJyshcV8EzXaGXMMzh7rpd2lbysuWbOkAlcmxuSOUzW3KETWuXtkJ7AIeVaW1vxfOAONewhM3SKrEsPMUTNEQKeRABZF0+i7aG+Ptj764CwmG1PfHhDwhDLLmHL6OTkEdtWfJgiif3+xDadwbH0t+D5aGnpzvhtKd9NFOgUOV3chC0SixBwBwLeWRlzx0iQTByBb4//PSp24LKJ8yHsWKZSwOykUdaK1UoCxHHBEb4cHlweK7j09s51eCvqhbq6Olgc82TkGESL1dQ4NseiPhzEiRBACLgDAWRd3IGql2WC62X5r+/9cOqfl2bfN3VA2pDIRKJCaq3meOHlr49s3njhgHPZaODso7a2NpFIRBTr1jIcZurFWDW3Dg0JRwj0VQSQdemrd9bnVHHmbd++5KbhVVZWCoVCpkeOLYIFsaoqd2X8dBM+SCxCACGArAv6DVBCAJbCIIYSVqhgGgHeddjVWF1dHR0dTalxz5hgTQxLAAP2DFuRg8iC5uvHK/VMNmqNEEAIuAsBZF3chWxfkhsfH49HIUMweW1tLUwmwPsCh3vjdDeNF4wZdAfCwZJJJBKsl6CgoICAAB90zoCbQEdiEQKuQADFjLkCxT4tY0BEnJkJCQ8Pj4oyHqhXWloK0wj3jb69vR26APnQHW5asO5CQkKSJCjRk/uwR5IRAj1FAM1deoogndvDlpcR0QP8COcpgbbtSvnVygKN3riVksonLiTCkg0MDKySweJYSUnJgAED/P1df8gEJAUoLDTmEo2MjITuLHUYEB5rSUQUhABCgCYIIOtCkxvhYjWCBAGvzXnwiSmLzNLvY92AgfnqyKb3926QKuV2O/blGsOXLT8RERFYoHBBQQFsPDYuVbnuA6YFxII/H0wLdEQqmMNGv15SYBARIUALBNDfJy1ug2uViBAGn3ppHWQbA7F10ua8ulKi/Nig8ISQyFdvfuDu9Nk3rF5W125y3iqR024ZHv2whb6+vh4sAdgAa2bArhwzBhAIMWlgumyYFrMm6BIhgBCgGwLIutDtjrhAny/ueh5My96cM69uXXOpIt9S4tDIxDfmLrtz9I1rl76y4JseRS3HxBidH2APYJUMfDCxsbF+fs6fOyuXyysqKmDiAjJhNcxV5soSAURBCCAE3I2Ad6wLhBvBxx1jg+gmiFt1h+TeIpPNZC0YMaWwoWL+mhfUOi2p2lnVxUvWr0qNSLhl2CQ/Ll+mVpKyUSTiBgZsQ15eHgSVwZzD0TzKkOilsbERzyQWFhaGBQ7Y0IFw9KINLlSFEKAdAvA7x8JVXK4ZBL+Yxb+4vAvqAr1jXWA5RaPRUNeSOicsp1Bn7pOcIl9/Dot9IDfDmmnBRg37+Xdnn4Zt/FGi0Pz6ih5CAQYGTAs254CdKPCBLLDgiQFvP/zLsnI4IPwMoAn8pQE/8UhjaIJZLNtaufmgatudo1qEgPMIwGPKTQ9A+JtyXi1Xt/SOdXH1KJC8bgQ6VAq44LLtn3MT6GtcwurhxAXvGPagYNYFo4CxgQ82QwVLA2aGaGMwuwIMeHNiAUQRL1EZIYAQ6I0IIOvSfdeE9eWP+XUGPnU0Tx2c3l3Rg5JMq23RaiqUsvMdLZntbtwaguuo1KrPlGTdNmLqm/+srWxtwOlmBfD8L0qbUdxYVWWdB2vSIms3a0t6aSOpZaehITckpKIoJphp6bB/hg2pfETsDwhwmIxRAUFp/kHhPF8RmyOweSCFQ4A8IrkR+KWyRoda9UNmZF26b7o7VtX82Gz4RvN9x4tCWrWaPU01x1rqtW5evnt9+3f7n/nyxItrvz225UDuuc4cyW3YOCFHMjj8Z6eOe2TSArGfENz+3eO3UtpwdtfSSfNsGA+sHe4ysSLGATLMgcz2b1o2hpu17sw/lnREQQj4slgzxZIbgyQutCgIVScQQNbFCdCcbAIvUEsksVNEoZ+VXwNL46QUCs0O5GXc/9PbXyx+7v9uWwFf0hZave4/O9evPbGVtJZIPFh0cdeFY/PGTCUSzcrgOHHhpn1w70NOM9s5mP/JOHKs5KqZGugSIRDF8/1X7EAhhZVhhJW7EUDWpRthOFbLA59Inu+qhCEflufVqXoUqWVb1V/O7t5y+cjyifOnDhgVhC33XW+g0mjOlmavPb7FxrrZdd6u/29Z//KzeXfMHz5ZyCeJNpbK2guqysya9PDyYm3hwJgEP77AUo5U0bE988RnJzdbViFKP0dgkEC4MmYA1yOpu10OtVqjyc3Nr66pg3l5UmL8wJQkl3fhYYF0ty61dfVHj50+f/GKTCZ/4tEHhg0d7D6A/EOjK6RN/no9ZJbveS8qvU5q8OH5GIQWC77wYrUyesB7pTkKdwZ4gHv/s0N/wrfnYwEJ8DRHD3SXIImEuAmBMC5/RXQyqWlp1Wo1TEYok+WSruvksma1JjVmuEukYULOZlzc/NcOGSHOZVTa8IfuvwuPhflry86Dh49b9hgbE/XKi09Z0ulAobV12b5j3559hzwG08PzlkNf4OXed+FAycUDMTySF2cqyshCImeOv3VowlCMubm9+cC5vSVXjooJs3UJl780PO77qmIqAhFPH0bgsS2f4KMLMuj5Fu8ieK1DBU1b408EyQ617aXMK6KS+Kax7w0G/cixcyaNmCIUdO2BO5Nz+uipHWK5k/Eg1xQdA0bMeCh9dlRwV7pul2B18XLmhl82mom6eOmqUOi/eNF8jC5tpxRcYybEu5f0tS77DhzBTQsEEYWEiP38nHzcOwQx7P946Ma7q0fN+H7D25EOvuw06nULbnsyNX4IsUdxgHjxjXcrptz+1jcvJvt0b8dJFwbva64rU8iIzKjc3xA4VHipvw3ZHeOdLAqNNF1HVYTF/XvJC2Z93ZA6Hr6HLx+5ePhPy0UFM2azyxIGc9VTX4gErsynB13ATq8/N23D+hIG+I8YPiQrO6+l1RiGc+ToqelTJoaGBkNZKjUmsIBPZEQ48UkoCQvB6DT8l6bWRdresXP3AQyvwYMGPPzg3X4CT5gW/A5FBkmeWvbuV2tfieBwcaLtglynvfeeV2Ml5Il74Sj7d5785D9fPB1LeL2aIw7/tqrItlhUixBACNhFYK5pJu9WYciLFqYFFzJ95DQOk5l7ZBNOsVso1GrefupzPoc8o6vd5jYYKiqq29u7LMdzzzweFhbS0tL62pvvY00Ki0quW5eu+daSxbclJ8XbEEifKppalz17D2k0xiwm6WNGPnjfXXbDYd0BqDggaODYm6WXqC7N+cYPtWZaMPVgC/0Di587sPkz1vVd5kP8A1k+DB1hQuOqgUCEwo2D0iGfWIu8fVfWqYYO41abOHH4o5NuS4tNqW9vOZJ/8afTO13VHZKDEPAiAnF8QTDhuS/VaZ9d+m/b+kwaPuX4md0hyq7Hum1m8I8uvm2lO0wL9AvG49mnHsUUANMChaAgka8vX6EwRv20d+bcg0KbtGtlzN/fo+/ZmGLO/UtT6wILkdh4brv15vYOWX19Q2CgMDTEOEP05OeuyQtfPb0zke9rt9N2ne65hU/aZUuOSt7I8wtVd20t5DFZKX4BuTInV4GtdRctCv37sdXp8akYg96gX/bLu7VtTVuf+IDH7pqKPXDDvEVp05esW+WqvfrWlEF0hIC7ERjiLyJ24Rc7mEPwcRKriOU75y07/NfnRIq1cpGP4enELjeqNR6n6f7+fikDEonNFcZPV0ApPPegClbP5HJjDg74+Pv51Tc0trZK42KjeTyqKytYWw//6yHrUt9gkrNSZ/PoqrLySmmnoQYbvnvvoROnzgEoMH2Ze/ON8+bMtA2QXCFT9Swno5n8pIFjDWVdps6sinippLwaOyAlrTXrJN4WAl1cbl0+XPQ0mBYIT9iTfRomTHeNmfnJHc9AjzBl+fnMrrMl2YkhUU/PWAwpLF+cvfStHetwZVABIdAbEQgytSWzJ9xCZRTwqrdJrwuh4FudPGq22ROMinwbPDY2biuVqm3/7MXaRkRIRo0cDmXwFODSvlv3S1FxKVxCGr8pk24weyRqdVpSVcNCXRmGgCtju+Ah6yJtN3k9t/1mUV/fiCkN64+YaYFLuB/giQFbPXPGFBtDUqlUgK8NBker4sMTSihYFy7lALOEyKRLBOsSbPqH4ah6pPyzBo8tb65NefNOVeeezY/2/3b2lR/A8TPny3/BThesyY+n/8l988/pKaPf8kHWhRRFROw1CASYBtolhMdTVF0HU3mbb7qYnJjgaLMnGEX51tg4ZN5ceKte/dFXeBMINV7x2IMcjvER3dbW/fzETAsQwVtj+UjU6bTSdhUuBC94xbq4YGMHPgBXFfClRhAI1nvWjVOEwq44jV17DqnVald15EI5cFMpSmMTvPrQhHndB0OxORU2SJMMbhXMtAB/ZnXRP1eNkfLny3Lx5nAqJWzpjwsOxymogBDopQjoTFMrtcm68h7ZHw7Fvz5T+fbFuoJDo9XCPAaTJPD1HZiSDKGzMF8Br/49S26H6DKsClZ3dDq9Kzp0vQwPzV3CQsKIumMLX0QKsYyvOcLRtk+vWAYrj+PSR73z/mfAo1Qqc68VjhjW5VEgtsLKfgI/R08WsRRCpOzO+IdPvLZS1lBzD0LrkpoSoow2ymaJ2Mp2mcVkKTUmNrhNYZxZ6wwmv0KVVs1l2U+lbLsvVIsQ8DoC4MYn6lBQUZA+eCyRYq3MUKt8TN/2SDlzK3Jun7SQtMo5oorsFRlc+uDeh9WXy1eyTp+9UFNT99Fn37z28jPwAJRIQp9ZuVwFi/5KJeaJ8fcTrF3/K/QOT8uq6hqY6GCawLJQsNDT/mlrIHjIugiFgUQNOjoobfKAiQsGZWRkeGJCXHGJMd1IZWW1DevC5fLM+iL262hZoVG1VuSFWzlYnigt0PRpTqwyK+flZRjjQq5/GuD3jT4IAYRADxBo1Jr8EZ26fJiKdSmuKQ6jYFpAr/xrZ4RzH+yBguZN29pIZle+fD7m3oeMJEUlZeAggOfkydMZ4G/G2oNfAHfjQ6oYXGhzcwtuXZhMlgsfgHgXzhU8ZF0cUo7P6woq1+u737VDgsWYdSEmS3BIrBPM3//zPRWpk9OhAABAAElEQVTTApL5TObXmz558s7nbPdSXF0kUrT7MLoWJOEIrzzqs3jbok1rbx0+aWB4d/7jlLBYqD/yXDcFLoFow7toKg9dIQToi0BOe5sPYXFEX1cmU8r8yHLiEcewccc6ii/5cUz2jox9t6TPJjZ3axniwTD3M+6ENutOIOgOZMUX0Mx4vH5JR+sC2/IxXPAQb7jE55Ie21Z5suCCqjTLl7LX3VBdeC73zNjBN1i7qUq14vc/P5YQXpeyZW1KggW11tAJekRgCHzNGkJGSzNKTVtXAIUZHV0iBHoRAjVqZZ1KIeF1PXD9maxPfnj99RWf2BjClqObguE9j9oHnKNnj2wcM3B0uBsWnSApydbte0CRIFHgu/95FdMINxjYG/bR46cvXjJGrkZFhi++w5gbBg9QhjJsjsFa0e1fOloXmPRB/DG8VkNQRENjE2xzAYixiQvAFx8X4wEQj2Sf3r9rffz13yuVHnkM1qk9P2u1ugnDJlryt3W0ffnDa0TTAjy7GmssOXtOYTxh1cL1XDiSgBCgIQK7m2oejOzeNRKu1bz73UuvPfYBqaobD/6vLfsUaZU1YizP9+PvX1l296uDCL1YY3aIHhba9RYI2V8glyX4mEtKy7Nz8jAh0VERUIAHYEFhMRQqKqtum38zl8vNu1aI95IQb1yZoOGH9dZbb3lerXawG9f3oFr2DtiBc6WuvgGq2lqlECZx/OSZ3LwCuIT54JI7F9g4u1AsFvP5PbLk5Q1Vm/ZuqLp4MIQsatBSWyIF8rM2lGadKLoqDAgKFXXN1RtaG7Yd33J49w9mkfUXpS37m2uJzVEZIYAQcA6BCpUiLSCIeKyLn06798zOdoMhIiSSe/1v+XTO6d+2rmFWO5N+KZjFzrx6/FjB1fCwWHGAyf5NR3UG1z0ciYS1EgcHncu4pFAq4fLK1WwIMj51OgMLUoPH3X333gnPQ3jDPn7yLLy5wre8vKq0rALYsGlN2oihE8an4woEdH7wS+8WjFMEz2tQXV1dU2Prtb2hoemDj7+2dLHcv/TOG8aOtqFwcnIyHDxlg8FG1fotX9aWX4OlWDxTiw3mHlbVq1XvlWbL3ZmBv4caouYIgd6FAGxMfi0h1ZfC7sgejkuqVjer1Akpo5ffudI5UeDVLyzsnnxAeNg3azc0NnXZG0wmvCU/8vC9kGURu4T0Jet//N3scS0OEr30wko8Ohk4IyIiIiMjndPK5a3oOHeBQUIS0KGpA69k5oCRx8YM5xwsWjhv8kQ7az49mbucOLtbpFa4YwOK2W1r0qi+rMhvcefxlGY9okuEQJ9HQKbTlig7YAbDuR4146Yh81gsEY8r1ftMGDXNuS6IcxeQAMszkyaOg3iwzowvcggAu2HsqIcfuBu8LLj8iHAJWJqGRpjztAARdmuMHD5k2UP3iDpTxeBsaO7iY3fugoEFiSxhCRKmgWGhwbCZiIrzqidzly82vO3rfi/3ubam32rLFBR2COO/GFRACCAEKCIgZnOXRyUlC7o2G1Js5QSbVBD8/PK3nGgITczmLg4JgXMUYZYD/hj8YDFic1rNXejo1cfBgiwIEABuluINr3V5wWzW6XL5jWrVhpqSa3KqkSouVwAJRAj0eQSateoPy3MnBoYuCov2M80Q0zfGDus6xPNd6DwoWlsXDwOn4/JqOjf9+nL5kPDRhb03a1RnpE05Hd3JglwoHIlCCCAEiAiAK/lEa0OGtHmYf2C6UOxaGxPA5rfLjJkvQv27l62IvaMyjgCyLjgUPvKg8O1l1+B6UGDYb1mnuytQCSGAEOhtCKj0uvPSZvi6VvF0cUJG1hWQ+WaKHR+wa/vtjdLomMWyN+KIdEYIIAQQAggBIgLembuAP4rDcUv+RK+cYkkEFJURAjREYPWcRyFztkOKvbxrbSvl3KzUJYv4/qvnPkrK/+ul/cdLjDvS+/wHHlNuegCSuvq9had3rIuk8+OtMaN+EQL9DYFJ8UPD/IMcGjWP7ZaHA4idkZRGqsnhwkuk9L5HFAqFw4cP73vjMhuRW35AZn2gS4QAQgAh0IWARvfV19+QoiETUEqdTtoWEWmIALIuNLwpSCWEQJ9FgKEz7D90kHR4kVOHktIRsZcigLz6vfTGIbURAggBhACtEUDWhda3BymHEEAIIAR6KQJoZayX3jikNkLAAQQ+W/2ZQqZwoIGPDyNWR51/YtzQDywiwRZseL1RTnIII3WxiLNXI4CsS6++fUh5hAAlBCorKttaHXzQx4RSEt3JxGNzLGPSWEwGdQmIs+8hgKxL37unaEQIAU8jEMpgZBz7n1mvAjfnKjbrDl3SDQFkXeh2R5A+CIHehwCHYeiQGo/7I37Q3IWIRj8sI69+P7zpaMgIAYQAQsDtCCDr4naIUQcIAYQAQqAfIoCsSz+86WjICAGEAELA7Qgg6+J2iFEHCAGEAEKgHyLgHa8+nA0NH3fAHRkZKRAI3CEZyUQIIAQQAi5BQC6Xw+nvLhFlJkTc+TEjeuvSO9ZFqVTCydLuGHNoqANB+u5QAMlECCAEbCCg57I+/vgDUob1mXt9CopIq/oYUaPRuOkBSKt3a+9Ylz72W0HDQQj0cwSUBp/gsHgzELSVxWYUuGQwGclJiZZ0oLALeaR0ROylCCDr0n3jBC218/m+cO2rkEbEDequ6EGpQ6tt1aorVYoL7c0KnQOpNXrQpxubLk2bOTnB5FyK8pa6dw//5sYukejegECzwWf42Plmmiou7DejwGWLouOxLZ9Y0oGSV1dOSneaGMBmjwkQR3B9RRyOgOWaZ10Amz911ChQSaBwy+qL04OlYUPXIE7DgTmhElujjsB+gjqtSBDghAQbTe6PiIcjvnc2VVcpHUv3ZEOm56sGhcaYHf2UXVvieTVQj3RDQKXV1He0mGml0xvMKHCp1mkPuf+UsCH+gTODJPCvpQI9p0Rwg0CIVK/puai+LQFZF8/d3zFCMXyPt9b/UlPmuV5d2hNP1pp3xeRwDpm+10/IXIpQPxV2sixr4jdP02HwvizWI5GJQ/1FdFCmn+uArIunfwCTRWESru+XFfkqvd7Tffe4P65KVtNcSRTDFgiJl6iMEPAiAmI299nYlHCecX27N34UCmV1Ta3BYIiJjuLxuL1xCESd6WhdDhw6plKpiVoSy0OHDIqLjSZSXFXWsjgag4HDcHti1xRBALxefVVZ6CrNkRyEAEKAx2Q+4ynTItNodExXPjxrauu3bNuVlZ2H3UcOmz1vzsyZN05hMkm2JALb/oPHMM5Hly3186PpHgxXAuSq3zcA197eYU2aUBjgJuvy9D0vlzfXXi3JysvL8Gus5rNY1nSwTa8z+ITHpw6IG5yWMqqstjSvNKeoODNYLiW2Gh4QdEtI5I5Gt8S8EztCZYRAP0HgoYjECNNZCywPqIPDE2JTUxOHSMTh53POXSvNaq8qCiZ7ZFNBqVWjbvUPGZyUNnXwmMRwl73jFhaVfP3tj8RXao1Wu/WfPa1S6eJF5rESer3+ry076+q7coZqtVoqmnuFh47WhdRc4+gEidziqQP5bCYrMSQKvj7pN23P2FdwYovQwTgThV4nShmzau7DuLbDEofD12fGkkuFl7dtXRPF7Y65nBMccaK1oVWLfIM4WqiAEHASgUEC4Sih0dmOf2p9mA/e+1JMaAxOmZk+G75w+cUfH/rWOxyfVqNRT52zbGrqWFygSwqwDvbTz39ipkUY4D9i+JCLlzNlMjkIP3L01PQpE0NDg4kdZVy4jJsWIp2GZTpal0cevlerNfEVV1XXbPrrH4BPIPAdPGiAB3Ccnz77XGDwiZ3rAhwxMMOn3jktbTqpemnJI8UPvfnbhv+GsjkYA4fJBAPzP1dHYZL2jogIgb6NwG1hUcQB1jOYrz/1OZFCLD+95MUfd3yvLb5KJNou16iV9y5dlRQeZ5vNiVpwtDS3tGIN//X0YxJJ6Lixoz769BuMAtMaonXR6fQ7dpHEeTvRrwea0NG6JCaY38JLlzMxLEaNHMZydsHKUTTHpow+m33WpyKXYsNWodiaacEkxAVHjZ92V+GJv3GBYwKDkXXB0UAFhIBzCIg5vERff7ytSq+7/96X8EvSwkO3PPLO509JKPtYh01e6A7TArpxuVxwsWBKhoWFQAEegEBUq42+Z6mpj+DM2fNNTeaR31hbGv5L4jKim5Y6ne7c+UuYVmNGj/SkevfddF+NitL2FLVe//Ai+xGZ00dNryUMACZG8Xw/AgEVEQIIAYcRGGG6r0UlDicuiFkTN3Hy7daqzOiZCvnCcXPNiK66DA0JBuuCfRmdIUXwxNNeXzAX+PLxjsDFsnOPcT/AyBFDcSKdCx6au0ilJvtawTFFHZQrV7MhUA/4weMyIDnBdkO1WmXWl21+27VgewOiBvg0Vtpmg9oWDi84wGR51FqTmMQRmuIreG00X1CqlOGXNC/omSwOzyRAhcHu/vXTXHmkXl9FIJxr8iOcOm4elZHCq975IxtFbPvPwGFDJ7vwqQK6qTVWY2Kh9mzGJf31jaipqQPxsZw4da61tY3NZk+eOO7ylSycTizo9TpSVYVCd7mrib2ble0ja9bAucv6xnpiQ8513wORaK186sx5rGrM6BGYbbfGCXSZXNbWbmLJbDBTqRqSkFZGwbrw/ahu+xicOPQqwbqEcntTVLtMFH7LiBlE3Ix79c/uJFJQmYYIPPTYQ34Ovgc8d/YnH/qGI5lgLDR9noxOSTOptn6hgr8+Cm+6Q2MGmz3BrIukVMPhkPzVl5VXrv7oK2L7GdMmBouDMIpao9m99xCUx44ZCe5nIhuxrIGkCaYPW6y2L1sX4vgdKre2SXPzCrAm6WOo/mgc6sI2M5uam4f6bIxn+sNi+VBe+rWtKKpFCFhHYMiwIWH+Xc8p61ymNec3mF7T90pvMEk5I5VJAynu1WfA8oT9dRSIJvX84IcNHXz7bd2TsKPHTmP7NG6cMQVzyXheJUd79NDcRRhg8mpPjOy2rfGZsxcgYg94IsLDoqMibDNDLY/HE7BMlm7sNrHNUJlTZpsBq1Ur2qmwAU9JTQmRs03XS94PO5VefeSPL09tIeoPaaOIl6iMEPA8AlLTH2F+RX76YEpxwwy1yofC62NlQ1nc0EkuHBf2TDMTGBgoBO+LUqnKzM6tr2/MzMr9e+uuO26/Bdjggbl3/2EopAxIhCchzHLM2uKXLBbbz48urlwPWZewUAk+fihQPznn5KlzWEOKExeBr19goCtXGKsKMkIoBCUH2lxIJY49N/cc8QiaBvh9955PO1hRNaUwh94zJqRpr0egUWvyR3Tq8mEq1qW4pjiMgmkBdLKyjy2cvsiFMJEe7iLqtC7Qy8IFc15Z9W5Hh+zQkRPJSfHgwz905Lhcbvy7g3Cy/ILi2rpuR0NxSXlkhATimDH12Cy22cPWhWo7KorWMWMQ693U3IINaVy6F5bF/jzwOxXTAhrymcyvNn5sF/3i6iKxqtuHDzP6PFmb3VaIASGAELCBQI6pq1VfVyZXGXcj2v78+c/3thnwWolef7ngMn7p7gJsJwejgvWSk5sPhYOHT2CXe/Yd/uzLtX9s3Ipdwr/f//DrwcPH8UtaFWhtXWBZDAMrKTE+KEjkYeAqG6srMx25bTVF53LP2FBSqVb8/ufHREdLtqxNScGpaEMmqkIIIARgq2MdYeeAP5P18fpVtmHZcnRTiNJquimztuAa3bFjrfp6lLBZbQ8vz2Vc+vSLtfD98ec/cFH4rj5sykLR+4s3p0nBQytjTowWYiTOX+zaTJs+xqPbXEDb/Kr8PzZ+2nXcCzXteQzWyT0bIMvAhGETLVu0dbR9+cNrEtOZ+K7GGktOREEIuByBl3at5XG6kkRQFA7HfFHkpAPb7qaaByMTcU3CtZp3v3vptcc+wCnEwsaD/2vLPkWk2C3DX+7737648sE3xY4GR9gTDT6YgsJijGvmjCkx0ZGQBgYPZcI26t980wwsNwzGBrFOuMvgxumTwRljrxPv1NPXuly6lImFRsA8cfSo4R6Dp7yhav+JLfLSHIdMC6aeP4udffiPjMzjsybcmho/BCM2tDbsz9hbmXlCYho3eVHaUtSr/oA9dgtQRy5HAM5fcblMWgk81dY0UxwOu8dwrcJUivc+f3Lk2DlTRk7zv76T/3TO6aMntwc79XcXodf9+P2/xUlpS+c+5NCeClwl0sLgwSmQERnSVkLtl2vWQzqSq1m52JQFNmCkd+4fnzZlArEtePVx6zJzxmQIByDW0qdMX+uCb3NJHZziJ+j+0bgPu7+P/JmXfVqs1bIYDKcTJIN6gsaqk9u/PazXg0eFbzAEdM5XgkxNS71a9TM61dF99xJJ7n8IfFtV9FpCqi8hejiUwazK2Pu/jL2tOq2GwQjtrKK059kKepDWVlua+fUXT8uZvOFpU2+ZutAKowNkyFw5/9abIO0xtAFP/rET3avrsGsyMjLcAVk0Y6Wp36WxqRmfLXpsWayyNDdUpwPT4pJ7xGUyQ5lMzLSYCWzSqL6qyJfrTDJ1mvGgS4QAQsAhBOrVym8qCkmbiFhszLSQ1jpK9GODNN21giuONrTGD6tb9yy5nc/vzjgAG/Jvnj0DC0e21or+dJrOXWCREc/sBimpPYSji+yKbW3PtTX9VlsGufpts3mg1o/LX5Y+h7SjQ4WXs+pM9uVgbPwOfUCz2zVX+DE7gr2wf40UCkTsRQjkyaXvlGQ/E5MSYLpUQP8hTJowdmx6Wnl5JeSAYTIZ0VGRfH73aR1m+kOyy2efehQj0vboMFCPptYFzgdz0xFhZveJeEm6xYnI0MNyo1q1oabkmpzqvssedme3uT+X/9QE8kR+9e2t1qxLaIVxgditnxYJsi5uBbgvCy9Xyt8ozpollkwXS4irZPQfM5fDSU5KoKKnL59PW08+UX+aWheiih4r201i5oQmMq22RauuVMnPSJtyOqROSHBjE61+7z7ysyKULb0pXsiNECHRvRABmU67taFqd1PtMP/AsUKxhMsXcbi9y9L0QtRJVEbWpRsUaVjsz9XG5aBBkrjfMvZ2V/TREkOrX7PmO9LBRU7tHSm+SZVHRIQAIACnvJyXNsPXtWikixMysowelzeXrHCt5L4njaZe/b4HNBoRQgAhgBDoVwgg69KvbjcaLEIAIYAQ8BAC3lkZCw8PDw0l5nJ02Wghks9lspAghABCACHgBgSEQuHw4W7ZIY6nkHGD1g6L9M6zGLbfw8dhZVEDhABCgJYIiOpcFkmo9GMq/fv4wwECiDgOJuah5W23o5R3rIsdpVA1QgAh0KsQiCzUuErfhhh2n7cursKK5nL6+DsCzdFH6iEEEAIIgb6KALIuffXOonEhBBACCAFvIoCsizfRR30jBBACCIG+igCyLn31zqJxIQQQAggBbyKArIs30Ud9IwQQAgiBvooAsi599c6icSEEEAIIAW8igCKSvYm+d/s2sJkrVjxGqsOB5lyfiiLSKkRECCAEEAJUEEDWhQpKfZSHzbxp9izSsZ3YW+FTQVqDiAgBEgTyx1g9jISE2yZJz3LN8X02O0GVnkAAWRdPoEzPPjrUyi9P/U2qW1ZdKSkdERECpAhoeWiNnRSYfk1E1qX/3n6ZWvnFyS39d/xo5AgBhIA7EfCOdWnv/LhjXMHBwTyeyybp7tAQyUQIIAT6OQIqlaqpqckdIAR0ftwh2QmZXrMuNTU1Tqhrt4mfnx+yLnZRQgwIAYSAFxFQKpVuegDCoMC+eHFoxK7RaikRDVRGCCAEEAIIAdcg4J25i2t0d7UUrqx1NIcLUkM1iltDI10tnlxemUJ+taOVvA5REQIIAQoIjBUGSzy1Hh7lKwhPTACleGo5BdX6NQuyLt23n9fRNobb6bNRKeJCoror3Fk61lKPrIs7AUay+z4CY4Xi4QEij41zVEIi9CXVIOtiB3K0MmYHIFSNEEAIIAQQAk4ggKyLE6ChJggBhABCACFgBwH6rozp9frjJ89mZuZqtFoOmz1ieOqkiePgxFA7A0LVCAGEAEKgtyFQU1t/+MiJ0vLK6upag8GQlBi/cMGchPhYfBxAPHLsVHb2tcqqaml7h7+/36QJ426+aTqXxico09S6KJWqL79ZX1JSjoObk5d/7vzllU88zOMZHe/u+Dx5/+tZhZcvF1ysq8gXq5VOd1Fn8AmPTx0QNzgtZVRZbWleaU5RcWawXOq0QNQQIYAQcAIBlV6vDg5PiE1NTRwiEYefzzl3rTRLWlkYwmI5IQ1rUqbziY1KSR96w7CBaU4LMWtYVV370adrVCo1Ti8sKvnwkzUPLF08buwojLjhl43nzl/CGTo6ZHv2HcrMynnxuRVcrrseiXh3zhVoal02/rWdaFqwsRUVl+7ac2DhgrnODdVuKzaTNTJlNHzlauVHmz6NaKq228SMQaHXiVLGrJr7ME4fljgcvj4zllwqvLxt65ooLGoAr0YFhABCwD0I1DFYD9z7UkxoDC5+Zvps+MLlVxs/4tWW4XSKBZlWq4pPfef2pyjyU2f7/Y+/cdMiCQutq2/A2v7+55ahQwb5+QlycuHdusu0wCUs4YB1AR4wS3v2HZ5/y03U+/IkJx39Lmq1+lzGRQyF6VMnvvP2KyHBYuzySmaOB9ARcPlv3Psqf/A4R/saPvXO+wmmhdg8LXnkQw+92aDVEImojBBACLgDgVofxqqnPiOaFmIvKxe/wEkcQaTYLct12pSpi152g2lpbmktKe1apFnx2INvrnp+6T13YPpoNJpr+YVQvnDpKkZJTop/9z+v/ueNlyLCwzDKlavZWIGG/9LRutQ3NOn1BgysuXNuFAeJxqZ3TUJbWz23vnTfrKXV/g6EObYKxdPSptu4x3HBUeOn3WWDAVUhBBACPUdApdc9ePeLtuU8eMtyWMGm/jEkDps7eiZ1fuqcMAsZkJyIfQcPGgANx6WPYjK7nsxNzcbNcOAOwBjGpo8CRwufzxszeiTWBcZAvTtPctJxZYxFWBXl8/gAB0wGMVCYnvXq3zf/8a2/vBPAso+SWq9ftugZu3du+qjpJ09ukRgc+V3bFYoYEAIIAQICKnG4tVkLgctn4uSFhSe2ECnWyoUK2ZtzHrZW20N6bEzUv55+lCiExWKymEwIawIiZmYWL5pPZIAy8GAU3A6ZMdDh0v5z0yVaQtY26nKCxSIIEoNQMWjS1NwcFhrS2NiMNY+OtrOFXq/XOdSXba2iAkKkAmGAyv62qRYOTxzQtXxnW2Z0wnBN8RXbPKgWIYAQcBqBqePmUWk7fdSM80c2idj2n4H+kUk8FlunMz6RXPKBADAbcsDBjD39gGfggERSzty8Aow+aGCSGQOpniwKr8hmcnp+aR/ZnvcBEiqqyolyOGwO8dKsDCEQ8+bO2rp9N9DB35WclHD67HmM5+bZtpaegKdN2tbU4srkozcMnVpxwaiJ7Q9PQDVzXHJsSi6yLrbRRLUIgR4gkBo3kGJrlfFBZOtBj8mZMXxGSVkJRZlU2DidGafMOGvr6v/351YgVtfUYlUzpk00e5/eun0POGnAM11WXgk8sER2x8JbiHJUaiWpqrD2RmTzTNlD1sXRwcyeOVUqbT905ER+QTF8seb333tn6uAUR0X1kJ/LMS7N2f0wrq+T2uUUC4Pt8niGwY/LX5Y+h7SvQ4WXs+pc+edE2gsiIgTcgYCA709RLAOe8hr7yyo8NpeiwJ6wQdhYQWHXsw7kDBs6+PbbzCdhYHhwHiaT8czKR8TioJ506ta2HrIuPNNIXMN1p721sVVWVp+9HjaG8xw8fHz4sFSBwBenWBbYbDbRbWPJ4CilRda1KGe7oUreYZsBr62sN7500OHjz+U/NeF2Uk3q21uRdSFFBhHpj8C1iryBMYOo6GnQwLY2+xu0ZUpZsL8rH+LgWLFUD3Pdw8J+eUUV1GZm5f61Zeedi24lckZGhIMRqqqukcsVEPq05rufnn3qUTx+DDgZDCbBbU1s6oWyh6xLTHT3plMYZXV1tY2xwqLkup9+l8mM3g5wugwamAwBeXAJwd1/bt720P1LbLQN8BcGBgbaYHC0as2m1YnXHWg22voqjeHnVD6Z184JqfB5gEer37tvP2k/yhaqxpK0OSIiBLyIwMnLR6hYlzZZmxhWxewbF5/j53eseuwDF46ora2tzqfOTGC4JAxz7zc1t7z9zsdarfbw0ZMpKUkjhqXinLfNvxnK4PDfuHn7sRNn2ts71v/4+6pXn8UZuBxuZKQd5zTO7O6Ch6yLQ8MoKCypr2+EJmDM//3y0+CGGX/DmNUffQWUCxevLrlzga+vremLQ33ZZs4ovBzFsL8sC0ICWKyNB/9YfKMtywdscpWM0Vjt4w0Pm+VIGVr9mjXfWdKBEjl1KCkdEREC9EegrrBrd4htVX/Z8T2PWgxqkFJW31IfFtS1xcS22J7XBouDUgYkwg5KEJWbm0+0LphwiBODPfxgXeAS1srAxgQEUF0M7Ll61CV0hbVRb+ABzorOiSF0FBoSjCU5gPkg1i8YbUjI4wEdsC427VjLI5vDkipQevVoXav5+4gZ5+cb/kslvtmsFbpECCAEqCMAiV6+2fyZbf4rRVf0Nd1ODtvMXAbz+z8/tM3jdC34UXbuPgBfSCOGC/H388PK2J58jAH+hSxkGB1ngEuMB29LnwIdrYtOr8MAUl6PYyYGGWs0LosLtH0bnlv32gDKpgVEBbHY6398u6G1wZrYjza8HUJ5Ac2aEERHCCAE7CLAri76edcP1tiyijP3//OdryN/3WFq5efuMTDwuowZj7+37oJZCOgM79Cl5RWY8tikBKYpGM/psxcwOs4Al/ScuIBidFwZCwnpiqqCbS7X8osGpiQdP2mcA2KfcEno9aK7/j9XfOXnv78aweU72kEoi/XDD2+kT71jxugbiW0r6it/2vhxuN5DdpHYNSojBPonAqrCSx/99NYTS17wMw0h+33Phvq8s4GOmBYMQEFd+dufr1w479HhycNdCCksgmHSwNHy7fc/Q1hsaVkF5hoAOuQZg39ho/7FzmQw4ImBSw6HjU904uNiIF8yJoFu/9LRugxNHQjWGDPjX3y9DswJvhoGS5CBge5yiu+9dOhU3vmOxqoEg8EJ04LdWjGbXXRy68WjmxRsLl8YpJK1s9RKmKp3Le3R7f4jfRACfReBQGnT72tfrdfpfHz92Vyepr1FqNf7slh+jpsWDKRIBuPsru936Jk8/6DUlNFzppgEdDkHJDjzZ904Zf/BY9Ac9rLgOcfgcuSIIUNSjXt3wJl/7VqhTC6HaQ2EzuIdQVDy3XctxC/pVqDjyhj4Wh5/5H7MIEP8GG5aoqMi8Pxu7sAx78qx6IaKQQY9j8IGK9sKBLI54T4GkbRZotP0JN237V5QLUIAIWAXgTAWK0ytEHe0ShgMMC12+e0yhDL1QnlTTn7XIpVdfrsMkPf9niW38/ndiyWws+Lm2TMefuBurC2k8YX4JszS4NLgefj8s0/E2EtfgvN7vkDHuQugAMfmvP36i/sPHgVLDmHdMBOECePUyeNdu5fF83CjHhECCAGEgCUCkyaMhVy9xcVlcDgYBDElJsTBPnwiW1CQ6MnHH6qra8gvLIZ0i/CEjIyk+4IITa0LwOrry6ftuQXEu47KCAGEAEKg5whA8mPY2wdfG6IkklD42mCgVRUdV8ZoBRBSBiGAEEAIIAScQIC+cxcnBtPDJgpx+MF6YyBgrEhy4FpGD6VRbN6qQ+eJUYQKsSEEyBHY0li5v7mWvM7V1IEB4ddKjRtl7p15h6tl9zV5yLp031Eth1cN4SU+PkI255q8vbsClRACbkMgMiB4xfgFpOJ/vXQgr6HcsuqlKUuE/K4Tj4i1GZXXtuUYI1apfFaMnx8ZEGLJCT1Cv5b0GUlp8LWkA2XVPpKdJTenjH12EnkWu1d2r7tcU0gqyjlilVLhXEMnWgn5IddaWqChjsVxonm/aoKsS7+63WiwtENALBDeNYL8XIlDRZdIrcuCIRPCyJMqGqhbl9nJY4aEJ1jCAZ2SWpeh4fHW9CS1LoPCYpKCoyzlAyVOJHGtdSHtBRG9joB3rEtwcLDf9VQHroXATWJdqyRNpBnYzBUrHiNV5kBzrk9FEWlVbycmiSPSLRLo/nHlMHFcMJ+Ykmi+Y25b9kmFVo2z+bK5C4ZMxC+xwrHiq9XtTUTi/NQJAo5J8E9WbSkx/zSfwaguzyI2wcsk05POuta6Ym2ziUysCUdFNZUq8KtaaqrVZPwdxhdzy4+0tslazlNLZqDI61qt8WvaPTfVINXN60R4TCUnJ7tDDWJYszvkOyTTO9aF1/lxSFHE7HoE2MybZs8iFXtib4WP0QPVBz/p0YP+O/ths4GZWZdBYbGWPIeLLik6uq0LrE1Z8jz29ydm1uXlqUvM5hlfnvqbaF2ETOa1q4fM9MEuRVZibuqKLlapSR7QfD8HssTLavKvyaWW/TKsCGksrF5zaq8lv5EykSSrbGtF45qDO0j5o2d1nQlPWtsfiLCdxbWp3OkJmnesCz2x6G9adaiV8KQjHXVWXSkpXenPbIhx+29G4WflsUqqk4NEnkHfWG/0ytr4wK42Sx6WWa52neFcxnkzITpFt/nBqrIzs0vZ3bvkgChrInmmm8lBlwiBPoCA258UfQCjvjoEmVr5xcktDo0OrAt8HWpCN2axQZd5jvydGldVzPSx5BGYHvPD0Ojeffd9vAlWEE0fZEb58bsf21rbiMTECcPM7BSxFpURAn0Ggd79pOgztwENBCGAEEAI9DEEkHXpYzcUDQchgBBACNACAWRdaHEbkBIIAYQAQqCPIYCsSx+7oWg4CAGEAEKAFggg60KL24CUQAggBBACfQwBZF362A1Fw0EIIAQQArRAAFkXWtwGpARCACGAEOhjCKD9Ln3shqLh2EGgkcEaM3mJOVOuSUrsBr3Bkkf2+3+JrfRc1scff0CkQHn1uU0+lSa0Z19+Vsg1OfZ8a9EpnyuuzOFo0h+6QAjQBgFkXWhzK5AiHkFAw2AGBIbZ7krjw7Dk0Zu2YTAZyUmJpjQf5hXzvLnRMdFmmWB4dZfNWqFLhECfRMA71kWlUimVSncACunhIIePOyQjmX0DgYzKvNfJMsYTR5dXX27JI1XKiTxwackDDYk8UF599A/LLJZEHqleP3D4DCIFL28/vw8vEwuSpFH+ppkxsdoztSVENttlv4iUcD+hJU9eS70lESghyZE3j5xAWrXyys+WdFFMiLUcqbuasnxMsLRs3ccpWq1WJiNLIdrjcUMWS0ji2GMxrhHgnQdxU1NTTU2Na0ZgKgUyj/aH9HCmg0ZXDiBQ1FwDX9sNIBOlWV5LS37Il2yXB1ptzzll2ZZIURoMkbFDiRS8LLdiXUSSRLP5ENZEY8Uw4AKJBV5QRCRZBv48zSUiG14WhgffNIE856kPmXURSEQ3jSfn37+jb6bfxrGyWwDTUljoltXRiIiIyMhIuwp4hsE71sUzY0O9IAToj0CVtMFyDoSpbTkTwuiW8yGMXtRURX28a85sg6NlLPmrpI2WRKAcKrxc39FKWkVKPFJ0JSaQ/AT4K3VuebCSqoGIXkQAWZdu8HmyttEcLlyHahS3hrrG/st0uhatukIpb1SruntCJYTAdQRaFB1U5kDX2Y3/250PEZmtlfcVXLBWRUqHUwOIBweQ8hCJcD7Y5Z3etyJRPN9wrq+IyxEwWUT1nC5H+QrCE42nrvHU/Xt1jwKCyLp0g8TraB3D7VyyVCniQsiP1evmdrBUqpCdkjYeaSZf1HZQGGJHCCAEbCHgy2JNCwqbGBgSxjU5/sBWG8p1oxKM0RxSDbIudiBD1sUOQK6qjvf1g++84IhNdZXnpCbHF7qqCyQHIYAQAARuDo6YGxLBd9FkBUHqNALIunRDZ+guuqsUyOYuj0qM4PK3NTqwRO4ubZBchEDfQgBOeHskKmmU0IEzOvsWAPQaDa2tS1ubNO9aobS9IzkpPiE+ll7I9UCbeaGRBh/D9sbqHshATRECCAFzBJ6ITh4eIDKn9oZrtVp9JTOnrKyyuqbWYDAkJcbfOH2yr6/Jsh7EMVdV18K3paUVIo9HpQ0LEgXSeXA0tS6A799bdx0+elKv79rEljZi6AP3LeZyjV53N32mT77tas7ZmtoyX6UMzsd1uheZXtfBFQQEhcVEJDS1NTQ3VuulTSEsE6hvCY0qVykut7c43QtqiBBACBARuCUk0tK01On1PFFIcEhUoL+ovKpI1lIXpNVwmUxiQ4fK7XqDgsULDY2eNWq6Qw1tMMvlik8+/w7sCs5zLb/o+MmzKx57MC42GiMWFpWs++E3eNXGebb/s+fuuxbeMG40TqFbweSRRx/ldu05ePDwcaI+l65kyRWKZ1Y+QiS6tjw8aSR8QeaV8ryfNn+WyuY4Ib+BK3j07hdDAkPM2q7f/q286Cqf1R24co8kNlvWqtF7YEHOTBd0iRDoawiEcXjzQ00icdp1uqTRsx6ZstBsqMU1xb9v/kxicObv7rJev+qhtyMs/rrNunD08vc//iaaFqx5e3vH9+t/fev1F2B7eEeHbO36X+FfomSNVvvzb5skklDarus4b8OJ43RtGezz7r0HMZnR0ZHjxo7CymDPYaHMtX2RShsRO+jT576t9XN41mmIHfTvx1dbmhboZdn8x1Om3ynXafEeRRzujKBw/BIVEAIIAacRWBDa9Y6PSWjWau9f9p8FFqYFahMjElc99UUT2V4f2723hMd9/ezXLjctzc0tFy9nYl3Pnjnt/Xdeu3Xe7K5RtLTmFxRDGeYxmGkBS/P0k8tfe+VZgcAX49m3/whWoOG/dLQuV65m6zvf6IUB/i/+a8UDSxenjzFOKeBzNuMiVvDAv68ve6fUkRecOh/Go7c9aUOxm0ZO90saQWSYEBhMvERlhABCwAkEIP44PVBMbDhp1r0hQvP1AyLDK8vfbSG86hGrSMvFPMFLi18greohsaGxGZcwd86NQmEA2Bjm9bW7mpo6qIWVG4xn7JiRgwYmR0WGTxyfjlGKS8vx5nQr0NG6lFd0xVMNGJDI4RjX7m4Y27W2WFRU6kkEb559v+a648duv7fd+qhdnuXzH2/U6XC2CJ5vKLbDBiehAkIAIeAgAsP8TDz59RzexGGT7MqIGTrRLg/GUKtSPL3kRYrMjrINTEla88X72JfLMa7Gs1jMbgczgwGUxsauPQzwSMTkB4m6hqxU0nebNh39Lh3XPVcY1oCmOKgLysamZp1OD+hjELv738mDx27f+X0KhQ1ZdQbD0ATybFFmSgqjknxqS3Fioq9fA9rGj8OBCggBxxGI43ctE2FNx4y6kYqMJTPv/Sr7FJVtMVK/QJcviNnQsKm5BU/ym9gZK/vJB2+b8be0tWGUoCCHF/DNRLnv0kPWpbC4gDgGjk2HObtzvgL87de9WJD3E28ul8sDAvzxS7NCS2tzQ5Mr98NPH7eg6tJes14sLzn+VEPsByUOLyZYFzG7e2iWYhEFIYAQsItAgOnzZNyQG+w2AQYGg9HGYJrE/FppNm/cgpIyo//DVR8OmyT2tbVNevLUOegiJy8f62jwoAEJCbGWnao1mjNnuxL5DE0dSGRQa9SkqibEdU16iMzuLnvIujg0jLDQrgXTouJSbKZCjMODYGWHpPWQ2ZcvoCKB3TmlpcIZERJJ/J0KTf8wqEhAPAgBhAARAZ7ptnwR5Vc9BixLaOyvLPnx/XSEBW1i186Vmczu5XFcAmzv27n7AH6ZMiDxwfvuwi+Jhf0HjkJEGVDAQE6eaGJKDQa9Tk8inNjcY2UPLTE5NJ6hQwZh/AqFcufu/ZlZub/8tgmX4OHTC1RqJd61jYLa9PAPG5yNbSY5aIlRZDZaoSqEAELAGgIybXcoJvCU15dZ4zSj6zVqMwrppZqCBSJt2BNiSUl5QVGJpYTauvo9+w5j9CmTboCIZEsemlA8NHdJThxAHHB1dTXx0qwM4dsDU5Kv5RcCHccR44FQCh6PZFKJSwgSiV17vsv6bZ8lUnDzGGRdy6C4JtYK2QWXiKC3ajTWOL1F57LYkxKGQe+RTKNH0fZHY/BpMBhUGs3Jsq6wFtv8qBYh4HIEpDqTP6Jz2Wdiw+Ls9gKrIIHwmn89OssG/9FL+16+f5UNBkerYObRWG/ylgkSYOMk+PbBS381M+enX/6E7Szrf/w95IWVsTFRuHyo/frbH7GJVLA4aP6tN+FVWIHH5UskYWZEb10SH3Te0oGk34cfWPLlNz9UVhqNEIR4jxw+5PzFK1CWhHUtmpG0cQMpo/ByFIPSQlwoi30m5/QNqePtatFakR9C2FNZojLZIWW3uQcYgnz9v1v4HHR0eMcXdrvzDwxNn3x3fUfLxG+etsuMGBAC7kCgVGnyR5SXfdpnOvmaErH3jQf/8KVgWqAJq6UGDkoI8TeJTCOKcrQMK1rWmoCPeWx62rETZ4pLysD+ZZy/jFsXuFz3429NTS3QFt6zH1t+ny+fxG3EMk0LYq0jD9DpuDIGwwa//SsvrHzumcfvXHTrf998CfZUYlhER3UVPAANdLFpx1qzJV0b/R448JuNWqzq+21riKalRaOupLykZlc4YkAI9E8EcmXtxIFL9Lp9GXYicdo62soyjxFb2SiL2dxP/7faBkNPqiBCDLZMwresvBKXExrStROu9XpsGFSBVyYnt8vhv2jhPPypiLeiW4GmcxeACYwzJK+Eb0trG3ixMOAgcZvHEHxu3WuDTb2FtruW+DDeW/vKvx993xrb1mN/+5TlEmuPtzYQL/tDObzSZBGjPwzZ82PUcBhNEvr+abscEJVed6at8QZCgpbcE9uC/IPSB48l7atD0fHl+lUSR97x4xUdX+xc9/S85aQCe0K8fCXrry07QQLkrFz97ipYqoFyU3PXFkt840tWdh7kx8I6GpI6cPrUiT3p1DNtaf0ThOXF3LyCLdt2yeTGg3oiwsNwh79b0WnuaFn9w5uDfSitiRE1CVXK3l3z3BP3rRIHmOwcBp5v/vqcXWX0JOEfqVazv9m4EbdffcKrTByw/WrsHhusXNC/rAsACxnHidZFwGKd3vtTdWPVgskLzWAvqMzfuPlzCbU1MWJb36Irb6x77T/L3yUSe16Oie5yq0AQ0+a/d4xKG15aVl5YVIpJhmTJUABP/vqffscokBf5ofuXYGWa/0tf6wLTQGJ8HofDeeC+u1gEj4XLkc0sybxaklVTWeDb1pTsuGnB9AnTajase03O9xOKw6PDExpaaluaagztzcEW06D/1ZXBO5fLR4EEIgT6IQJwsvi2hkpitjFfJqv+0qF3LhyAHMmhITEB/sKyykJZS324QRfmuGnBII2RSz/5bKUwYkBURGJ8TOLghCE9hxoij2G7PiRRBFHgboEvLjMiQjIuPQ0ut/2zV6VSY3RYy3nhlbdxHijcs+T2SRPIZ2lENs+X6WtdiFjAKuSyh+7BvVvEKheWDx39SyBt6vnOV38W2x9CGOvKGuvKwHlnnMVYmJadDVUXpEbvHPogBBACLkFgZ2NNLN8vLSCIKM04R5E2a6TGlaaAzi+x1olyAJNhqCusrCvMyQ8evNwF1gV0eHTZ0j82bsu4cJmoT2JC3MMP3o29T9vebePhLYBEJW2X6WtdADJRoBA8V6PTho8ZPcKtsxbbGLm2FhKX/dVQeaj/rYm5FkYkDSFgicDaqqKFcPKKWGIjKMuyldcpvr6+Dz2wZPq0iVczcyurqiMjwmE2Axv1ccXSR4/ED3rBiXjB3a/deEeOFuhrXW6ZOwu+jo6nJ/we+EUWKdp/ri6tobZDsydjQW0RAv0QAZ3BsLm+IkvWdn94fEhvyw8bHxcDX9K7hieJJ62lLZG+1sULkLkzx0yJQgYRYid6Q5BYs7x94c9vAP5h7O6zzqzdDk1by3s/v6FxJJm5NVGIjhBwCQJ5Mum/i67OC4mYJAoN5qA8fi4B1RkhyLp0o6byF2V3nnUfGiC6ahrf1c3kYEmm08GmljKlvNkbySQcVLaLXaPXZdWVONcWtaI/AunRKQtSJ7HVCt+OJlJtZUKJns3ZlnMio7JrdwUpG82J4IaBbwxfIOHyRWyuL4WMG1RGFOUbVFVfC5zjR5LPM6gI6Sc8yLp032iVX+CFzrxDgzi+/zTYylXT3QaVEAK9DYEkcdRdI6Y31hVnZuwg1X1y2uwAkSSrtqRXWxdsaBVKOXxJh+kcMV3Myyg2vnuNGjvHOQn9pxVN9+r3nxuARooQQAggBPokAt6ZuwQEQHCgWz58ssQ7bukJCUUIIAQQAk4hAI+piIgIp5raaeS+R6udjsmqvWZdaIUCGTKIhhBACCAE3IIAHCMSGRnpFtF0EopWxuh0N5AuCAGEAEKgryDgnblLX0GvH41DxPfnsdk8JoPHIAlThn0Gss6sNg2yNr07A7v7EeJuG2qzQppdW6rpaGH5Ckk7KW6tZysVwEZai4gIAYoIIOtCESj6ssFhXzcPGT8kIjFFEpMQEpkQHBkdFMZkmMxKYT9KWXNNdnXJ1itHt1w60mZ6HgaVsa2e++iMpLRrVw9Wl2db8nN5fhNnLQP6pG+equtotWRAFPogsK/gAnxt6XPxoK1aVIcQoIYAsi7UcKIr17j4IT8/+GaKJNa2ghwWOzk0Br4LRkxZe++r609u/9emz5Tarrx4ttuiWoQAQgAh4AQCyLo4ARpdmswYOHrf01+wOlNkKjWqC+V5GaW5bcoOS/3YTBZMbsYnDpMIxWBpHp9yOxRu/+4VS05EQQggBBACLkEAWReXwOgdIWvufglMS01b4+O/r96VdUpLIZ//IEncB7evvHX45IUjp42MHnC5ssA7qqNeEQIIgb6OgMnqfF8fbJ8aX3Jo9EBJHAxp3tfPbb96nIppAea8urKF376cUZoD5RsHpfcpRNBgEAIIATohgOYudLobjugSH2zcjdUsk16qcCwZlM6gP5J/MT0+NVoU5kiHfYSXBdM9NovLZev1emNWbIOPTqeHGAj4V6vR+zB89Dq93aHCeRAGHz2XwzEwfOAFjc1habR6OMvHx8egUcNhHBA35/DBpnY7RQwIgd6FALIuvet+dWvboTJmTwoSBIQFBNW3O3YQ2bCoJGjrUKuvT2358+phkY+PgNn5FO1WxFjSy9p+3vIJFFoUJF4fU14vXDGZDA6XzWQyWSwwKF3zdbAQWq3OaGzAQDB84DxzXmc6XbVKo1JprGkJ7X19IUzPJCzboNdz2KxOg2JgC4x/U2Bh4FKr0Wk06KRna1gieh9HAFmX3nqDs6qLIc4YXPR/LHvnjrWvNssp7U5gMhivz30YIphh2AfyzlEf/NXaXpk1mcthsThGuwIGBgarUmqYLD1cQIHBMBinGDoDmAowMzweR6PVgeVgMJkBQgEcNKtWmRgGmOf4CnjYKXbQDswM2CEQZfyXzdTrYTJjABsGBS6XBXSYG/H4HA6XBYZGrdZAZ9TRRpwIgT6AALIuvfUmdqgU3x3fsnLandMHjq5eveN44eWTRVcvlOW1d85pzEblx+WnxQwclzBkQuJwsZ9xD93OzJMZZblmbH3sEiwKz9c4H4EnPpgTKIAV0avNF76ACFXYfEUuU4HlMBinImwmn6lUdgVtgy3x8+OB4dHBepqPj0KuAvuBNYS2uusydZ38Wh14wYzmhwe2CtbN2Cz4FxcF/OiDEOgPCHjHusBrne2Top2GHtY34K/a6ea9q+FLf38V4i9aMmYWj82dOWgsfCnqf6WyYOmPb1Jk7r1sYCYw5cHM6LTgDTG3K5ZDw5qApWEwNDweOFZYGo3R9vA75zTgkgG7Ar8vMFfwE7ZsjlHAtEABRCnlKij4+fNxTaw1QfR+hQD8HrRak5mxq4YPc2t473GVtB7K8Y51qa2tramp6aHqpM2Tk5MDAwNJq/oeUaFR3b3+9dV7f75v3ByIMIaN+rbHCI/E4saqvy8deXvHOnnvOc3M9qBs1DIILiJYs8ImFhg/vILYfuKDYQIbI/DjgXWByQd8oaFC0TmzcWSJi9O1LmffsNkYCKrqYwhIpdLCwkJ3DApSL9MnP6Z3rIs7YO23MmHPCnyf/+uLEL/AxNCoOHF4TJBE6OuHAQLP0Dppc0lTdWlTTXFDFZw72X+AwtPhwEqV2cIUwGJcsII5jcYY4EWKCfBAABiYJXDeAAMYG6Nzxd6HyWJ2zl26OOEVVaOGt0m6vE7aUx/VIwRchgCyLt1QsjWqSJbxOSLSagYKXHMCTYde26rRyDxy7HyjrA2+5zr3snSPqh+XjF4WvQGWxcCHAu56hcIk8w3UwhoXl8sBGwNed2w5ywwtjUYjEPDBYAAdWyIzY8AvQRSHy4H4ZmiCE6FgXF7jQk5I4xIZ+ngFgQAWW8ThCjpTWvRcgQgOe2BQEMhh6UxudM8l9z0JyLp031NBS92tfIHxWtk+Im5Qd0WPS02QpkXacqqtsVql6LEwJMABBIz7WSDcGGyDlmRtClv+gokFj88FHpVSbTY7AQaY2YBtAU8heFpIOwbrZTRRDPLJDdg3DjSzP+chlY2IziOQ6Os/URScFhDkzzLeARd+bhGPAmlSZZsLZfZJUci6eOK2BnN4s4PD4XupvXlLfVWtWumJXlEfxuUsLTjkAQmYuwDopLtPwHKArx4cJL4CvlajVau1RJeMDbtgjArjQUw4C8wSHj9GRN1ot3gcCCeAWGciHZXdigDYlUVh0QNctPzgVlX7tnBkXbrvL/GZ0k11aSktQDzYL/DrioJr8naXCkbCyBEAa+HTaV1g7mFt8oG1BMMDH19fHkQewxoamASMzu4MDTB6TpgM4syGC4F6XI5GrZXLlNZ+OTChgW0uEK5GrhyiugGBSaKQpeHxsK/LDbKRSMcQ6H3OxrY2aX5BcX1Do2MDpcDtmVBmWMV/Pm7QcH/Y9o4+bkcAZh7YfAVsA18A55+Z7LE36x7WweRy2EWpE/jxIbkL1PL5xs2VGBuUsQL8TiCWDOY6EHAMrn5rpgWYuTwO+GzAbGEN0b/uRmCWWHJ/REIvNS3wZLuSmbN776Fdew5eyy+yjRXs6KipqbPN4/Va2s1dwGwcO3767LlLH77/hhk6x06cOXDoWGNjM0Yfm5525+23+vl1ekrMWJ26TEgYUnTtgo+8w6/H7z1SnVbB5nD9RRqljKlShFh4FB+JTHyvLLcGuWGculMONVIp1J27oDobWQkPIwo07qv3McAkxsCHRGTdr1+wAgZWByYrsAMfZjYKOUxZiO3My2DPYL5jjDTr3P5iXo2uXY3AsADRnWQHHTXAlJMnYPP4mvbWAL1WwOrpQ69ZpdJx+MOShrtqBLA2+/sff586c54oMHVQyoP33+Xv///sXQd8FMX3T3LJtfTeII0QILRQpUlHUYoFRcQKAjasfzvYu/hTsaIoCooFFBBQpPcWOiEhQEgC6b3n7lL/37257O3ttb3LXXIJs5/7JLMzb968eXs3b+e10Th/sk2lpWX7Dx49fOR4ZGTXRxc8wNY7YKG1jLbVlCCKT55OOnAw8VJaOnDqbyO27di7YeMW7nCJx07l5OS98H8L8RbJrbe6PG30HU6j78CZWmsPbEg7vq2LWGYFqpLGhiGjZ0wYNJHbN68kb8WaT4LqteYWZBSZGxb9bgaTq7jtr7FxjFkyKSetpEZQ/pi2p9CGI5LtC9JW4ksllUshPJC7xTR+iBAx4lTUrmJcSCYpmUwMbRvP/YwLQ8oQLRBCKNspaE5/xGu8RiYSPRQazWNCmZf/47Oec5d6cOt/3fZLXvJBL6tkzEVlzaRJ980fMI6LsPXlf7bs4IkW4ExJvbh8xepnnlxA8OOFJulcClZI1JMa/UWy9ZTYFoNt1uVW0nQk8cSf6zbX1mr9qXha08qq6k3/bCOjSp9/CgAAQABJREFUdIuJ8vT0OH3mHG5zcvOx0Zkw/vpWEsDtLnUV3zd2Zm7/Md+teiuc8+rKhTFWLhRLFz2yRL811D900aNLPlzzsV/+FbY1Uuo+2MvveKVmK8bWW1HAMWKjuw9Q1dcn56UfTk8qMnf28O5nvsYo077+v81JB60YrsN1gdUdofPQU+F7JYLeBOYQk9sOJuBZT7Sws25WO6GxtwYLcERGxkyYZLimGoOQtNImHLjJL5S7KQHf+429c0zCWH3ks2+4t3T4zd+seC2It8rog+rWZDi5LFq41MfWzgI1tbU7du4jQ/WIix05fEji8VPnklNRg1ftjMyr0VERKL//0ee5eflcirAz5t46YNkh6LucfoUrWtRs0lFOQZaQzDHe3l5PLZy34KF7Y6IjCTdPnDprD7aG+QYvnPN2Xr1OhITpgbBrMSha2F4vznyuUM7k+GKvcb5BbNm6wr1DJ+d+sHnn01+9PmXee7c++vejSwqX/Hf85Z9Q30G1z9bxwWwvbFnIV8jVzVUqk8Agb6yLq8hFJteYWAzCID0MkBhsQiUEE2PgcRMpFYKiL43hofUWcWCsn85PySdukEHRQnD6efrdO+t5hSWRxZca6l999CObixbQk5OTz1rmsLINHtR/7gN3s3O/mpVDyhBCKDDmQ6m0pdXkK1ILUDv+dwjpgvnL5bLJN4yfPvVGwgv8RLlMybySRW57x/eADh3lfn3jSU1Wdi60llxgW5UDvPx6DJ0sHFv/4VPNAj9z36Jaznc6VubhYdUOnQyEBDA/z3kj1DuAN+6giJ6oP7P4l/7hsbyma/aWsdjXwAjPvC4wmV3ccMSLG/ORaOUEIxhkYpm71KzOAf7NZCfE4ycsLVDBIc1/TbXCoI8yD57e2oQDvd294CzDoipqbr7v5rnsrcFCZHCkcwhfk2YQEpWKxsb7Zz4rc1Of0GAMyNr6uO4xX3/+AfnIZIzkkEolWA8JPvKNRTkkOPC2W25+/+1Fsd2iSBNJ103KjvlXZxFvLxJHDBv83lsvT596A8eEpbN3KSnRnF/i2WLj8vXRJBPDC2lFpb28e2eMnH5ZwbwymL1KmhpvGjbFLJhcIq/jnNmFVSzW2o22h0S2dOYzZMSfj24Z/P6D7k+O6f3mrPt+fGPNiR2o7xPW7fgrK5+beI9Zqq4dACTVh00F84UggV2EyZDv5oa8+vh4eEhhtOfZ8OAPBiGBD7yKeb5hCGRx95AhDBOyCheECvL2AwkEjEKpogqxtvxS8UJbouOHCRn93inzhIAB5rJTc58ucQKBWw9WVVXN6nIgVAjCpxbOnzRhNIwCLH7T2l0WrB0L2hc3uxKRlX2Vi5931gVRLALA2C6krk6joSIbF0ByNRtKhdKpRdhUVVdWVtkyhnZAwoTKC4e5xBsuezDJIYRc8XGDco9rbEiA9xebUsKYQHhT7+G+aj3b4o3L3t3yE4FMyc/E55fE/z7d+duvc99GXsslM56Y0HMwkl2WO+S5XiYmaKcmqMigsEZuGIJf7dmlfe1lB4XpHqlfePsPsuNhN9Z4OYBQccKHc8GMT53EOPxoi6KXbjT++CGThIzqi2P3mpuFWF8mDJ2Wm58rBKdQGEM6LYVSmZWVi/311u17CJ7AAP8+vXsaw2nQbNTQWG+Q1LCQMGN47Fev88Ow3zCqOp08S26uRrXehAb85rnE6EsdvHKyAHWczE5MRJxNk3oF+AQLcatykwh1MIsIieR+T/1FVkqX2MCu4ABOPn6vRbSwDEHhSEZyv3fuWX7vK8jPj7PCzr66+rZlL564ypgKr+UL4gGuxoQD2IswYfmNSKuPOEtGucpYXNyZbPnwAjCYVQxnTeKDHY/65aYZwTFOOMaF8Tx2Yv4wXmYIzodqzFVJty9t+D1z1w1jCvYJFjq4WOIkwLYa6hNUW1sjFKcAOBwqpw9VWFj82RffsfV+vj5zH7zbhOne2ZB3CXQ5cIpkkbRvwSE0Y/osMKv4Zt8f9fvatganrQtBWC84cqVWqaNqQ2YrIfj1YRrUhCEJv6HXIAYcx4thyzL/l/cAg6zJB5//7pHrb0O9jtzWx9t5a5BNkhUtCLGEaQSuycjRwr67kPOMlQrDooVlDA4iU0dowqHQGT9mJnmMqgE5mGurlegL4YSNEZRsZr/DLEJaaCUHoIjkYigoFRpmiDwK3I7Gyu3iVi6RSmRaA74B0vBaY6DWkaraaO/SNTyCO+uSkhLuraGyGcYZs2h5e3nL5fz4I0P4hdat2f2LRvFpske9sIOHgePi1fNcTOXWZlpNK8oGnnCfwB7BERcKdBSPXPzfH9wIH+V1D38YFxzxzewXR8X2n//L+1yAa6TMHDXZEmwP5Rg5qpI7d5xGCUM9JA1PG8aFYct1ynpYaHDwZWMtPI+08l0trBrlcgl2NPBMQ8Ql24UW7MeBigadAKZzGUnBfoK2L2K85gtwqzl9+dj9k+fakH6lQlHsVMxDGBQU8PQTC6AZg4vs4aMnEIr/8WffLHrxKTjK8iDJrcG9i5urOMhPqJbeIFobVraRdJFILHO34GnGWFnCWlbZGvAiwN+P5Qg06paOxfbVL+SWF7lVFDiZ0+OhY4iTU1ZRVle1tkofD7fmyqVT3C9+vsrKBWj3hRN1DfViVzd4Ic/49qXkvAzuKNwymvq/c+83s194cPjUe4ZOTmhD+ySXjPYtQ2FFCMBuQ1+0wDIPN2I1gJnXGoKEyBMovuHko1AouQIGZUUtc+yYq6sLPrDCtO/Er4XR83TTwh47tZsXzmyQCfvO7PUVIFrQtyA9yd2m76xM+ju9CzsV+I+hum+fXpczrkBRVl1dc/DwsZsnT9CDZSoMbo6hSbMtqQaHFljpqJoxXf0NXPTIfNjDM1htBurZhUPgnIWDLfvzMx8BooUgXL3hG7OYd5/cFcxx9VA2NqYK3vTwkMNK//rm5ajsERyZ9OqvW59Y+tWs5+BIxgMjt0hAMGfVO7N/eBVast5hzDf4mrpgbmFVqdh28ObOaMw0ooWJJ5Cos17yYLi3ECok7zIqAQ8Bw/oIEDCiLkMZmyFuR1q2EwfOVes48nhVl1/ONZOnC5Ts2/OnQHrCxZIv//5aILBNwCIjuhA8kDHGEDq+ZsxBpYuucNHuTiorqwmv8cJICj7eXqwjmbHHYF39t9tXd7Vk6fdXVK3893sTY13ISj29dy0XoJWB+jjzeHXif0CIt5gb4q97bMwdxqQLGfS349v7vjX7dNZFLg3XQhlaLzJNmO9hZ+FOGXKC1ZiReuSAwYlhsPBzwdgy4ihhU+Fmw4SAATw3bgbA8BfAX8g0g449LDZasAkHKhvqL9RowxLcXFzW/PFxWZUmjMHgEEt+ejNY0DZV01tx+ezulCMGUbWyctuOPY89+RI+i17TqqzhFULQcl+jeQMZ3LvwYNr31vBPqH1pwug8TwnkayMkIS8CKZB0ZCizTaTeVn8/+evz6qT9lmKrSzvz7bovDPY6lnr0nz8/58VObi7JMwgssBL6mXt/fAOm+32XTinrdbzyjGG4XJwz7KOHnv3zszf/+f6icWuNse4dtN5FfeQoiOeKFrz6kVTHLZNqRionkngfexE4jyF+BYIE4geSAxIIZdQgjhJfTthm4BEAEcIaabCBBgy7XgEP2aOyQ7eMQv/bhQMbi3O4eANErst+WARlNbeSLX/4w2KfSqN7AhaMW4AO49C/K1bv0Xk75AJYXQ4K1ERDl5VXHD12EniwyiWnpBKEXcJDjWFmv2zGANq9vo3sLpbOk8e4hH6916z9G/kSkEH5j7V/d+0avnvvIYJzyOAES5Ebg0ecAg6fP5VyJPfiSU9FlRBziz4ql+yL73zxZGhUfPfI+IHdB2KHnpqRkp55LqC20rNljSO9NhfnlgoTCfqjcGt+P74dH26N6TICCj/d+btpmE7Wym4g2DdBRn7IYHtnvmiQBLDzw9WYnTUs9ghkgX8x9GmsSo20QqJArrD2P1RCSuF0Y6jX8HEROSPBJQnnwljoi3w8WrzsALRgaw5cqq2CJgCJ+1jESEz+9+oP6vxDoiPje8f0DfINSkw5eikjpTrnop8wcwuLihSCxJLas/teO70/InbQ6AFjuoV2xbeDB2PFbXx8Dzgfl5aVo+/Kn9fgwyJBxP6I4UPYW16BcYR37MtBpQt0PVy+Ic3+lJsnkRzJe/cfZpu6x8YMTOjL3ray8NWqt+WVjDNbK3P6w7LSlJF8AZ+WNx1+qhYkQK2u2FSk87bVSuJpdxMcYHUIcLOBAGBCUlp0ZRAVSJLP6wvXL1zYtfCUriqFCunKeMCQJXBHhogCPFRh7u6yekQcsAdc6nyReV3prS05sDI3o4tEFsIxPUoQflRWWFxWuPf0HjISXDusEy0soV1dmpvTj+9NP75J7v9/895g660u4M3k8UfmfPPdyuISnYS2yCf20IOzOelL+CM4/jfLQaWLfgbGGyaOwXvg5n93sHH7PeK6PTL/AT7LW3HPrkGtwCGo68nKsh/z0onfkaAOFKgVHIBJn+0NMzvX0o4kTghVYVu5Bei1ELzi7gHDieZXDO8vfdHCdoFAIqfCAJw7CrZBJPcMC9lpCn2Co9ff/xaiC+Y+9LDZSQ0ePOjVxS8n52fc+vNrZoGtA1A1N32adfGR8NhomS1jEqwjxqJeoaHBr77y7K49B5AaOTsnNyw0BIvb+LGjDIoWtJLkY8FBQmIlLCLExsCOJV1GjxqGj7EpThw/evh1g5F1HwDYzYSFBrO/fGNdLKvneHNZ1lEwNJzE1hZl7S8rEtyDAraKAzCZsC6F2FJyTwODPDAmWsiQ+DpgC4J8YuS2Tp0B0wQ10K3VixqgHyMwJNUYlGMw2KjVZTreBCbw0CarOVBWX/d+ZsqtgeE3B7RD4hOryUZHvIXcOGksPmaR3Dp9slkYBwFwLOlilikQKsQl3CykNQAtb6nW9BXQ50h5ydqiq1X0HFwBvLIJCFe0YOmHHw6Tfl8dUwnDCXPoi7mrEXowtXSBpCEGf9M9oGQj0gWiBbkA8PYDLwDmUEu5BGe9cK01pvHQ1tZwYENRztGKklkhEb3cNbluW4ON9rWaAx1Mulg9TyEdle5eyWpbSKCnz9mcNCFdBMKU1tfB5MjLVyGwLwWzjgPYNLC7FjY4n4liU0sXCBshO1V4fpHRWXcA08RAfmAIyDDkVAYkbpGLDP7KTKYAmViBvGT0ahMOIL7y06sXvV3dYOeX63rTtHL8cJlvTiGjPhme0LWVqDp9dypdtI+4zt3nhDoBXE832aaiXG0DLXVADrCiBYKBDc6HRMGuAgY8BDwKmZOzs8XWMWxxEICLxJgsfuyZkKtfnajfRcgGiO1IC63kADLE7BScc0zgWEP8JMfSMwA8cOhNArtcs2BUunSSRw/Tc4RfCFLuR/uHdfENgissd2LIGXOlND85N/109iVufWctwzGMjZ9X8e32EBjOmmgUc/Nnw6ERFmkOVtNO1F/cjRHkGdnQuIpFjQqt1BGIkIJRDnRQDrSPdIGznbe3XVSi3Mz8HfSRWEr22LiBDwy7+db+Y4Qcy3qlNO/zXWu+2L2mnnNEpqUjOj4860lMVFW6BAuVE+jFSWcHcSUi+i5dbPp3DH5ehkE4m0Fdhnw0Kie+97N+f1rT6TmAZcpOCyDnXOT252L7SBc/9dX+s+/gFLiLpb/Pe2dq31HC5xHpF/q/O56aO2La9G+eSy/utNo/duumr4mCWgzswnEsjU7mtxHICsPyViJxrVVbU9gagwWCn+cgggw0AHb88DeDM6KVNueAXC6PjY21OVpHQ6j98TgaZZQesxz4eMaTRLTgWLD1p/cczUg+lplSoTRwzBGCyHuHRg+P6YuNzoyB45HIcuOjHye8ex/SE5gdpSMCsBot4hbMToEs/biF3oxz5hzbrlOApQTh+mwV9jE4NAwOAmyNwQI5JIYlgMCwZEDqcJVmBjF0lMrC6rIvDq1rUNXHjOhjlmaFnwTAhVVMRDq9rhEOUOnSUR80Ni5zRkwF9Tjk+P/+XGra+gwpciYnDZ9l+9cP3fnbnme/gYAZFzdoe2piR52/Gbo1/ODtIdisXwgvgKmf2EgMYoIckrScB8MC4FRKdEGgDFvDK0D8kMwx7OaJAJDALPTtNKIF8yqsKf/84HpmgkJ0jUgpefAU4Qb9e41wQPtqdo1MuNNMs194rMRVDHP9or+XmRYtvCknZqb8cnQLKofFmH/l5PXtKLfsIs5uVgjlIs5xfmzWff1JwSkArby+BAyOxWx8Ja8jJAvED6nEpocr2IjIwRnLvC70lnKgE3OA7l066sPFKgfSa+oUOLLF0jkgty+6+Mg8LO3YUeBhfieZxJgc+C7OJK0kiIdpnZ2COopeolTU82JZ2BhMpCCD2UZ9NTPpKEUusMuTIyxRQH6XBjQ3NmNfgkHcYKJpyV1GhsBYbA4YN3U2GpyyzI5OC5QDnZ4D2h9bp59qJ5tghtom7yv3mtRzqEUKriBP3zsGjgc34KPcyXjCTqe+vlEi1dxBCQY5gRuIE952hEk66SGClID4gY8y9hvqpGTOjQ1NCFJhjSXoCymDSBk4Fje4YoPCJOHHX0a8G78gboh0wU6Iia9samKFjfFOtIVyoPNwgGrGOuqzzCjJO37lPKhfPffNN6bOG9mtH1KOmJgM3uEHRfR8atxdZxb/EqxOVL7xrMUH2JjA71BNsG+QTH+gCr5e2FVgh6FvRyE0oxXpW6DvUu9snJEdubZWyRUt3KlBFKlbjeq4AKDe9DRCOQac0I/J1CerIicmFw8tUw50eg6YWo86/eQ7+gQf/fXD/c99G+jp+/qUefjUNzYk5aRVqWr15+UulsFOgyNI2Ka3/12Bw2zY285XQIZKiA1cMDrDiAJ5AwEDmQFNF3YwvOPp2OmjVVFrRgwwKfcV9Th5jO1FCpArECEaw73KCcKMTZaMemp04bGL3nZ6DlDp0oEf8fGrqYPff/DdWx6d2ncknGfdRK4DI3qanU+1qvaFdV9+s2+dWciODgCvMLm7Jv0+RAuyv9TWaGxUEDDw72LzGbMzRVJktmyiAFSQJVxDi/45MfWqehxBBiSANOFmZmIU2kQ50KE5QKVLh358Tsl5Gbcue8FX7jmt76ihUb1jAsMQL9nVN9hTqj0CraCyNKMkFzuVS4VZFwqubD+fWGjyyPGOzREO9TC6c7PuwxjDNmITgyO/sOhLZTq+YbC4sDCmC4BkpQtOttQ/gowZu7EJ+jFIF9OoOmjrdRG9Pp36eFVF5bLPl5mdQlRM5J333FVUXXbLqlfNAlOAzsEBKl06w3Msq61adXQLPp1hMjadQ0N9k5tYY1zU101B/CAxvrsHjkDWwEAiCBwfOjQCCf80lRGbCtGSdVbpEuLuF+ju7aJsuJB6wSzTPD08AOwpbvG1MNuBAnR8DlCrfsd/hnQGxjmg6wRsIOoPAqC2BsYSDQpejL1xxDibm8EGaYSTwUyAwUeA9Yc2AUabKAc6HweodOl8z5TOSMsBbCxY7y/dtNFaGOxCWAczmK+0DSZLJEASCZg1ZnxDwJBV2DwZaqF1lAOdnwPtoxkrUF/24G5UVJSXl5c9MFOcHZQDsMC7uDDfc/iPcU0v3OkgEgXhKbCRwM4vxAKPfQsiYyC3TISwAAaeaQIPkuESQ8udngOVlZWZmZn2mGaw+rIHZitwto90wU+u3mwSQStmoz4N0Kp+tFOn5QDM725qT2xXNxcnpdFpQqhIRGLsSBD1whxhafLC0WTQjJkGAx61A3SL0s0kQtp4TXEA+107LYAO9TZDNWPX1Lf6WpwsxAaxwMN0rw7FN8wEpHUhDTKZmHUGMwiKGEniygybikEAUgmPZzutICYGpU2UA47DgfbZuzjO/LmUeBVefdjdk6mpLh3Tawi3yepyTUNDWUN9lrLmeHVZEk0/bjUfW9cRkZXIPgkc2HM0NRqOw0fGMHYQRF9iX4Ijv3jHhSGpDOQKsbgAmLXosB3ZgpTJr2xKb8ZC0oKdOODm4jzQ03eAh2+IRObj6iY3mcnCIhrmB08AfGVNsUW9rkFgKl20D92EeVYLZGHJ3dUVny5S2XCfgPKG+v9K8vaVFcIQbCEaG4PvefZrYHx5/deHM87ZGLVDosP2BbsW7EgQRCmTS+GFrP+siQ8YSz70WmrVFrY9zMOCf5j6KGUDXmdsF7YA0QIhVFuNUdi6TlioUFYp6lR1jQ1dunQxOz1vby8AlygqzUK2HkAmEk30C57gG2xDidJ6qq5BDFS6tN1DxwvUrOCI0T6Bn129AEljk4E9JLLZQ26897rJ18cmIBt/cl764fSkLcmHt5w7jNSMxoYY030gmvw97HL4tLFB27deqVDJ5VLY7SFg5O5SlZJJccwlydXVgJYY0MY8zdAXbU26x69BRMnkMN6IFAoVk/iyU197Ms72WzqPmWKk+XluU5Z8sfSIebhWQ4RLZM9E9PDiJD1qNUqKwEoOUOmiZZyg91ItuJWlMIlscXTvJVdTC1TGTczCcPvJvXY+/WVC1zgCjjRiA7r2wOexMXdcLLj60oav1p/eKwxT54fCNqKmRimRIVO+m3oHIyEJWiCC4dxFjPk8LjCx9jh2DXsX9RaE8RNzdWHPHwMwtG1IAAM82N+oMTCHV2JXBNHSwMkLwENLb+3HgZ5yr4VduyOFtf2GsB9mpI44f/5ibl4BvkLdYqJ6xHUzOJZCocjJzReLxRFdww0COE6lw0kXhE+fSUo+duzUw/PvN8am6uqag4ePQdExYdz1xmCsqPcI7JJVWeLR1ORli2+nqqmxstlJ4tTspafwxYvVwi7d38tMUbRYkq2gFl1+n/cOK1qqlLXn8zNw1ktClzhvmUdccMS6hz9cuusPHFtpYhNj3bgdt5dKUd9Y3wSzPDYx+P4YtN5DVOB4Y4gHfe2ZSp2lDL2g+MJf7FR4efjV2cZg6u/UGjFHffxBYuljXWINipbyhoZ6F+dAwcFMpqdYUFtTWlcf37WfaTCLWo8eO/nnX5trarUpaAcO6Dfn/rvUaVg1mFLOX9y4eevVrBxyH9st+p5ZtwcHB1o0UFsCO5B0qaioPHAo8eChxPKKSp4SnOXIhYtp+w8mnj5zDurw60cNY+ttUpg7hdnm55QXbTuxI+Pkjq4Sbaoui/DXBIRNHD6tT7Tm5MfSqtIdiVszzuz14+zWg8XSe0Mil+ekW4SZC4ycx5N6DUUNUoc99ttHuy6cIK1SVzFORH5r2oIAD5+nxt/VOyz67u9fLa6p4Pa9lsvYauAD+zyx8/NYgdh+Za2Z09gIBlj+ucIJ9n8E7esLJB5+ems/DjwW3k3KpMTWXkXNTQlDbxrVf7SXXBMDdyTl8N5Dm/1qrTT/XFBUd+8/fs6QG8L9g7XDtLp08nTSyp/X8NCcPHXWy8tj5ozppD71QtpXy37kfsHSLmcs+fTrl1940t/Pl9fXQW4dQrpkZF7dsnVXcsoFlnfQQvCunbsP7D9wpLBI66ehc7QsD7oVt+E+gXMm3J07cPzylW+GWfiyU9zUeMutj8dH9eaO7+fpN3PC3YrRt7/xzfOxnLfaIV7+20oLrihquMDCy2O6DyDAU7/6v7SibLajsqEO+Y9XHfn3lckPvnDjfRN7Dk167dd7V7y+88JxFoYWYOdHZAAEDPfdEGxpFKzR4n5FEeoPtzTK1XbkwPU+gWGczK2gRBEU+cqs53gkDYsfjs/u03tO7v5DX6nAA+bdZji7LH7icx+52q2U19aKW/i1/7H2b4LAy9Ojf7/e55JTy8qZ18E9ew+NGz0yMNAf5d/XbCDLY1BQQPfYGLyFo7K2VrHpn20P3ncX6e5ofx1Cuhw6chwM1WUNX7z8tX6zLoB978J8g5946N0vv3sp1I3xZBVy1TY23DP75YjgCIPAMjfJO49/8tbnT0ZwXq9u8gtZlnPZILzZSqi/AIO0x1zRwvaqqVMu2rhs7cmdGx/7GCmTdzz95YdbVy3e+C3sCCyMRYVvb392fLcBF87uzL2arN9RLHEfOekh1I/65omC6nJ9AAesgQYMCfmx/4CxRO0PxtCIE1kgdYifmAmaoVuDWMKvHbH6SNrPvhWZ6EKb7MqBmwNCufjLvQKe1xMtLMC4hLEwvp3fs5atMVtIa6h/84mlUjf+oT5mO5oFyMrKraqqJmDPPvUIhEdZWfmi1z8gNdigQLpkXsliX6wXPjI3IMBPLpNu37kPMKfPJDfcjaOMHGIl503WIcxfkCRwv0no33vEcE2UiUFPHS8vz8k3jAsKDCBzMAjDm15rbv08fXsMnSwcgyyqjzHRQpBgDXtg5rNQ57M4e3t4ixhnV2uuYvUiHuEXjEMnjfU/nX2p71uzNycdAMCLN95/6PnlUf46P0JjHa+deqi5cNYk6+JFXJbZiBZ9PgBAKpdACMHEUl2lROJ9Klr0udTGNZFSuT9n3a9sbHj63ldM0zCq3+hiKfN+JuSCfXTmrQvtIVowOoTH008sIB+IFtT4+vrIZJpk0lXVjOCBdofQ2SU8FKIF5b59epGaurq6/IIiUna0v0YXprYkdOiQAe+9/cqCh+6LiuxKxtW3u8DI/+6bL0+feqNUfY4swPRhbE7zXdfflq5UCEFb1di44LbHzULGhseWStxZMImLKI7Eb7JVgguJmSmAlbiKX578gIlOFcqaaV8/98qGbxqbGodExSe9unrmICYWDBddFgkf8Bc2fISnQNKgTFyWZTIdswqpl0jd3D1kCJtR1DBypTNZ72/vPapXkOFtN8slhy309vDh0uYe0Qthr9wag+U7pzC7bSHXZafmQTF9hEBaAePh4R7XPYZ8SHd4hSkUGodSvFKjsrRUow/w8tTo5dgCWktKSq0Ytw26tNF+qrCogDsZrHTcWzg/kFuSsYPbxJb7940nZc6aqN0EsGC1ihpVXWs9fVlsKHTrMbT5ShK3xmBZKVgb2z1uQPm5gywSOLqcr7HGxngy68LRjOTronu/Pf3hPmExcA+DiqzIiFbq/a0rD6WfXTv/PRyT/Me8d8nobSCe2Wl2iIKiVgUtmUSKH4UzE33pxpiI8Z3EOWCQKOqQSidY75ljjDkb0A4xNdNE3jdw4qvj769U1cxb88HpgiumgR2w1VdXltwwYqoQIvGqt7apMUCAbXVo37GlZSVCcAqEgdnPGKRSqfp701bSijdpmGFQxgaF1Ihcme8kLrFEq7FXKLUrHpZWg6T6+TLGmza+2ki6VFbpLKBm3ywELXxcu2oL21RIid5o9Mm1QFnwPyokOkOAdBELdjCLDut2iiNd/HV/GBZQ5uT04Mq3jr38o4dEftfgSfigb9iLU/IqDf8M9l461e+de/5+dAmOsLRolGsKGL7I+OVD8QXlGNGPQQELwYJ3GthjsMUxsS50UEZBtLw2gdn+VuVdfio4crmzy6H8jI41F09dp//okCiB9De6ip1033QNdowNiSkts+X+AInq9Ae6cjX7w4+/ZOvxvbvrzltkUkZFxr7NsO/WyEfEQnK/k3C9Nkhqu0gXh9CMsWxiC9BOsGVjBRfj9gZjXexXj5VHIHLu1wJdWuP5llpwZdSSBan5mezQmsA/9l63kF9ZOnLJAuxydKvpnQ4H8ANGJD+yxVRV1tZUKxCDWV2lwAc7G+7PWKdPh71hRUt2xplLyXvr6xXzg7qOCNHoEjrKtLi2TNBcIdz/3tAbqoFZt8dWtVfP7gMS+hogRl1lwjRorEvb17fR3iUoIIg7t8rKKu6tobJ56WLwi+Eud5dIbOnXseXYJo19zRCVbF29kjG+Cbky8nReDCsEiyWDyM/kpMW/OWts3KChUfEysaRaZcZKBJ+xp9d+uvLIP3A5S8pJM4jTYOUvp7bvvnzKp7lR7mqAvRCu/21bgY6VSm04mEE8HatS7TxmQAHbsWZhjNrbeo8kuxYiWggYETD4cR3U/aIaQ+II9TDjc8m4lHVpiDoUjFtpsOxcp0KeBoNN3MrLeWndh9zIrWll2eBrClKxTblpIjRjScnnCwuLEaHx2effPf3EfITl6w/H86RnAZAdz9vdUTI8tZF08fLSmTCC7Vl2GCwYlBx8SENAYrGENxa/lyX3CH0vz0oNERtYT3lovOtNHX/LBU5NPcb4hbRcRfh+t+7C4rf74gl8hKM5lXVRODCB3J9h3vhkKU4K374c2J9xLr00V1xRhF0LlxIImHmBXfG+3lFUZMUNOj+iQ6d3C5Eu6XnpQQJECzhzLnnf7Btmc1nUynJFBRPOwrt81NIFlbdOn/zyq+9hkYQj8pHEk6NHDUN6PALMmgy4LsgB/owXGbmg0G0XJVjL+Dr/HVUzJkDr1Rqdkg4PjN8s37RciGgBAqmLy1drPzGOSdOSnnvZR6Hdt0Gdmip8F28WOwWgHLCEA8W1FQ/8/l7G5ZP6nRgBE9xhVGQpVTqLdVPBlRqlmfdXTHnN5u/1J26wJtLFdfOxbQab7FGJfUlstyiCOSPjKgpStfUFBda8zz1bSGpTbQ0Z1yZ/HVS6CAkCYcW4TRihj+TgpROqzHP69cZqmnPTEs8fMdaKemWd4tc//ufKEZzJNRU4bMREF9pEOWBXDuTXVLx16bTIUORHQx1jgxki2EJuVzpNI8+rUxZwdMIeLqJPVrxqusv6vWv9Oe95poHxInt0z5p8I/4ypvuabd22Y89jT76Ez6LX3meBWcUXOWsyUB3jgtbyco17FFf949/SynZ3kIKDShdhksO8bcZqLu9JPvzvhm+QM184Bomz6NB/qw4lab2NuX0rqis+XvZ8sO5O/N/iPC4MLcM5Cz7B6g9zSBfXmIr8xC1NTBp9Lq9gh0crMkua3s5Ck8r4GTO+xVpTCvqKJa44j9JN7X/MRWtFGW8ObkxyGVCuMwRok8ok+MutJ/gB7CLSfpPhz4IcaPo2W3REpSFlsBVk6nTJrC597cJJkcRAaGFwePdv7nyhQ8TBbCnR+SmFNNS/++0LOvPk3KzZ+VvxmX2cCvPFCInsf8tfSs1NNw9qIQQbHo7sL8hlid6InUw6p8ldgvBJ1ERFaUKRCgqLYJJBTdrlTPzFhdBL5I8hZUf720Z2F0unLeRnJMSvzNJxAX+1KGfb/nWKK+ejJDJLu7uLRMm7fz+WtH/SiGlstrGi8qLtx7ZmJx0I1pVVJyvLLiuE+gJYSkkHhcdbBSIWkbbLqdkZ2VagD6iuVpJXDay5CKBFSnz42cnkIuRfQRYWTBPLrtyDcbxobmyWeooRFGnwYBV8W4AZ2cDgbezaJFIqNefroBJruaquAcMh1z7vMEqL2Ai5hTB+GGzFYlcEycDHjHTHiBiDDOHshATMOsFeyLLMhs5BwiGOAcdiMn8bm1SKOoIB3d3UTtLV1QpM2CKqhADn1Fa8dvHkW3EDG1XaL2SXqH7d+4xF97v6jX1jxyoheNoR5lBFyUS/kC6cVGNBKsV7Sx9HFsvRCWM91GmTQN5hZLE8uNHfqt9dnJt08+8fbQiIuGPSPbGhkbaabHx8Dx8f73J1YjHksty2fU9efiFBDoUYSV8SHhYSHBQI0YL6L79ZMXhQ/8RjpwjMiGGDbUWJzfE4qHRhztwwdwnb35jDwmn/Yf0X+VcvIOgIqdV5yVY5UOaL8uKcgxuX8bYwvICvwjrVqo4WVWB+5jaCgOTA7qK+3snDU44XdjbrF0QL4lEwCDJQyrGOq6ULNiPOTs5wHWa+D87OuG2sM6BsRCYxRKsghRhi7KVS7ZYUCz+iI1Ff74RNg6g10gUCAKgQ8F/v0gjXRYg9jVyEaFFhbPUQYjeudCFaUvaYN2zOkJMGR8qADIlMzJqqnUXOcCVCdhD8KmwvW9RPjSdgWNGy/tz+Nx1etJDvHVL2LYqOl3GiIwOdXXKObf3t2FbuFxM/cKsvb7wgluf9vfq9UlVddNygeXcutBoV2xG75vtm34H8xySWnBUtAIB5H5H8BHLmHdO/+PoHlItLSv/btptUwmsZybFI2QH/6mgYHIc+m0sOIVOrqSgJwvIkQLAJwWYCpqRe9WXWxdrWHe5iAn/naMI7Os7vMvie0bJwMysts0tQqFq+MIA3svw2M7IH8LzXFijZiPQCHp7CzVI2YstFcsmAbNDTQpKTs4uzdghd91eEFUPmsQNBhBDxpt6faCnFlqupEfMyMjW2f+sKRMBARcYVLS9u+c6+o7aOZm7vwjrl19mXFAKiI7m9rCh7icVRnh4VFYyGyiYXhMTil5+O7xlH9DH45sRERz61cB68xVj8gHl0wQO+PhrnWzc3N+xaUMNaaFhIxyk41t4F6V6wAwR3uCdn8Jg1e9btjOYEB/f6+/KaWntrf7kCChMrSlbnX2mD30BrudGu/bG8Qr+Et3+8yOsTwqiemHr1+ssIIbIAwjLhqjJy4icUVu7uUmhcYXqpa1GLkQdOQlBbpI/+aEJr1AKAAcYeCNotthuEFmcInfc5EMOqxQDf2KjZ7qCei4FFZe8CBMyii8e/7TcBA2HX0oFEC+HMhZqqNy+fmxfeLVbuoKYIY08Q697Cx+YaayX1yFwJGZOecVUiEXcJD9M3zpnu3vatjiVdEE+Ej2kuREZ0MQ1gdWvLImU1AjMdi+tUK/MyLtRqPZLNdLhWmz095Zg6Hgcy5HN5ABsJPqQJR3Vxm1CGAQMv/s0wnqgvmEDwv6lFmQZJxDxfRp44G5BXGkml3S4QJFb8xYsnTldGqL9+Xx52nlqMhYfxHtIFBiS2pi0L+bVV9695/74Bk746vKGj7Fq4/CltqFty9fxI78AZQV3cdTPEcME6aBlhLsh32VGIdyzp0r5caxRL8tRBvzKxtLCqzIbElNarjlSWpFTrJFuzIX4eKm+pO6L3+3eJZVU95bVVey6ePJN9qUOsF9VVtfDT9vSS8eS9SokkYPVYvmHDYPVOZO5YjvHDq+GsyA1MDmOnphZtkoQxeCBIoLHO2RlGkZpqRh+FvRH+QmWGvQXkDqOIa/Ulk4thENLsptTYMAt2CNaGhBYQbHCDArmI9P7t+KSQV/vLwxtazYl2QwDmHygvOlZZ2tfDe4iXn21ljKertKqG8X0I9Ahptxl2kIGpdNE+qFrfkI1XLuC+p3fQ6nOHtQ0dpBTpF/LQyOmT44cNiuxpMAkbjoTZmXps3ek9607tsfoYsbZhBtZ64nylTnSvHRMLB7NYE5VWSzXjDyYhnlfaNRk+Vy3tzH94/TbUMzXoDqELFRlCWSFOCDb1X5eWbQ+3n2VlmOJBIWjmUsgdgivAoECDFwB3AEDK3aWgvJ5jjOEC0LJwDsA74nhlKT7CuwiBHOIXfezcGUC+Hqc1igjpeA3CUOnSGR56TEDYktufuH3AOHYyybnpW5IP19Rp0o5F+4fdmjAmwMOHZFPOLS96+98V3+5fr12M2Z4OU4B0gZeU2sbGUynxSGyWyaX1dfWs2YPXTG6xaYBPV6OiXu0uzEgV1EMGYCkXi+HT1YS1vpVrOrN/Eok03mscIqCvY4cgEo4ZmrG/aKz9LCxkJEhStbgys/W0QDnQETnQPtIFfg7webAHv7jvjPbA74A4n5kw66Pbn3BVO2LmlBd9uvO3dad2Z+gGl4Fs0SqXcT0GzRo8ac6IqWE+gd/MfvGB4VNu+eZ52+oAW8kfrPlQXqlXfmRGb8a6zHgYMzEuTsxxxIY2Fy5ql2WA4VQvZvTmZn2TDKqR9hinZbh7SICGa0hXKuDpi3oZ40nMMcUzqCy8EBYJxzOZ2t6DrvWqerJ/QmwNojUxBBR6xKMarQbVYthgYfvCYsAeiOvUgO4tej4LKaPgDsYBLFN2WgAdyoWsfaRLsPpysCfeIcn5dvZLC66/FaRD0/XKhq8/3fm7MZUX7N07Uo/h8+6WH3+4bzEkzbDoPidfWTXuk8cuFWU5zuTZIESQpFRqFUfwyjVIJIQQt4tBGHUlQka02LRgzU7Cumt7GCvxlHhcMH2BB0nZoJcEiKco42JA2XQrD5jeOjIHvLy8+vXr58gU2oQ2Hf9Im2CkSNqMA29OnU9Ey9XS/KEfzFmyfbUx0cIlCduaCZ89jrOQ8Zoc7hO45YlPAxwmZTeXzs5dZrZohrZinXvWdHbXFAeodOmoj3tq35GvqQ8GT8xMHvje/RYl1YfNAWch3/X9IgiYboFdNjz6kYi4x3ZUZlC6KQcoBxyOA1S6ONwjEUKQj8zjx/tfBSScjKHaKqmxxtd57cldL6z7EkhGduu/ZMYTQsalMJQDlAOUAwI5QKWLQEY5FtjTE2bBAay+sWHm8ldq67Uhh3BKnjdy+tKZz8wecgOXYmxN9jz79ebH/od6Yv8nrR/vWL3p7H6Unxp/V4/gCG4XWqYcoBygHGgNB9rHqt8aimlfNxfRk+Nmgg8/Hd58sVBjkIf8WDrz2cfGzCBec69Vf8dllK/cc0z3gaiZ0nckHMzuWfHa3kuaHKvP/rl0at9RiI95ZfKDD6x8i9ur7cuIY2F9aeAkRpJusWRAj4ck9sgSBEcvJghS90ITvMtwkWp4XjFuYOpMl6QGfmUIc+E5hjHZuJEHjBsc4+yExIKkC0bkwbNjgs9Iq4w4SYRtNnIsKPAcc5W4wnWNiYg05PGNVJUsElKA1zWwwaGZF6WE4E94uDEZ+ok7XEu3Jhw0zSW4pZ7+pxxwKA7QvYtDPQ5BxNzSf7SvnMmX89nO39kO/7vjqcfH3kFEC1vJFvzctfl1YMnf+uTS/uGxpDWtKHtTErN9uXPQBA/LDx1gh7BJAQkfNblemINeXN09pNy4SYTBIyLEoDEc669UKmYPSkEvCCF1pjLNAg85AQDUsHQCGFHx7p7wZBaxlShgNccZLdwa/TKwkSzITQ2NTMqZFkmHcWXuEqSfgeswonD0O7I1IA9pm8kt96khiyrOm2HBuAVwRsONluG4rbRMOeBoHKDSxdGeiHl6bu4zEkDnci+n5GcS6MERPaHaQhkhId/t3zD1q2dXHfmXNJG/uRXFEz9bCF/kUrWFRuIq/vB2bfLw1YlbASZzk4yI6cvt1V5lBIVgzwFHYXgbY6tCyGCWY3WsotrxV2d9xVqPbQTCQXh7BazFrPs/xI+zbvpkBOxjFDYAhZ0sJByySaKeIcNIBIwarTMoQQAm9j2gjSUSZKAXmiAzSMpbFjMpEMxMN3X4C0sAkiWjjL8QnwQGGxd0wR6O3KIMzAyMOgCIh5beUg44GgeodHG0J2KenuExfQB0II1JR0EuJIAhBfgZP/zrB/+cO3SlNL+lkflfrVLsvHB88cZvJy5diLUYNTfGDwv10hx1sfeiRkvWL7w7t1e7l0Eq68uG0yextqrziYnIFFjyoGuCEgzbBR2ZgxighiZXN803HAdwMXHyHAjmuBf00ruYnQRzECQHVB/GhQl7JNUQatjukDIkFru1go4O4kWvK62gHLhWOEC//R3vSYd6B4Doy0U5LOmDInqijFSVn+3S6srYVm4BjsvIM0ZqRnbTxHMVVJUWqbN2RvmHcoHbsYy1GwnGIRvI+zsowUrtxuxfXHDUI9GeEfKwyEOVBCMHc9uy4pMmiBzmREv1ha4wY5Cy6b+wxGCjI5FIPKA0M3IcsgvJuKxGxJNCrNRBI8DoRTlwzXKASpeO9+iJdYTNIYYJBHoyR90k5V5WNagXWZNzOnk1lbRH+GmTvJJ8MFzzjEkc9m309JJ7ebsjnyO0TOzhWliooRNCmmSErKst/5qtg0Tiakx/BelC1FMwsTBpZNBD08kU/UjcglzLtbVKBNjDzGMKlG0zJkXUOZhZKFqgHLimOGDYfnhNsaDDTRaKeJGLSC7WGo0bmpi3cjgoC5mLosWDmeuhJBMzp6FwnZWFoLITTHVlLYzbSIfP3QcgOTLZxxCvMBg1SCtcxXD+PKObQpp7kQvMFFyqIJzUFhcnRkppbOLcdgNlNRQjhaA3M2g4QROaMZqmM2cfg+zN7PuaWsGmQ4yBwWgV5UDn5QD7W+i8U+x0M6tQMMdLhLRYTVDOKM7D3wFd4yQ499vcNSQynoBkluSSAnRBRNtWXFNurndbtGPthj2fK1owKkQL4z2svtQLNyMAmE2JOvmxWOoGSQA9GOs2hlZAE+UYXAOM7W8IQu5fiKuWW2JcYQbiXaCNFSMQ0qz6DhKQlWEQNBxHZR4Ceks50Pk5wP6Q2nSqperLHkOGhYXJ5czJhp34yizJgyqsfxetBX7D6b2Teg2Fm/IHtz7+zJ+fmZj7hB6D724JtNyXdppAdg/qCocxlNOLNPLGBIb2aoKcgJ4KthP4azHZgtUXN4WlXM6k60cNl0L0ksrEjY2w3rdsNbjNhspMfIlUjJSX8EtWx8FoOsLqgzRuxGgPn2Po3OApwOwjXV2USo13ABwHZHJGziFzM3BjXMZHgF6UA7ocqK2tzc21y2/NT33pjtZud+0jXZRKZUVFhT0mHRgYaA+0DoXz+NXzQ6Li4T0MkUDUXCsObXrlpgcRyIIY/r7h3b7a+yfcwEprtelhADk2biDC+NkzYP46tZvNvQ//MTJBYG7fmWLthjwwSANUW1jMYYzBRkHBRFOaumBiAR5i44cLL5FGOLkLwoDXjZFGur4AEFGIjEHCfERzcgeC74BzvRMOuAQGSDA4TAMMMgvOxywCaO3gX4CQFxyKqVSqTIgWZlxDcscgkYRmhjM6opM3FXrbYTgAT3Y7LYAO9W7dPtKlw3wLHJLQjWf2Pzp6hrtENnPQhJXquBZlQ92DK9/a/tQXoHdCzyH4oHA+P7OwqhQFT4k8oWsc18qSX1ny7FrtFoc4NJfVVh66fLZ9Z4xl2lg+fKzUWMfxMUYh7PDcJhYPm7ofC7p+Ent9jRlDg+6RkQRtTY0OfkgsXg0BA0J9nFzCWDD9StQYJJJAsjMy2JFWUg44GgeodNE+EXlZ/nSpDPcyRWVoJOPj2/qruqGhvKEuW6U4UVWqYPQzNrhwRkteRTEsJe/e8ii2IIhlAVJUzv7h1S9nPc/6ffUKicJHf7x9l04h48vVsgLSNLHnkH7quP2Vh/+tE+YXoI+T1lAOOCAHPF1dB3v6hYplPm5ucpFt1jpPV+mYgUxSJbnCLtoXB2Sj1STZhuNWD+9QHV3r60LJV7CxwUfuaVva7g+NwhHf/5Tk5ig1pxFbjR/a/9c3Lf/u3pehCsPpYff8+DpB9dvx7VtTjr41bcHk3sNiAsJ5apkqZS3C+5fu+mPNiR2sfgUaM2QnQ3e0vvffT1aTRDtSDjgUB3p7eE/0DcZfe1AVKmYCACqbjG6j7TFoR8RJpUvbPbXBXn747C8v/DnvSitH/fHw5vmjboH1ZfbQG49dSfls1x8EIWwtC//4GGWxyBW2ehIHU9dQn16ck1/JaMl414r7F8eHRqPy//5cWlTtEA5jPArpLeWARRyQiUTzw2L6ePhY1IsC24MDVLrYg6umcF7vExQsln2RdVGlZ2E21U23DduXmd8vOvXKKuyxPr3zGZgKlu7WCBgCCB1Xcl6GEz5GLnj3fnrn07MGT0L7z0e3LD/4txFAWk050GE44OcqfjoiLqS9k7HalV+lZeVVVdXhYSFsCj67Dtca5I4oXWpqao8knpwwbhRvYpVV1UeOHM+4klVbq/D28pww/vrIiC48mNbcNojc4P3Tkoe2NZjM9I2Te+L16svsNDNwJpvhl3zrshd2PP0lQjw+m/nMsJg+D69+v1JZa7KTpjHI0/fnB9+4If463O+6cHzuqneE9KIwlAOOzAGJi8tTbSVaapC+1MWWi2ddXd2+A0dOnT6XnZMLrxCsbLffenP32Bguw88lp/65fnNhYTEqke771umTx44ewQVwtLLojTfeaHuaqiB8q5mQQN518VL6hk1bfvntr+SUC1NumshtPXj42Odffn8+9VJBQVFpaVluXsHBQ4menh48AQNvb6lUG8TOxWC2PKTPiMDuA6o9fLJqKlxqKl2tTUFY0OzkGRUf13/0xEn3eoZ1qxbLcqor5C0R8oSMYIkMxo+LtVVmqTIBgFSVSTlptyWMgYDpE9bt/mE319YpcVolP1cwBwW2LADb8MhH/brEonpHauJty16EyxkHxL7FkBzGo5deduVAvZtzSbAt1z67Umsr5PPDusW565hLoR5Q+AWH9xgyeMSUoSOnK6QehY315ZWlcmuDkMrr6/LlvqE9ho0dN/PmUTcjaal1xKtUKoT8sX3x3vzRJ18dP3GmvLyCpKKoqKg8cvREYIB/eLgm9d+ZpJRl363EmzfphVAqLJKQQz17MD9k9vJUX+xt+xa0qV7bkg5EEuXlMeHl5MJe5PDR4/sPHiViGZV4bF9+9l5Lu9OVq9kffvwle8stLHrpqfAwbe7F2NhYb28bmPI2Htt26cB6Lwv9TBRNjT5xg++/eS6XQlI+lXb67w1fh6sTrpCa+qamRZfPlgvIDKaPjVszNCoeG5G4lpMlkcty49n9RzOSUwsy0wqzs8og7JwCPXx6hkQirgWhlDD4ozvyv3+wddVrm74zIYq4o9iqnHC0tU4NtqKkE+OplTtf7GvlO1YHZUtPudezkT24xOc7uTx493NdA7tyK0n589+XyAqv6tebrsmrrxtz00Nj4oeaBhPSimCXtDSt6uKnn/9IPKbJUx4aGpyXp/HnxIvyu2+9JJNKsbN57c2PIISAPDoqwtvb6/SZc2SgNxY/FxQUwA4aGhqKiHL2tn0LDvGCs37jFmxEdBnBujUx1f9t201au4SHzpt7T2lp+Xc//IxoNVQeOXpyxm1TSKsN/04fckOit/+Bf773tETA9Btz59gB4wySMSA2wW/O66tXvh3YkqwFId03+Yf+VmDxt5yHPzEzpfdbdz8x7s6nx89CYkpYYrA7wYcHxt7CZvPnyV1vbF5+odVDsziFF9LjxMKBKaR1HGg0c/iZdVgdutetQcw7E3sVOru8+sRS9pZXeHLW8z9uXt6QbkF0V16d8p57F3cLieShav0t9DjYtRA89949Y8TwIZfS0j/9nDlbFlHnUOf07xufnHKRiBYvT4+nFs6DWgwAAAPMvgOH77h9WuvJsAcGh5AuZGJyuSw0JPhyeiZukYyDnS3kdtK58+T2phsnBAUG4AONJKlk5TwLb6vC0LhBR5OPOmVphjaLttzLz5hoIX0j/cOHj70r7cA6FtVgb//WSxdgg8D4dOfvOKoSppSHRkyfMXAcN3aSHS67rPDb/eu/P/i3Qf8xFsyuhUpf7ZO160AU+bXDAT83SYzMg50vTp27/54X2FuDhTlT57+z9IlgZ4ONBir7Xn+bPUQLRko5f5Fow6QSyXVDmUgaLG7IAo54fpSLi0vw99JlRpDg6h3fA6IFheHXDSLSBeJH3eKIfxxCukRHdo3vGdevby+oGol04cZqwEeCcB/8Cw/XJI13d9ckE8MRgvbj63033vf5V8+ECnBBqWtqmjvjSbOUjBs47sCBdZo5IIpe5Boldc9U1pjtKAQA2z3Eu+CDXJZQf3X1DcJfb5nH1dL8jJJcZLrEOS5C8FAYyoGOxYH+unEtKr8Qgwox3qRGXn8791WP18q9TVLUfn6dUWUAF9KKsr+/H7Exe3i4a49SFeGsPIKMEYCVlYxODBer9vf11bhc5+blkyYH/NtG0qWysoI7eVZakEpsBklBmwYKPrYtV0hw0Neff9Byp/lfVqYJzvDz8+U21dWpeGNxWy0tw2bnieMai7PNdixzk/h7ao56NA3cNaZ/fbpmIwzILlK5raQLOy5OeUEaGHzYGlqgHOjEHAjhnEaBaY65TpCqHK96x/es8Wk5WtsEf3r2HFpTa5tXQDJKA8faGtstCh/u6EXFJUTtj8pgtU2FXTChKyOQUimTdhYX0u7V1Na6t6TuBaRBUnFcEoFvy79tJF0Kiwu5s3JrsT1wK7ll00fG5hcUXrh4mcAPGtCP2xGcrfs7XZMAAEAASURBVKjSkWTcVivKvaMHXBEgXaTuXgKR94rpc5YjXQLV+1yBfSkY5QDlgD4HvHTXk0FxA/RhDNao8OsTEHY2IDohL9+WKY3d3ExZH3fvPUio9fH26tUzDmVWVUNUO6hRp/3WzKmhXuuHWd9QZ5DU2BhtSnVNN/v/w9u5I17GTm0CrTha44+1fxOiu3YJ69O7p10ngLN2heBnXy7MAkt0v1gig5lyzWKhAJQDlAMtHOD5PVbWVLa0mPvPntJjErAtT9VLz7iyd99hQs4t0ybjqG+UY6IiSE1Wdu6uPQeqq2v+2bKDJZlYYthbxym00d7Fy1Pn1R5Jzs2wQKsY4wNu2bqL3bjcOWM610IDUByHLhdpTDL8nlbdZ6dcEdKvTiE0ciVDN36+giaOFMJfCkM5YJwDlbo/ootZF4f0EuQ37FynchLw+lhQmhceYFM3XyPrG8TG8hWrybl50dERxMiPeSck9Nn0z7byCkZq/rluMz5cZrBaMlTCciOxNuCPi9Mm5TaSLkGBwVxyzZ6c4+xi2JkDDhKb/91OUE2aOIanr0S9XObOGr64I1pdzrl0LECAU7K3YOeC8+cTAznUFOH7TS/KAcqBVnCguEHnR3To9G4h0iU9Lz1IgGgBXafO7pg62pZevwYPd4H+A6IFcZQYUSaTzptzD8sShLwsmHff0i+Xs+/liHEh0YEw73PfsF1FbmEhNhWELBGWFxxVM2Zox1pWXrF8xS9kjjHRkdOn3GD5fC3r8ceOX4WIFiCVIvxzzf/MYk/Pveyn0poHsaNPrbGllcgsARSAcqDzcSBF19TaVHClVqWJaTcx2T82LTfRym0Kbmo6fek0t8YeZbw3EydjIJ9z/yxfH52o8KjIrq++8uy0KTck9O/98Lz7hgxKIDQgBNAexNgEp4NKF5wXyJserFjfLl9FEiHg+PQ5D8xivfd4kLa6zS7OzU7abwG2vMuJ54+YgFfWKX79439cQ0tyTYVSgFHRBE7aRDlAOYBQxwL1KUeEFR4uov/9sNg0W9bvXRug1Lj5moZEKxQpmzd/h1zjZiGtBkhJvcjGjI8bM9KgOdnP1+emG8cveOg+RL0gswkZK74XY/Z3zMtBpYt+Ap91G/69mpVDmDjjtqn+uo7INmfuxZyLK35+26JMMBJn0cH/Vh5K0vh78EiqqK74eNnzwbo78X+LtelwePD0lnKAckA4B7aU6PyUQhrq3/3WaEDlmp2/FZ/ZJxw5IPHL/WDZ86XVZRb1EghcUlr2w4+/EuAuXcJuu+Um0x137NpfWckYemFxGTpYqIOcaZz2aG0ju4ulpCPZIrfL2aQU1kuvR1y30aOGcVttW75alLP9wPrazBTNSWKWYPcQuSbv/v1Y0v5JI6bFR/UmXYvKi7Yf25qddCBY12/yZGXZZYXQtydLqKCwlAPXHAcOVZRM9AtB9Bg78yCV4r2ljycMvWl0wliPlkj+wymH9x7c6G/V7y60qfHH5a/4dRtw781zzMZUsGSYLUAr8933PysUmkCWsNDgrdv3sL0kEvHE8aPJLazOqRcuIZMv8i6Smtl33Q4LDQvsaAUHlS48vdiaPzeyjIPD2GNPvsTeovDS809EdA3n1lhXXrfnj9Tkw34NDSJnZ6nuJsMihPLinIMbl+1uaoJFRdrc7KlG5asrWgrrVKvyMyxCS4EpBygHTHBgWc7lRdHxMk4SqUBnl5xjW387trW8saHe2TlQ3SQo5tnIMFBmNGQmffX5k7Uukn4Dxkwdc5sRQAuqs3Py4GfMdmDTWZIaLy9PVrrAKsNqzxCzcffM2wYP6s92dMBCx9CM1Tdow4X0mUgc+PTrLa3Jzjwf2NgI0WJpR4PwYheXQBcXIlp4ACX1qi+zLtY2NvLq6S3lAOWA1RworFN+k5VmsLuPyJWIFoOtlla6uwJb44VLZyztaBN4pCMbPmzw64ueGzlCkNe1TQa1Dolj7V1wWAtJucP14MbEJk0Yzbri6c8TEa36ldbU2EiumB46saJkdf4V5Oo3DUZbKQcoByzlQGpt5TsZyU91jfPUVRVYiqct4eFb/PQTC4yN6Oqqjea+bsjAIYMTAvz99M3Sxrq3b73DSRfeaWCEO+ze0K7MstUeyBiRxXWqlXkZF1p3Ypgx5LSecoByABy4qqx9Lf3cJL/gcX7BXC2ZwzIHsSxx3WOEkBcQ4CcEzHFgHEu6tC9fuEFJtqKkpqGhrKEuW1V7pLIkpZqJk6IX5QDlgF05UNPYsKEoZ0tJfl8P76FefsFiqY+buENIGruype2RU+mi5XllUMSqXMbS3jM4cvWxrdoGWqIcoBzoaBzAKS/HK0vxsS3hQ/yij51jLC6vz3rMtpg7HzYHtep3PkbTGVEOUA5QDlxTHKDS5Zp63HSylAOUA5QDbcSB9tGMhYSEBAZycznabLauAs4CstlgFBHlAOUA5YDlHPDy8urXr5/l/cz3sHd+LPMUcCDaR7rAo66jONVxeNWRit5S9zsGju/qp01NjXM/d184cfDyGV6kakeaFaWVcqBTcAAORG5ubp1iKqYm0T7SxRRFtK11HAjx8vvwtoV3D7nBTf/ggGlOV0vzl2z/5as9f1IZY4LNMlfxLb1H8gD2pZ/NrSrhVk6PHyF30xxAS+rP5WeeK6ApGLhMouVrlwNUunSqZ98nLGbvs8v8jB/DHOEX8sVdz03oMWTGdy/xTvTrVIxo3WS8pPK3b5jLw/Hwuk940uXFMbOCPHy5YF8cWkelC5chtHwtc4BKl87z9D0kss2P/w+iRdVQt2TbL5uTDh6/cr6xuQkzdHMRRfqHxodGPzNh1ti4QbcmjHlj6vzXNn3XeSZv05nglITiwnQeSv1kgdWluS61OklzxY12TNLOo4feUg44OAeodHHwB2QBec9NuifSLxSnUIz4aP7JrAvcnvVNjWlF2fhsPLv/9SkPQbS8dOP9n+78rYwmDuCyqaUsF7kkJeocLosWPz3/ypzUQ1fqFC2dmP8+MhslJeIipWXKgY7JAb1fTMecBqUaHLilH5Op+8NtP/NEC485b/7zQ1FVGawy43sM5jXRW8oBygHKAVtxgEoXW3Gy/fEQc8uJK6lmSUnOY9Q+3QJtcGyB2bEoAOUA5cC1yQEqXTrPc69WH/4a4m0m1R0OGOgRHIlp16g0BxZ1HhbQmVAOUA44DAeodHGYR9FqQk6pbS0Lx94JlycTyN6ctiDUOwAAJ6+a3+WYwEObKAcoBygHTHCAShcTzOlgTSsP/wuK+4R1O/nKqvE9BvFOj0aTj8zjtZvnvnrzXJQvFlxNzEzpYDOk5FIOUA50HA5Qn7GO86zMUbo9NRFOxm9NW9AtsMvOp7+qVtWeyrrYpPZIRldvqUdC1ziCo6Gp8YGVbxJnZXNYaTvlAOUA5YA1HKDSxRquOWyft/9dgVwv39z9YlxwhIdEfn1sgj6pJTUVD/z05pGMZP0mWkM5QDlAOWArDrSPdKlSX7aaAxePv7+/RKKTnIPbei2Ud1040eONmcOie18X1adHSERcUARs+P4e3qn5mcm56fvTzvx6bCux/18L3LBujjWNjYOvn8Xr+9fOn3k1kf0n+Eo9uJW/JO3h3tIy5YBBDqhUqpISnaxCBsGsqPRUX1Z0tEeXdpMueXl59piPu7v7NS5dCFexNaG7E6u/YEhv4OkdxOte7wRvO51L6u7rqZsJpsGlfX5QOmTRG4fngFKptNMCiKlDvjgIA+iPwUEeBCXDgThQqax9ddsKHkGphVd5NR/u/V0/iyUPht5SDlyzHKDSRfvoxTXlg9zEuA+sV0wLDNM22LN0RVF7trrcniNQ3BZzQNFQ9/uZ3Wa7bUw5ZBaGArQBB4Z6+Qe3lT48XCYPiYnGpCR1tW0wtQ49BJUu2scnqa4YLFbbbFSKyIA2imPfV1ZIpYv2GdAS5YDlHBjq5dfP08fyflb2GBgdg56V9VS6mGEgjXcxwyDaTDlAOUA5QDlgBQeodLGCabQL5QDlAOUA5YAZDjioZiwrO7drF77lo6Ki8tCRY5lXspVKVVBQwIRxo0KC+Y49ZqZ7zTRfF9W7pk5xLpfJVsle3QLC04tz6KmULENogXLAQThQV1e378CRU6fPZefk1tc3REZ0mXHblNhujIGHvQoKitb+tSn1YlpTUxMOTh48sN+M26bK5TIWwNEKzs3N7bDa5ObmGnTIg9hIPH7qwMGj2Tl5X3/+AZdZRxJPrP5tXWNjI1vp4uIy847po0cNY2tQiI2N9fb25tYILyOC/Vza6dOXThZkXfSrsz7DY0GzU0hUfPfIXgPiBl7Jz0zNTLmcnuRfW2mQEthdfsm/YrDJikqcErb45rl3DZ6IGJe/z+y7ddkLXCTHX/4pNrDLulN7Xlz/ZRF1JeCyhpY7MgcWdulu0O6iamqq8w+JjoiPj+kd7BdyPCXxQua5yuy0AJHI6uleaXSKCI8b0mdY3x4DXPUPFxeGt6KiIi0tjYWtrKr+ZOmywsJitgYFV1fX/3v6EYgZUpmeceWzL5Y3NDRwYQL8/V58fqG7XJtXMDQ0NCyM/17O7dKWZUfZu+Tk5u/dd+jYidMqVR3m7+ysE1tw8nTSql/W8vgCAf77mg1RkV0jutrGAu/qIkqIG4RPbZ3y47Wfhpbk8kY0e6toavSJG4z1nYXsG9MPH6fxs06lnf57w9fhxGuAbbZpQeTssv6Rj6b0HUmw6rJQM5K3zGPOiKmjuyeM/eTR7PIim45PkVEOOBAHCpxFD9zzQtfArixNE4fcgA9uv1zzscTyV7qahgZVVPw7tz/BIrRVYd2Gf1jREhoanJdXAMwQJD+u/P3VV54RiURY6376+Q8iWrA2+vn5lJQwh6IWl5T+t3U3djm2osS2eBzC7rJx87Z3P/jswKFEIlowQ5502bvvMJl2XPeYt157Yc4Ds7BxITWHjxy3LUeATS6WvnbPy9Je11mKud+YO+/niBZu9wGxCXPmvF7UUM+ttG35weFTiGjZnHRg4Hv3z/r+VR7+5//64sOtq6qUtUhE9ttD7/Ba6S3lQKfhQL6T8+InPuOKFu7UFs58zi2mP7fGbLm2sSFuzIwX7SBasHFJPHaKEHDv3TNeffmZB+6dSW4Li4rTLmegnJtXUFxcSirvu+cOrIEx0ZHkFnsaUnDAvw4hXaqrqwlrPD01eTVY4UHqr1zNJgXowQIC/IYMSugeG0Nq8gsKScHmf++bdG+uhwVujuVefmMHjDNBRqR/+PCxd5kAaGXTg8OnAsOhy2enf/0c8lcq6lU8hLsvnnhpw9fjP30M9aNi+yd06c4DoLeUA52AA6qmxgfvft70RB6cOg8abOFXc0zfmwdNFA4vHDLlvOaQcqlEct3Qgeg4eFACuwBCqYMamJxZhFj98PLdr288qamsqmKbHK3gEJoxmUw6dvSIkSOGZGZmrf59HXikoxdzcvrs47d4jPPy0sghriWGB9P62/umP7Lh53c8BWhX65qaHprxlNkRxw0cd/Dg+mD72LoSujLS4n87fjX9qzl+NfV01kXkSx7dfcDp7EtmaaYAlAMdiwMqvxBjuxbuREZef1vagfXcGmPlNEXN6zfNNdbaynoovsi7sr+/L8rAJhK5SKWS2loFymSpEIvd2FGIXkfUoryRSaVsk6MV2ki6NDbqGKOanXQWwNtuuZnw5XK60F1eVpbGKMJzGwNm3lit4Xikb3CxWOqpS7xBhGVuEj9PM4dCko5dovvVp58xiKSVlS7OzE60qLrMLB4YlgAjFmm/sma7UADKgY7CgTHXCbJDjBs4/vietT6u5tdAj7BuEpGrDRcWri8V9iL4cHlbVlZORAsqg4OYg/66dAlzc3WtV5v0T59NHtC/z9lz50kXnl8ZKg3SKRLwikwQ2vCvec7aZLCMKxlcPG6uZtY15xbJzO2F8o5d+2CbgQqSVYiNGT2cC1NeXlZcYktj9eiESVkntnCHMFiWyIVmjouNiDtvH+mSX1kSExB+Q6/rkAjZIJGkMtwncFhMH5Szy+2lVDQxOm2iHLA3B+IjewgcQsUsRDpvugY7ju83nreCGQQTXummzjhlDH7bjr2kSSIR9+rZHWVsUO6dfcePq35HecVPv8GqT8wwPt5eN04aS4DJX1Wd0iCpsTEMnja+2ki6WDorg/5OQLJj1/7KSo2eER7fM2dMCw8LtRS5RfBiN0EbT2PiUH8sPy9//Uqb1OxMPRYzKvzlyQ8k52X8fny7QZxBnr4/3v8qdjk4VWzXheMGYWgl5UCH5oBc91gEE3NxxiqvZ57Uh5e4ivUr7VQDKz0CXwjy8WNHEV0ZbocMTriUlg7XJ/iPsRb+RxY84O3tZSdKWo+2jaQLyyNCMc8lTH8aznzLiwaE2xGaR5leJBGsYSIn653Z9SmpVmg8DvSbuDWqWkFg6JJdmM3taMPy+/+tnD3kRneJ7LeH3l580xyoyM7nZxZWaRRlXlL3ETH9hkbFEx5+uvM3tsmGNFBUlAPtzoELWak9uvYUQkZzPVTEPCOvgX41yhp/3aMWDABZUiXCKmXoqqqq/vb7n4neDGKDuy+BYy1EC6/Tl9+seGrhPO4btrOzSyuCeXjoW3vbRtIlOlLj4kXoRTSlacKdXQw/8vfffgWiO+1y5urf/ioqLvl+xep5c+8ZmNCXxebt5WN1NCWLhFv4bt3/YkSMPcP0JVPWmAZgW5MuJNrpZSOjJG/0/x5Z/8iHEX4hvcMYho+NG8SOyy18suNXeCdza2iZcqDTcODg6T1CpEtFTYUftGKGVxodZuw/vnnxwx/pVLXuBtGUBU5MUAv3wsr2/Y+/QsCgElaWxx+ZIxZr9kyILv9v2y4CPH/uvdHREev//vfY8dPV1TW//bHhuWceZfGI3cSOE01pft1k6W7LAnePwhsXuxNEvYwYPoTUb9u+hwdgw9tjaafDnc2rZTGip0i0ZiejFTV91apqnIvNSFbTGEy3nsy60Oet2S+t/yoxM1mpt+W/Upr3a+LW4R899H9/fS5oVqYHo62UAw7JgYK0s0Lo+nnzcjdjKnjd/r7KmsIyuxspN/+7HbovMvLcObO7hGt1/kktNnyEuQxI6ANzy4Rx1xNIaNIUCusTi+hO1MZ3bbR3aQ3VSA9zNSuHYIiOinBzY2gODNRYL/ILbGnD59G5dvN33Y3sYXmQuM08u7dg0Lhgn2D9JrZm6cq3A+zsvFGlqv1w28/4sINeI4VAD+/Ppj6GyW79dZPZKXv4eo28aUx1nfLhdZ+aBaYAHYsDSPTyzZ+fPXrH0ybIPnP5TFNeupOwX7fY2WX5H0sWPbLEBMJWNqWkXvxv226CZPiwwf1bwllIDRvvAk9lUsNNLwYfM5kspJUE2KO7g0oX7t6lqrr6sy++I5N/8vF5PXvEoszatYiwsQdrnv1+US9hXz4yuq/I9Ycf35w/581An0CD9Hy88s0AwQo0gxhopQkOBLl7D+0aD4B3D79mAow0xXSLeWbBo3BtMAtJAToiB1xzL6/6d4WxxBnn0pO2b/rW25Jfd1CdcukfS566y0yQpnW8Kikt++HHX0lfmFtmzpjOw8PKElbMlJdr4ys9WoLQeb3a/dZBNWNsqCoY5O/nK22JGPpr/ebSsvKU8xe37dhDeBcbE0UKNvybmH5m4cfzexnJO2lioECRaMWK13ad2MmDySrMfvvLZ7wrinn19JZygHLAThxQpZ36+Kc3apR8d5tf/1u5Y+M3FokWQqG84OqbSxeeFaZ2Ez4pZESGJZ/Vbo0YNhipSS5eSicfkuiFTU2C0P3dew+iadM/28gQyEvm5ajSxUH3LtxnA0kz+YZxGzYyQSdg7uLXP+C2Trl5Eve2NeWtp3YdSj1eXZwT3dzcXyy1DpWfq+vlgxtO7l2rcBVLvXxVNVWiOiW26o64cbVuhrQX5UAH4YB3Zcmv371ciMTqMg9XsaS+qsyrqUkmErlbsmvhzjXM2fnov8s3N7lIPHzj4wbdNHoat9W6cm5efna21ha7ZesufFhUXl6eH7yzCFEv3WKiLqdnoh5J+NlWFKbZbgHkorVJ2UH3LlzNGOYJExZPEUkmP23KJK7tq5UcST2zr0tRVs/mJomAACvTY3m7uoU4NftUlgY31rcm3bfpUWgr5QDlgFkOBIlEQXUKv+ryYGdniBaz8GYBAl2avGpLUi6eMAtpQwCk7mWz8RO05LU7oT8TGe2Yl2PtXXx9vMke0MNdzuUXEu88PP9+5OE/mngSRn40IUHC9aOG6Z8wxu1Fy5QDlAOUAw7OARhaptw00RiRCNcnTX6+Pi/83+NIAEM2Oqjv3693YIDGuclY9/atdyzp0rdPL3yMcQRxLdzQFmNgtJ5ygHKAcqCjcADuxSakC3cW0OhAhWNQi8MFc5yyg2rGHIdBlBLKAcoBygHKASs44Fh7FysmYMMuCr+QnYVZQBjhE7zjwjEbYjaBqrzRyvPE5G6Swy/+0Ds0evIXT+9IZajF6WH4mBiL1/Ty+q8PZ5zjVdJbyoEOx4H1xdnbS/PbhuweniEXMpmYx3sm3tE2I3bcUah00T67BjdJLtxLnJy8XN0u1FZpGxyyNLXfqH7hsSBt3sjpRLpE+YeO6T5QOLH+Ht7CgR0fMrngavcl9zF0jpSZpTbFKW8zATYLSgEcngM5SkWb0eglDbhQxuTua6QHWJhjOpUu5jjkqO3/JB3ccHpvvy6xPx7eTGjMLMnbe+mkcHpLqiuEA1NIygHKAcoBizjQPtLF39/f3d3dIkIFAtsJrcDR2xKspk5527cvckf86fA/+HBraJlygHLAATmAZSo2llE82PxiA89tjtkKhO0jXSTqywpyaRfKAcoByoGOzgFXV1fbpnJ3TIZQnzHHfC6UKsoBygHKgY7NASpdOvbzo9RTDlAOUA44JgeodHHM50KpohygHKAc6NgcoNKlYz8/Sj3lAOUA5YBjcoBKF8d8LpQqygHKAcqBjs2B9vEZ69g8czzqcTT4Tb1HDI1mzs7CtfvCib2XTpEy/Us5QDlAOdAuHKDSpV3YbstBZw+54Z3pj0QHhLFIX58y71zu5bf++WHtSe1BEWwrLVAOUA5QDrQBB6hmrA2YbMchXr7xgdVz3+KKFjJYn7Bua+a/99zEe+w4NkVNOUA5QDlgnAN072KcNw7fMqpb//dufRRkNjY1Ih/MoctJV0rzPCTyaf1GzR0xzcXZ5Z1bHv7t+Lac8iKHnwolkHKAcqCzcYBKlw78RF+f+hCoVzXUXffB3DM5aexMNp7dv+nsgb8fXSJxFd933U0fbF3FNrVLoW9IzNCuPdytPUzahjQX1VQeyEzKKi80jROkPjTkJh7MppTDGWVtlIiXNzS9pRzoiByg0qUjPjWGZlcXEcmIvOjvZVzRQuYDAbPu1O7bB4wbFNGzfWf4/Oi7Flw3tX1p4I3+3L/L/k4+yKvk3nqIpU+MuJ1bg/K5/EwqXXg8obeUAyY40D7SRaVSKZVKE2RZ3YT0cMjhY3X3DtTRW+buJmJmulN9uIs+5aeyLkK6BHv56Te1Wc3omP6OJlow97cnzTmQkVRSW2mMDyIn5+JC5gwP7iXl3tAy5UArONDQ0FBTU9MKBEa7IoslkjgabW7bhvZZiEtKSvLy8uwxU2QevRbSw4F10HoRBhZUlhrkZFE1cwqFvF31Udd16WGQtvatlLlJegdH7cs4a4wMucglKVFzrgEL40c9YFhe0ELrOADRkpamVWW3DplO79DQ0LAwrfuoTlub39BfTJuz/Foa0Evi4ZjTDfP0d0zCKFWUA52GA+2zd3FM9klqKga5MRuCwHrFtEDbyP+axsayhrosZW1xncoxZ02pohzoxBwIl8hCxDIfsZvcRWSTaYbL5CEx0UAlqau1CcJOjIRKF+3DlVSXDxarVZYqRWRAuLbBFqVMRc2hyuI9pWa8lWwxFMVBOXCtc0AmEo31DRrpHRBkB83wwOgY8LeynkoXM18zKl3MMMhWzVEyd3ym+IeuLchOrCyxFVrgyf3Q1HmU8Blr/uaIweEGv//giaupBptoJeVAx+XAZP/QmwNCpTbarHRcPrQ75VS6aB9Bs7Zor5K3q3heeEyoWPp3cY69xqB4KQeuVQ7A2W9+eLeBXr7XKgMca95UurTD85gSGNbs1LyxOLc1YyOIcu+lk63BUKmwi09ka0iifSkHWsOBR7vE9vP0aQ2GduxbXlGZnZ2bm5dfX98QGdGlT29tpNqOXftUqjpjtAES8MZa27He4aRLYVHxvv2HjyaeWvLBa8b48v2K1SdPJ6HVy8vzg3cWGQOztH7c9beeTTmal39FpqyRNDdZ2p2Fr2lqrBbLPX2DuoZGl1QUlRbnNlWWBKhjU1iYqYHhV1WK01WM07B1V0lN5dhPHrOuL+1FOdD5ODA1IExftBQ0NUl8AvwDwr09fK7mXK4pK/BtqBe7WO8rW9XUrBBJAgO7TBo4zlY8RPjLL7/9lXhMJ69599iYeXNme3oyXpfbd+6rqqo2NhyWQSpdjDGHqW9sbITAOHAw8VIaE8Xm7Iyk8oavnNx8IloMN7eitl+3BHyA4MzV1J/+/Cze1c0KZEVi+YK7nw/wDuD1/WHjstrLZ6UirePK7OCI5Jry+qY2UMjxaKG3ZjgAT7/B18/iAf2182deDb11HA4EuUmmB+p44lQ1NnYbNGn+6Nt4RKbnpf/652fBzdb87k43NS2e82ao3q+bN4Slt9t27OWJFmDASrjylzULH52Lson1EK2In7R0xLaBd4i9y5HEE3+u21xbq2DnbFy4OK3bYMqIzWJoTaF/RM9Pn1329g+LQ2oqLMLTHNHzlVsfN9jloemPbD29O3X3GnnLJsbHTTzeN2RriV2iSg3SQCsFcgD7Vk/vIB5wvZPRNx4eJL1tew7cEqijGiptaHho3tsBXvyXPBAWExqz+InPP/h+kb/xZA0G6S8Lifxq5nMGm1pTWVdfD+lCMCT07zP7rtv+2bJj7/7DqEk5fxG6si5dwhY8dG9DQyN3lJzcvLV/bUKNi4tz7/ge3CbHKTuEdLmcfoUrWtTcMfxLTruceT71Utuw79WH3lm0dGGUCUGnS0eBk/NiI6KFAN6YMC7r6oXmzGS23whvfypdWG44TqFMUf3w+k949JzNY3bV9HJADsD/eIi3TsajUZPuMShaWOJfmvfuR58+6tvyqsfWGyukS+Tv20G0YDgsaHV1GpvKnbdP9fBwv2XaZCJd0JqeeRXSJSY6kkfYKbVpAJX9+vaWy2W8Vge5dQjpAl6Eh4WMHD4UXN6w6T/cikSGFaNk4+Lm5lZfXw8w0xvG1rN48g33J21d6SZMS3vrtAVmR5w3/ZH3P30soEU/FiqRBYolRTTQ0izj2hagrrFhV5qOErxtx6ejWcaBvu46lvxCN8n8vqPMoujaZ2T1+aNmwQCQr1I8+cDrQiCtgCkqKia9AgL8fH2ZiSBVmLtcXlPLxNMolQaisGFHSDyu+X4OHcwo8x3zcgjpMu3mSTBMgUEHDiW2sMnA3uVsUkrmlSwAXD/yul17DrRA2vH/9b2GbvxneZyAgKyC5uY+0X2EkOIV3s0pP5OFjJG5U+nCcoMWKAes4ECkVOflffDACUKQzJp4z5fJh4SExVS6e9vc1sJSOHH8aHzYWxTgHqZoSfLr6+vNbSLlM2eTFQomC7BMJu3bp5c+gIPUtJF0ycq+yp1ws64pm4gWADQ1QeNt+ELTur//RVuPuG5BQRp1arOeaa6qurKyyjJjieHxWmqvS5hUlrK/5c7ofzcPoS72PWP6pXOki5+rg1rkjE6VNlAO/D97VwEfxdHFQ9zdA4SEAEGCB3fXYkWKFYqWAl9pC4VCCy1WihWnOBQp7u4eCBBcQpSEBOLu8v2TDZu53b27PT+Svd/92jdv3ryZeRf27cwzLZOAhagDTtPazfgsEDcfyRV0+aS+7tm0T2i4Mu9FDT6loOVcJ16yqSchVljLuzqb5o7fAwrZqEFdvU8XIWwyjWPUpF2yRS9/DET/GthSgKmKgcRJMCam6AjZvm1LOIYzeukmfPvy8vPopuKAnZV9Ig8u+gZ8Hcxc7F3Jv1NLaaLgMblAIkigXEvASDQs35r3q14FXEvkclw9MaRpZmyGyygGUpGmrq5Ybmlp6WfPX6aYN25Uz8zMlDERnn607bmJb0NGr1Y1uc0bGl8iw6CCn/bkqQtYlZ2djZpPgtk5RSdQqZ+cLL5Jh+KSS65ZKZ4ZStWFUtcpEAgSKHsSSM8TeaF8FxPOc48FuWJDFEkOOTw0EEmvCAxPMMrFCYeSvr27sVn53XtI3dlYW1l6Va3CJtAejJrOLpXcKpN7Rn0XsskFi5xdbt6+l5hUdN+FgwtD8TDGWllamZqaMZCKNPdf3MZ0TeViV8jbd/nF2wBS6EnF7glcLAWcIAFBArwkkJJf5ONDf+6/8KvsyHSyontpAM9oq4J8uPTSGHHA9YALP4+cI65XDjxCI+OKb2IYY2/c8vN/+JhCDujXkzLyM2hufzJON2vamNGlbU3yQafCtclaLo28GYM/+LnzV6jFJSQmwRk8/F0k1USNSzTJRAi6unqyziVh2/5Bj60yk3VEz92c9A56+n4v7zar1Zyzl0QmRQTSPmPAh2YL6VhI8QiwIAGZJRCWJfKP6PWLuzrtB0vlcuDyfyY8VAv46CVGw0nd3lzEM00qfwkEnK/IoWHvDhw6QY2q61OrXZsWbA5BwaHxCSVX9c2bNmITaBVGut7WyHIrEJFrCQmJKZ+yIFy5egvq5PmL19Sq4FyB5rsIVWWEPHhqE+NKV4I0Ll3aI6GX6tp8fD2pWhJzcyJ5X6lJZa5SgsrWjnWcPMgvMCqdUWAuSICnBF6lp5KUTgX5F/zPkxg2nJyWHP7sBhvPibHVN1y5bwlnl7KQyckpGzbtpIz5drY2X48YxMkZ12IUHqlfHBzsOGm0B6mms4vMGyYuxqhMOzJzUHjAD1tm1+RxaqHncdKpsGjTzF/G/0ljGMCxG0d0wl+RyJtJsWRTm+HZHYZ3qNqAXOGV4IAJR5ghhySBAAsSUI8Esgvy/ZLjmhEJWl7dOm5jbuNbswnnAtIy09ZsnePEO5QSTKpkpq0+vWVqz7GcDBVEwq68buN22PPBB9c234z6ysSYw5cNtzgPHj2l5vLV4jAXWhpaql10iRMrAou+nyISqPjs+avLV4u8hBGkOn7MCKdPDsr0rhQEEtISl2ybW1NH5kxEDlnpC9f/8O2IObYWtow1bDi8Sv99EIlMycu9mPCRxGg1nJeXw7jEEzWlavXihcWVdQkg4zipXUz19O6e3xEV975P636Mrb+NDDxwaJUT8YRhEIhrmgQ/+W3L7D/GLhRHIDceKSwj35dkhPqiZ1ePKiJWapptQMAzKqofj8fGjbQ3iJJesJZqF+LoUrTU6tU86RUD+PCxpMKjvr4+o4skkxV+Fvrsaejz6Mi3JsnxXrKrFmo6x7zcnVtmZxibWdo6V3T2iE38kBgfXZiaYMc6Bu37GI53LlkXqSn6ClGvb78tyn1EfyqY8Q3xoYcIgCABFUkAlcWPx0aS2cZMdPViAq4seHgJOZId7CtZmFuGRwalJ8Y4F+Y7yq5aqGVXykhZ8fdkS5dqbi6eVSp51vSorfh2oFfu3S8tpYFkJVS+EoqzlZXl4vm/UDAd5uJdw8uyOHey4rOrlIOWahfkeFHptjmZX7l+2DQlniM0lpNaPNJcT98cLowfw+M+hmMbRacYlmo5Hfv+YQqfQBrx0wg9ggQECRASOB0XXdnYrIGFyEtP0RklJSE3JSEBmUmLv8QIeUAL3QqFH4MiPwa9DLSrOVYJ2kVyJA0dMB4Xn0Dlj8eim2p3mAstVi3VLrqa0C60UFQK5BYUHI6NvPIZ3YmpVBwCc0ECypPApvfB/VB5xdaJ0ylLefMokxNOJz27dxLH0cjIkOpKT8+gyerVU4JWEzejEvHapV3atGqGr9Tt8SSTyodBoIa/yODM1F1RYdH8IjQZyxOaggQECUiWQH5h4aGYiOfpySOdq9gbfh45lhAUSasNCbuDk5h2lgiTsGbt0i4SFqqOLlbWMiVOGpqZDg+xW5+Pk5gS9y6wEiSgTgm8Tk/5JfhpT3uXVtYOdgafh45Rp3zUNpegXUpFnW1u/aK41r2DhfVTUf+uUiIZIVQ5RFBLeFZGggqSSXjYubhZO94KfiLjogRyQQJlXwIww+BbydjUydDYWt/QRExRD1kF4WZi8z7mA0Y1r19J1rHljV7QLqW/eLaZ1cPivEPeBiYnY6NKO7QSqmTjGDD7XysT8yn7l629dghrnNdr7FxZ/PF7r//x1LPbWrk5YVGCBJQjgYisDHyVw6uYi6+tkX9IKMCGTborkW2ZZKWlsfplUtbK3VQLz7pQLeAJQLmclcgtNkNL/eKiUqVmulOiGARWggTKowQ0c3axsIBzoEo+xlwxriqZSdNMTz69uf/BRUcL2w03DlNruRYIr/kt/NcV+PEdf+JCWzdv0Vj914klUUcSmJwPfDClRX8JBBrpSshIeRgVqJGphUkFCUACeEy5uLioQhSqe7TKsVqNaRetkoIcgtP4kIzc7CFbfyWXAe1SrGBInPJgcxvXynVIdq9zA8gmJ/wmNmKj34mJzb7g7NUUcu6lnenZvAoraGqFwrxlWwLItOvq6lq294jdaUa7lHmxlr0N3gx9GpuWRO7rdSyvo8/ymwcvvn3YqGINCyOO1EkkQzXAyHR7LeRxhOC5pwZZC1OUewkI2qXc/wnwE8DugEv8CDmonn4IwZejQ0AJEhAkUHYlIFj1y+5vK+xMkIAgAUECmpOAoF00J3thZkECggQECZRdCQjapez+tsLOBAkIEhAkoDkJCNpFc7IXZhYkIEhAkEDZlYBg1S8Lvy3y/Hev3aKJRy1qM1ffPLz+Vrq7cFnYubAHQQKCBLRVAoJ20dZfht+6DHT1xrXq+1PnYR72pe7zyAfzPCr4j9NbDz66wo+NQCVIQJCAIAElS0C4GVOyQNXJDkeWoxP/WvfVdFK1UAuo41r1wLhF0zsPU+d6hLkECQgSECRAS0DQLrQoPj9gdItePX1aYt3hCdHDt8/1nNNPb1Jzq2kdAMemFiX4mv/FBDdrh89vY8KKBQkIEvj8JSBol8/4N5zafjBWH5kY4/PHsD33z4fGRxcUFqZkZQDuvnZafkG+kb7hyKY9PuMdCksXJCBI4LOVgGbsLgUFBZKrScstT319fTWUmJR7eUocaKRvUK9iNTD8+eja1GxmjvGH714fCbg2sFHHxu7eSpxUYCVIQJCA4hIoLCzMy8tTnA+bg56enq6utpwZNKNdPnz4EB0dzRaN4hgvLy8rKyvF+Wg/Byr9PtbpH/aKc7X3w15Cu7gKN2Oc0hGQggQ0J4GUlJSgoCBVzI/Uy9qTH1NbtJwqBF22eerr6lEbTGMdXCh8anY6AAM9zbxAlG3hC7sTJCBIQKoEhEdPqYj0c7Nd9Yoe2dZ5uTVMlVOBJq0gLyk3Nz1fJafg0qULkCABQQJiJGChp29tYGj66W1MDBVftIuBfg0bG1Dr5efyHVNe6QTtUvrLmyZ+7G1sWtTOSq2nVHNFfG72w5TEO8lxUdmZpfMJkCABQQIqk4CniXlLa7sGFjbmegbKnaSXbUMwTMlKVi7bssdN0C7q+E3tDIy62DnjG5CacDTm/YccoXSVOsQuzFE+JQC9MsCxYjUlXT+UTxkqZdeCdikVIxw5ShuqgRpY2NY0s1oX8fZNRqqyZohacloCq0aVvQs3+HESNF48Cq5lnF0CUpDAZyqBVtb2w52r6FZAqLHw0bAEBO1S+gOox5XZWFfvR3fvtRFvn4qWeixdhwAJEhAkIJcEOts6DXSqLNdQzQ9CkMabwODI91G5uXnulSvWqS02liApOeXxk+fp6RmNG9ZzctLecGmt0y4xsXE3bt69dz9g6Z+/kT/4ytWb3gZx1Dds1aLJ0CH9SUq5YQ+P2sFvHupkpJkp/N6Tkp+XqW9gaG6dm5Wum51pz7IojnP1XBT+KloBM0xqVsbvp7fIvVkMjBIKACsiPmGslknAx8KaU7XEFhQUGpnqGxnnpiZZFOSZKuxFmZCdnW9g7FO1rhIFcOeu/5HjZzIySu2y0C4Txo5A/Ao5S1x8wvGT5548fUmFy1Su5CZoF1I+3DD09qPHz27dvk+pEPYxIjU1jXuk8rC923yp0+bLrLycg7eOBT24UNHQRA7e8fl5vm0GdGzUiRwbHR+97cAKx9xSc4uRnt43rh4LQ1+SZDLBiKCcd0oh7SLTdAKxIAFtloCJnt4YFw/GChMt7b4b8pOZsTmJ33thd/SL25Zy6ZjArPTOnUeMa9CeZKg4jEff7n2HGXyev3h9/OT5/n1Lc23ExsavXP0PDi4MSq1tasXZxe/+w0NHTpF6m31rSmsXTw93Up8rXXUb6xuOaDcoql7bTbv+cKsgWzxQjKHx7IlL2T+2i53L7G+XLjmwzPZDON3rbmzW2NL2QUoCjREAQQKCBOSTQHdbF/JQklVQULfdwLb127G5De0yPKF5jw3bfnNkP2XY1AQmVEd39uRV1sp2FoC5F08/ah5ciHXu1PbqtdvBIWHAXL56s12b5ra2RQ7Q+GzdsZdSLYjG79CuVaVKrh5VtPoaUCu0S3BIOKlaiiUpcjmFk016Rkmyk++njEO6l2IaFf7H1cZp8uj56zfPcjEw5DkNTi2cqoUe/vOgnxZume2YUfrq0d7GUdAutHwEQJCA3BJoZ+tIjrWu3ohTtVA0tha2w4dMP75viQnryppkQsJv83J/n7LKxMCIRCoFfhsUmpRU4tw8bsxwWxtrD/dKs+f+CeZQPIFBIc2aNAL88NHTdxHvAZiZmk6aMMrDQ6v1CiUZ2d7NqTGq+K+pqUm3Lh2+6NWVYo5kOeQsKSklHlZGRoZqUC3U1PaWtjWadCOXIRmu17yXZAL0ThsxO6MgnybzMjE3l+uETnMQAEECggRqm1nCWYaWQ2xh4Yge39BNTsDdyb2CM/MmjZMSyMz8/JGDflCFagHz91ElObHs7GygWoCxsbE2MTGmFkM/+m7c8qMww4cO+CxUC1ar8kMAJRHJ/23RrPHA/r0MDQ1v3bn/iVLk7JLyyehiYS5yhfqJWFX/H9Dyizl3TlU1KQ6xlDhJfEH+uGY9JZIUdZoameZYO5qmxFOUMC95mVo8Ls6WL3WsQFCWJFC92LUp8OO7srQpTe2FEdriUasZn5UM7zn20HYR1yFxo4J1CqdWrC6uV0F8XZ9abq4uYIJXZ4oVkvzCbYyCzYufeLi5oe7K8JB0sLfbd+BYTEystbVV/z49LCzU+kiUabNq0i4JiSXPU2pxSA5PrpK+PYRYSTwN00aX7JycfzbvwmkxMzMLOqlTxzbOTiIn4qyszPwCZaZdcfdqqPOeR1CIecndKL1mcUCt6o2iHlyge+0M+d680UMEYFLbAX3qtoFufhEd4hf6HJWeRzTtPqF1v2qOlW4HP73y5sHGG0eikuOQ6LNBpeqxaUkvokI0KDRjA8MGlWoUFBbcC31R0cZxZpeRgxt3sjcveku9G/JsxI55Hnaubas1rFvRCwt+EP7qz/O74gRvdVl+MEvRaPwOvp35jLaxsIkpLORjfenYpHfUhyg+PPnSEJF1drY2+JIDaZcwIKt5FR2wgoPDqGejvr7esr83ZmWV+Ae9ehX447RvoW/o4Xn5uZxLdXUurV1LE6saUJt2EbFdG+hLyc2gqytydkn+dDMGNfPkWYmf1R2/BwFPns+aPtXe3pYWU2ZWZmq60gIVwbZ6Re8QHtrFwIivg1llZ3fy79ROT9Au9K8nFoCS6FOvDdU9qFGnms5VKLhzzSaMMS2r1sX31x7fPHsf7ONWlepNzEhdc/XAqqv7E9JLjV6MgUpsYnlOlravP4RDl8ztOaaXTyuKeXjCB3dbZ3Ki5p4+QX+IOAu1rdZgbMsvNt06lpadGRwbCYUUFBtJDhFgtgTM9EuvxdDrZO3EpuHGGBrp5OZwdxFYF2vHjIyinLDK+hiIt+bi1HL81DlqIngwUZqDvrxh2KeB37338LSp4+mFwUSdw2NHNL1KATVpF1n3wPBI1tfTMzY2ysrKtrQwr1evTkxM3JvAIPDECebYyXNjRw+VlT9/ep4noVzekSsZWRnk7DlijmskTTmHl/af8pPsJZxp1QLp2Zha/NZzDL6UJHGUwflm2aW97xI+KFe241v3Xdxnkq2ZJSdbhmrhpAESJ5jpnYfTvUcfXxu9a0Fypso98ukZPzsgW/Qf0ceEj062vBRMIb/0siqqxcIp5/2HjuP5RnXR7shpaaW6bew3w2rW8Np/6MR9/wCQIYQj/F0knM04uWkWqSbtYmtTerzAhhFlKm3bImeXpk0a4hsbF29ubmZiXGTv2rZj34NHTwDAK5xkZWJsYmAo5WBE0kuFLz48y0dGuYQnmGSege9ekQRJQqZVUhw6Oo4WNrj46le/XV03L9Ee7lZE4sdKNiKPEhwa7MytHIqvnjjH1Hb1xHeIb5cOK797HhXMSSMHcu3gn75r9yXPgcjBgyQ9DOKUrHRLYzMGEqLAl0LGpycfe3x9zbWDTyLfMsjKczM5TyRd8fPQZzy1iyFe83m41TwO9h/ZTYqbgEzyz8rMjNMpUSHkwHv+jxBWSWHatWmBswsF40RCAdW8PBvW9wE8+MsvHgU8o9ReUHAYrV0M9A0dRe/ZqIEa+S+fJ6cSFoarRZJLVmY22WTDjJsxioC8XmzYwIfSLjk5OcnJKVZWJW+LxsYmSqwehmj2tIiX1tLu8bA83HdExEZUcqjE3gsDE/42gHwWfsjOYhCU5+bU9oNWDfpBJgngFPLDoVXtqzca3bxXT5+WGIv7qNp/fNWjTgscesyLbyyDY99n5+XUEo22g/q59L81LZaOC4krcvRU8DOnx2gJquV9UqzbpzJuO+6enntq8/Fv/6JnRKVqHFBwZNk6YjaN5ATszKzGtPwC3933zsFgw0lTDpHRomlh/QOuMsKZOWVy48l1Gx6qBWM/hjwzM2VqfU6ePJF5n4z2JH30h5g9+45QGO8aXl/270X30o6yuMKhkCYmJhXdXMLCI9CkHZoBIxRGuUul1yAHoCbtIuvKKuiInF3Ywy0tLWhkWno6rV1opFKAjYf+rsRDtVBz7Tm2Yea4RZLnvfroihORKzMrP/8170OPZM6fby/OKHVcq1Z1cKti5/JNi96SNwIT/Zh/F1Sxc21UuYavey0ojK+b9Xz47g3MKocDrnrau83pPnp0i15dajaFYf/Us1uHxi1u6lEbzCt822zFl/+b1vEr8AcTQz19PM1hHQmeX2L2mH9m26JzO7JkubNGYN2/o+bSZhVy5WHx0dgOhQFbnEgmtxsI88/w7XPPPL+DZdevWP1xZODmW8f/e3AR1qA21RocGr8Y9KCBnwK+OJ3M7DqymUcdki0ND2/arbKt09XAh9HJ8bAwPYp4LdPKaT5lA3ieVhIvQm3HMi0pOCq4qmuJ1U3cHm9cO+Qk5TFTMtTN0Gjt8fWT+0wSx0pxPK79N27aSZ1F8DQb980wsoAxAjaoKTIzM+m5aB8zzndxmkyDgJZqF4ZyOXj4ZOT7Iq/wBvXr4MAIICen9CxsasLXoi6ToP+5uKeSLI9+u8zUnWe2fN1jrLhZ3kS8fnz9IBngUs5DKV2s7M9MXoHnrDiJ4bmZUPwTIOWtl0NF0OPA8XOXka2WlZgxYVBpUbVu0qeE0ziFfPPvgo03j7yNKXqni0yMafbXmD96j6ce9DjiPH0ftH3kr+nZma3XfH928koP+1JHGjgCDG/SrdOqKTyPMvUqVjvx7dLKolZ6aiNw+sKzfl6vor+EAZtmHgm4BrsRjD091v1AWXpeRod+seGnk09v0RsHZtzuxXdCngKgkOu/mkGrFqgcrBx4yAHzUrdnUEj4UsRJmal9N8y4/rboIr4cflLyct+kp9YwK3njNNDVPbB/2cSxi+AVJk4aS3f8zlO1UBwyg59efenXnp+vs7hJJeC37/oPN/8UwagRg3A0IYmRT4xqxsSW0KAZF1fiKmVvJ2J3IAdqFtZS7ULqbQgIdhoq/xjuwSjtEvi25LrcxtoKwUdKF+KKw6sLw19a8j64UAvICXryz5E1E/pPYa/H//W9m2d3okwe2XUqviSQikSWH/jUpOUSVEtGTtaPh1ddfEWHQOngCDK4UWf4j8HHl3pVx2P39LPbDIndDyvxKqTwv53cRBPgVspI37CXT8s3H8PbrJh4bdoG8KR7oWxu/Lix3Ypvpbppdavd/OC4RdS1Gz2cAmYdWw/tgkMS1t97/U+4uAN+2cU9W26foLUgMKRqQRMuyFtuH6c4UP/FW/X+B5euv330OPItHJcpJDZ+5ruV7Ws0IikBW5tYnP5uhffvg6FQGV3lpHki7v10s1I7lr2e/sats4cPm8V5Wb1k6xzbdJHjjlQp4Xr8zpltUTERw9oNlEosK8HlKzefPS8xx7Zs0aRGdS8GB2gXaytLpIFBcGXg25Dq1TyRTTk+IZEiq+kt9v2MwUfNzQpqKGrC3lJUVFR0NMeDFfGo/x04Bnr4hv25cA498MnTF/9s+ZdqwrxfkF/g//Ax1UR4f7cu7WlKLy8vue0ueQX5uNAIeOkXFfjINFN+t+aPFSq4VKlVzb1Ww2oNcUJ/HfoyJOy5PesYdCou6kSsEm786b1/XgBuh178tk/qmmEXoZ+tUol5EuDdH/ZzENdwcn/0y05TQ2OcdRArQw2H33CzJWM+fIp4ZfPs6O0Lgw2Jx2HIrNjAs/zS3p8Or6a6GrvXRPAKSaY4DH1M2ZY4WX3339L11w9zdpUH5Hi3qkjcR+4UvmQ5ds4e7rVqe/o42jjef3nvbejLtPeBtqIveeQQqXBEQYXKXo3aNGhb1aWSHpEgQOpAkiA5OTkoqOgwig+OIPMWLKND/WCfR8gk1YX/mpmZjB8zAgD9bET4JIL8oqI/UL5RPnVqfjv+a5rexcXF1bX0RE7jNQKIvEprZAXck4ommEM4a43qVaGuQXzv/iN6CPR5h3Yt6aaCwLpd86koelPFGMGyUhD64g2+1w5SnOxZDF+mJZ8sx6oF8qDCCUnBwNjQ/K+xJEZFMKVawBwnGNyk/TdmAU4bOfm5/46aByT8hk99t7z1sgmZuRy+J1BIRyb8SS4MTAZu/uXpnD24mKJVCwiUrlrAc/7Zbcsu7SFnb+1VH1d/FAYnGLKrvME7o0IrGpk4E5FnRrq6RokxcYkx1x9fo6SBx7YiqgVMKukWFoY8uB7y4KSp3Y9j51FsFfkv4vBp1QI+cC8mudEG5tYtm0ZERt2+cx8xf3R0OUL9hg7uR9JrFayl2oVRWg7hL9DPB4+cuuv3gP4lXFycYPsi9byCkmUE2SjITcLwRymJ26NDiHBdCbRltot9hwMzA0Lu/713Vp17xu2TuZHpwUeXUS8HbgJwWsPs8BWG69r4PYvZK9k1ai7pNIyrue5rp4XGRe30Oz39sMiBhj1WcQyCKxlMSBe70PgoRm+5amYXFqyMCJzo5uVhokz/LlXLEMZ5+BmLmwVnF6oLT6dhQ/q7ujg9fvICrmKODna1atXo1L61NmeC0a6bMXEipvFwPv5YHGoEJwo3V2e2PlDkZmz1jnkm4u9D6DUoAsBJ7GBsxM3EWEWYlJmxd6ZvRrA6uZ2Y1MSqv/ZHmDqJVCd8d8YW2pYOqwm8zsjZv+84ZOWX35OYjn9PpiwrJFJtMJwF4HVNTQehVf7lC2g7tc2utRP1dXDrQfhrqGidKQqcXcibMeUuT6tuxnSVuzdVc4OvHixa+MLXm61aFJ1d9DpOUW6s8X5J8bNDngqqhRYMDB40TAEIpUS6MAZSnU3ccdEP6GUDSh7sG9rUAABAAElEQVTc1AJcrewX9J5ALmbaob81qFrgU/BLt1H0evR19djypHvLFXAs9v3c4GevZLTblysRqWezWnozpp7NM2bJMrN8UWwLcbCwphxAGQRyNxNyc+B8zMhXITc3cQMntu4Hn6LjT26Efg6uaF827ADnWvZeEKgP2zgbrx4M7usm7ftr35j5mA4mFgTT4MqLmvqv/lMo0z3VPPbk+t+X/1PPqjhnQUwlHLLpLvz0cKqeuHcJjSnPAOIrV74LtNI3gJ3fVLR4sIJicTOxeR/zAUya1y9xA1GQYRkeLmiX0h83x8z6YXEwnbeBycnYz+8Ku2HlGuNa9V05cBryuiNkD99rgQ9zRdNRl+5W0xDcghlLgEanzg2wq8Nxi9FLN+E3jKgXhtsx3as4gPBGWF+oK7tZ3UZS2gUebsOadKWZw+A/Zf9yuqkiAEkH2NYpei6kJ0Aam/j0FCS+pJBf+XYRtAstHwDIEHM54SOJURz2tTXyDymKSWrYpLvi3Mo2B0G7lMHfF7VD8IWRIC074/LrB1Azp5/fRjISrdpq3qfUSfSqXkWHDdla6oZO4xkATOjxacm4QMMREzZ5KnCSQaNgc8bRtTd//AdMcHzpWqvZ+Zd+P3cp8gqlP39d+FfCc58mkw9o5VWvYaUa2NfZF3clcOi7cQZ621VveHXaeoosXzSZo4SxQpcgATVIQDPaxdjYWO6oFMlCMTAwkExQhnunHfz76OPrHb0bd6zhi0sn2KXgDYXE9VTuepwMzjy/DU1zJ/hZfiF3HR11CgdZTHC3Q86Iqif/PbyILI0kkhOGS/E/N48i6dasbl8juHKv/4X9Dy4q0RfgVtAThM238KyL2b/y7Xw/7MXIZj3olSBdsSru7pBZGanS8GNhO6uvHqCnkwAgFQ1SD9AEGjQC0WsQAD4SwGNKRQ9APFr5LEA9NJrRLrbFH/XssPzMkp6Thbdd6oXX1tSyQ41GiPvDl4oTRDovfGd2/ToxI+XCy3vU1Vmc5iyfSN04u/toulIL9TMdnbAEr+QwHfH51ZAwGPElyPICv6k1g3/cc//cXxd2K+sos9PvDKVdvmzQAUmXyfXg6gzuyyRGQRheahPb9Ovk3QSxLG2WT+TJDXlxbv+0ic5mhlFIaMZzrECmWQmYmprCu1Wza1DD7JrxSFbDxuSYYsHZ7dSLs7eT+x7/83Jw0M4hcHbqVrsZrumhafBIIhfpH/YS1ultd05+SCnJWUT2qhruW78t1Al7lgl7/9x08xgbLwGDCyIoGGTDRC5LhEYqHskIg3nC8oucM7ZePgGHG84uWZGI7/lfh8HVHSsvvbgb5yEkj+HJAUGU/46eRxaM2X7nFCJDeQ4XyOSWgK+th//zol9/7pBJ876aLDef8jDwM/NILg8/idL3iJq74ImLMt0KzJ/bt0qthX2+jVx8ErVJkDZY6VNLZlijuLY8SUMlefxn6Mz6laqTeKnwtcBHPvOHwaYNJeo/c/uV79chA7/UURII4F9w6bU/myA6OU5x1QLVhQD7j3+dRWwmyjZXmdMXGZr5qxasClnOoFqQgYa+D/QkEqaxly1gBAmoXwLqfqCof4flc0YrYzOcVPBG36lmE8bt07P3QSee3sQ3JPZ99zot4AoFwzVqk9R0qYLYQHWKy8bEkjHd7eCn7rP7MpD8mzDGIOr+j17jsR2keoSpCekj5Q7+R36zTt6+jNlvBj1mYGRqwlLyY8ehOK9YGJseeHhpxpG1ErzjJHB2/rkHDE5I9xDwyy6KzOqzClCXsDWhq8xIQNAuZean1DHWN4S7UYcajVFtHrlMyGjT3Pw8vN2ffHrzyONrpPMYnrz44n3/4v9WYyBS0O++f05tErkdghsGEV8s+NRCJeBqS+41oFbK5P3LNt8+jtMYpIHDASz/3+5dIkd2es5Mya8+hMm3NgQ/zugy4vsOQ6BXwLnfPz9f5job8WceEhdFe4thFH5f/mMFSkECapCAoF3UIGQ1TTGz28i5PceSkyHlO9QJDPjnXtyFzZ/sImG4byHRPbLKd6nVVJ3aBVnoH717gzAdcjGL+05CkvzfT28hkbLCKL0F6whKbC3rPxVHt2s/bNjrf/7HQ6slZD5mT0EnuyS7kmSvb29iYISzFEqBwckNrGYeW7fkfEnCb5KzTDAczM5N+RvHF2oUbtUU5ynTAgRiQQJSJSBoF6ki+vwIkLX3xJOiuy+41RYQpTAl7AT+V+iNTS2pGCGBUrldX2379cHMHXidJ9mi7pa1qTkcrEmkHDDKA0MOC76YMKX9oKG+XfvUbTPn5D/8A+zJSHh6dkM92Vzex7bss6jvtwj/BAfkoPx65x/4dWhu8gGIJz03+W+ENNHDx+5eJJPipAcKgCAB1UlA0C6qk626Ob+KDoOHLtzegmUvFD98+zx81b1iHR2kFUDo4oavigIDyQ9ukPAcR8ESEikHjPPH1AMrtt89hSsyeJQhB+XYFl9M3LeEj2W+tosne0aPT/WM2V0MDKbbNGwmnaZz+pE1MAIxaORoIpHz6ckrKHVFDcdrxD7/C3KwEoYIElCpBATtolLxqpX5/oeX1DqfkibLYpVRWXxuZ0xaIh8FwHMJARGB8Cj7q//k6Z2H13b1RBz+Lr8z/zu4kiwWyWbF6XUGDwg2JQODdGSL+nxLJfNH18N3r4dvn8sImmEM4d+MSo6dc2JjRWvHKe0HUgVdsvNy+A8XKAUJqE0CTBdVtU0sTCRIgJJAdl4uQxQoG4wq9IrHrDDYwkGr1bLx1A0SYu9RGRN2JgYN3YTHHcPXjurCrVQvn1Y0GRtAScons3fTqgUGpMaLRylLtWA6OGVANSIXA10rLDOHo8oZe2ECRpCAmiUgaBc1C1yYjikBOBQwUEj3e2Hq6n712zHwijfh8VxvwXCYo8AKQabnp6xCDCamY3CuZOO0ZfgvDCTdXDvkJ4ahiO6CfxqibaoWh56gVk3LpePnnVLIPYHmTAO4E7vx48Yv6ramMSdFi9DQeAEQJKBZCQjaRbPyF2bXiUtLgk2CLQgUGJ7cbiAbryCGeuhvvHGE4oMpnv26FwcOmq2XQ8Xb00UyrNBdFIAwxk3DZjGQTpa213/YgAsxCo+DV4OFIyg1xqBUpAmvcawWpheaCRL/HHp0hW4KgCAB7ZGAoF2057covyuBufvno+vY+8fB4ujEJThksLsUxHy77y/a6RnqBAeO33uNA08cmFCeEmcXyfyHNO4MMiqBGyjbVGuA2zD8lxoFXzXfP0dHJcdJZiJr78I+Ey9/vxZqjB4Ie/6gzWLPWDSZAAgS0IgENGPV/1j8UcWGq1SpYmnJjABXxURayHNMi96VbJ3C4qN33C0peKWFixS3JOS071uvDe1hBbKPKQmIvUd8iYoyOuPOCszpSsa/9RwzvnVfZ0s7cStk4JF6MvD3g1tvn3iX+JHSTBTBnBP/LDy7nUGslObs4xsRhjmoYUdEJlEM4VNHZ4JRyhQCE/VIICUlJSwsTBVzORV/VMFZDp6a0S75+fm5uUxbrhyrZw8p5BfewR5YBjBIOQyb89kXdz5H7QL5RyR+bK7jQ/8QeElvWbXusO1zoWZopHIBxL7gXu7fUfMotvxVC70MRhGBkTt+lzvxDM1TAuBgbkOrFpBh8RKIhS6tlQAeUyp6AOLRqj27Fm7GtOe3UHQlqFQIFt5OVRRlpKHx7DQBcNwKmX8EpnK24V1Za8QtVrsVJcYSBXkih6bqVIubtQNScy7p9x29SMyVVVxKlcYIgCABrZKAZs4uWiUCejGWMe8mmBUXKk9LaFvTl8YrAqTn5SXm5UZkpT9IS3yWqto3zd9Pb21ZtR6OL7jtgZ08T1trHouTJxLDnH52u6doRWRTQ2OYyr9t03/WsfUoCSNurCL41GwlFGtB/jHc4ymyDHFjoVl/7DQMiWSQqYymQapmNZRepqf7HAED3QoNLWwamNs4G5lY6xuYKi8F+DinjhBISrqS7Wqfo5Alr1nQLqXyUcWtmpm+Pr4VjU2aW9sn5eWei4++kRiTp5rruyIX25d+SASJmsdNPWpfeHWvdG9c0D83jkanxHP1aAw3aMtseAkj+yRjBTCz7x79+6yuXw/eOgehMIxeBZvjWvZRkAOGIzgGMSjIb6Y4K5IDbt7m9x7PqMqD5GyosYYSmSSlANMSMNHT62Tr1NHGSYkahWYuAPwlIGgX/rJSlBIvUEOcKrexdvj73RtoGkXZscb3rtsKqoVCwzxOWshZtEUInBW0TbsgGyOyTyKacsWX/yPXHJuWBB9iZNtUumpB5MrQJl3JueSG4VWBrDNyD+cciAoum24da1utIYopUAQ4Ic08tl5ylgFOVuUE6WZkMq1yDUt92dLBlRPhqHmbn6XdJfpDzMXLN86ev5KXl6dEeVVQIi/xrFyNTOZ41HYy0qLy1+IXq5melZf3wdeWnBshhP3qtzUzLL0aInsVgXd+/ZulsZkiHOixo5r3wrUk3VQKgMOQu60LrVqQaADWHUG1iJOtt6nlrCq1Pl/VkpOTExr2LvBtSGam2Izm4vauhXitO7vExMbduHn33v2ApX/+xpZXSkrq4aOn/R8+prpaNGtsZaU0/2Nzh4oRKfHmBQWWukpQutkF+SmFOkY6hZasC1/89U+uWG1R2MtMpTp4jN/zJ75soX2OGGgXMhwdW0BSyJOTlsHfGikpUeUXDmaK7wtedkrMCIBj0PGJS5v9NUamKpOcu0DS/oGNOo5u3ovWKxQZTGuc9AISEnA0NJ5U0cuQ6x9vUl5erm4FB109pQjqY0Z6Qk5urUp1lcKNYhIV9eHYyXMvXr6h7ud1dXW7d+3QrUsHPb2SZxGee5evirxyUQMrV3KbOX2KEleiRFbaol3gSPfo8bNbt++/DSq6VScrX9G7TUxKXrFqY3x8Io1RLvBNcXEU5HG68PBS6KNLlYxE0sLznyvd3rVT8951POpQQxJSEy7dPx/65LotcVp3MjQe7uy++b2STQj8F6nllIgjQSkzxrMVa65i54LgEnxfRoeuuXaQDrmXYzvze0+Y02O0HAMlDPFxqwr/5gGbZkqgkdwFJYpMM02r1Ga7ySEbpiL7lTxvGeid5FbVWE9Ef8QWFtRv0r1VvTaWpiXvoH4v716/c8o2I0W+/b7JTKtWr8No3y5udlLibWXiHxEZtXTFevImpqCg4PTZS9nZOf379qBYpaSmysRTG4j15s2bp/51pKampqWV2iT97j9cvW6L/4PHCQklmkNXt0KPbp3IheXm5i1duT4uLoFCetfwqle3dk3v6vr6IgrS1tbW2FihSyfckzTw9KlRq9n1x1ctWIXoySWx4biC/M59JvVu3d/RxpHuNTEyqe3p06hx5yMPLpaGWevouBmZPk1PTlaBAYae+rMGdvqdrlBBx9e9piGhlekd/X1lPwwSqLlJY/gDcH9ACoBRzXvyH8KfEgWkceo699JPPqs7EtWgakD9itUcLWzISVdd2Y9gmhy59kvyKatwa2uHVjYO5O4yHd1/GruwWqXqRgZGNL6iQ6VWDTumGJmGhTwz4jrl0JRsILSC7qyJS1vV9LU0NWf3yoTJzs5OSCh5lGHg5q2744sffaamJi2a+eLpmJlVdDOGW7IWzX1Nih9oN276xccXDXF1cXZ2drSztaG+bq7OPnVq0rNbFH/opmYBkUezppYSHBKekZEpOjvTCHLh0rWYmCIXQEjzm1FDXZxLH9+iA5XTcrVxmjJm4dpNM11YKQ7FTZCRnzds6KzKRE0nkhJ3HQu+W/HH6qmVider7rbOG98XBakIH04JIJx+xaV9iHrBOaZ/g3Ykzezuo1CZ8diT62QhZxAgmj0yMYakJGH4nhUVQm7Tn0QqHUa1zcez/51/ZhuOGpms+gKc09Vy8YA6sTe3blipBlzmUCaAIsMRbcmFfy+8vCcUB+OUG43sYe9CwwCSLO2nD/mJxJBw+/rtDHR1X107SCIlw0F5ub9PWWVMKCrJ9Px7P3yMCQktKSg3acIoTw/3Lp3azp5bdMWNW7K3b0Oa+BZlGEJ4P8VzyKC+XlWrULCW/1crtAtkBJ3RsnkTGLVw+YgmfdtIiQ/3ZtSdI64jv50wytbGWg1itbWwqdGkW0rAFZ5zmVSpI061UBwM9PS/HvTDpUN/6+GdvPhT29xKT6dCvk4hzynKIRle5I8+vnY7+AlDuyAO5suGHfAlZZKUmdpo0SgSAxjVVvDI7uTti3z7SN/C6FVRE3Ut4fYGTbbu2iFkT7gf9pJzItSbQdUZzi4Kibwy2L4EAqELEnA3NrUjnvsp+Xnfi09xTUmsVd02N/3O2meV3qBIkCTso4P6TlaFasGkb4NCqaktLMyhWgDb2FgbGxllZWcDTkouKhqLT3JKyc2YubmcN/YUH3X+Vyu0S+8enS0ti8IYb925/2nzImeXoOCwrKwiWbu7V8RVmN+9hzhI4peo6V3tE71K/j+4db9Zd097Gkt3VUrNz/+BiKMWtxovN68DRmYOORkUgZGuXnUzi1fpct4Ci5ul7OFxXwRfqY1Df5awNbhXzTu9pbKtE77QPThANKhYA+cbpftxSVgDowuubqjijG9iRuq1wIdPIoMeRbx+GhkUnvCBolx6cXcdV08Um2EMpJrb7pwUVAunZBjI2sWFpWmkWeWaBly3qTQBBQzsOebq4VUMJGczWKdwqqeq3ktwDdOzeyfMC+1SOvun5x91zw+TDH27Y25mBtenpKQU98oVjYyYxSNKOWgBpCbtgntGCZulVAsIYMviJAsKLlHvhQWFi5asgucYRda6VbMv+/UyMCjdRUFBvuS5OPlLQJo5VtZJiZVAQHVlmRYH+Uul09GpVr1B0vPbNCEcXQTtQktDAoA4D0QR/tF7HJloi6RHMOPRCUtIjOIwEnkh1Ab/1dfVc7V2cLKwZRvb+cyCowyc02j/NCgbpO0p+BRUiyYISD5P3wctOLP94KPLJFKAxUnARlSXdGnRSxwlicer3sGCfHsejmRNfNolJMaTYxWEYUWmOXhV9cCXbgIIfxdJvUwDhgrBf1NSS89Y/2z5NzgkDEhoozatmlGaCU3qk1+Qz7lUmGk+kajv/6XPZZXOGfH+Hclf6psFrPokPS3csPAIEn/zlp+hgcGAfqXm2eSU5Hil/h00q9k89N4JclJO2JC3g5mHa9UAQrvYif7D4GTOE7ltxJz2NRrhFR6B3DyHfF5k/uEvu6+dBtvJ1hGzO9dsoqLFozQLUh5cDXyE6zh2Iq8aTu4dvRt3qdm0T702ci8AuqS1V33O4TAaDdz8i1/oc85eAckpAQtRp38P5yqcZGxkvr6hDo+ESV7OngmJpUZ4Nh9ZMQYSrbknT12gGEK1UNolObn0eoNSLSCA8R9+ZTi+dOpQ+qcI12vOpZZl7SKr9BkeyenpJVdJ4DNowBdm5qaHj5yiVM4dP/++X3TTI0zlss6lFPp83s48+qJL1f1kg1F8Ga2r1YPD7tsYEQWsOFut4lDZ1nnDVzNUoVpwgNh86xiCaSRXKX7zMRzf9dcPI+vXgAYdxrTsLU5PyCe3ijaOu0bNnbD3z6tvHsrHoRyOyv90CqT2npyebG0u4nEnViY8//WJ8hfLTRkd12/effk6kOKEZx0FmJqY1KjuhWgNMzNTHFZgfj51+gL1AERQefu2rRiGamUsRAk81HR2MTIsdQrEqnHBJW3tImcXWPsp+qa+Ddu1bQEY6mTLtj0AENT6LuK9R5XKFAGsMsrVNPHJ0q/FMHUuP/MgKEOjS275qAUn81ZLFL2E/958+8TLoRIsDcb6hll5JRKTQP/ZdU1o3U+y6YXaEdy03iV8+EDk7ccfE7Lr48ENewznrvf6n//+wEpcgnH2ciJRWAU+0/gi484fvcfDa4CTTA4kipIhHTJuAmFqkmN4ORwCMz6567cRb335HW0r5GTjUUKO5YSDo4Oq+SonXRDFn7wZI2fEnRiiJilMqxZNPDxKHmtOTg7/mzwW4S9ZWVlU/Li5memmrbtBiQfg+6hoxFRSo/T1DazMrEieGoTVpF0qVSwRE7XVqKgoyXtm3IzpffJMt7e3pQbWJVy8EV9JaxcLc0srK6UJF8+pwP+uOYuqRs6VW/HOhf76tb89wSIWf99K+sw4ssbFyg5miSvT1qGuVEBEyRuQkthrkg0OCig2TGdR41wKXvYPP756423AM/FO3qimTBs/KCawqYzY8fu5F3c5efJB3g151nnVlGFNuiLPJoMeIS/wJ74d/NQfeRkI12S4p3s6uHk7ubet1qCXTytOvwOoUni4fblpFnysGWyFJkMCcXki/4juPL7KR7uERIc48lAtmOv5ixtDuwxlTKpIM/mTJxjJBHZ7BL5QMZUw9X85oDfZCxiXYLQZv6pnFboXYYK0dtHT1dPIJRi9GBJQk3Yhp+QDV9ARObvQAZI5n2qO4YyCyCPKj0KcLwCfiSTTbD65mY9qARNjXd11B1d8N/AHyQxDooKtM1N1PgVpwq77Or3E41DyQD69i/p+S1m88Tb96JddUoc0XjwK4d9SyTROgMrEJyYtQxJizpXAnQyJYf65dTQ0TsorC4abi5rHbgY9HrxlDrLZc3KWCYnqAEjCf3LScrJOMw5Di8/tZPOBpkE6TnwPB1xF4kuce1AWc2DDjgxK+Cngdxy67bdTz24xuoQmKYGXqck6jqWIgo/h6VnpZtLSxx04tYWnpdtdV/+U/4Ven1LEls6kPAihLdt27ktILDo94+Jr3JjhsChLYI+nH91LuwDQGC0BdLVkHcxliCgXHTp2kg7mx9GSdtGzshLxt2Gykrd9++3D7DAZjKuFUUH3X/lJmC0rJ3Pv/uX6n1QLKF+kJ2eJcZOTwKdcdSGU0n/Wdk7Vgmf0byc3Oc3oPvPYOj6qBSH0pMHmzPM7XVZPVYpqoX4RuLS1XT6RDHuEXmRkS+P87S699h+0ebbrzF5bbh9nECB3GbKr/dx1BAMvNEkJROdkfcwuDcc219Vbse1XkoANH71+0A7vefw+MI7eu3aA/GX5jZOB6tyFKy9flVw2wJDs7ERoSx0dGGNWrt6E74FDJR5G9NMPc5iYcN/3yjC9aki19OwC7U3ut1atGlSU5fMXr2HLsrQwR6ZLigCUVdxFrt3IgXLD117cvXhmaxWiXpNUVkYV9O6c25WXl99CtP4VNTA5LXnNttlOoifxM3HRUtnyJ0BG/ShZXsOjkniZlPgvQOmUqCR2atJyTrZ4nf92318SwvIZoxAJv5mIsINnXc91Ug6aDA58mrjFar9y0sNZO2kDz4ahP+OEBJcBqcOh58btXvzPzWObh8+qX7E6Sf9n3+9sTCyhREmkAJMSOBsfPepTggPgnfNyF/4zY/aEv0gaGj5weV/yizt0kw9Q2chk+eaZY76a5U3MwmcgHxokRT515hJFiTC+ju1bM0bheoZKwBgR+R66x9DQ8PWbIJqGtgvQGC0BKlApOdW8GthdoqM5Hqw3bvn9d+AYFgP98efCOeSqlq3cQOVLcHFxqlbV447fA+qCEnb+r0cMoim9vLwUtLu8i31/4eaRzPBXjIx49BRSgQx7t84teteqUpuijE2Kveh/PvLZLYZX/qOUxI3vS/9EpLItbwSe9m4Bs3dxpsfHbdKaqwf4C8TKxPz6Dxtw0UQPabviW1ho6KZyAVRvQ3lQmifyuHRd8z+6yQdAheMZXZjnlf7/zBSCKyVI7zeP2hWNTUkCKotlm/rtzE1KAhXvIovl7RN28hZeQ1bAPPvKX3Ye5uVSFFQv9wd2l6Cgkn/7aWnpvy9Ynp5R4haLBxptXQZ/Y2MjKBvQ/PbHX9QNWC3v6o6O9rfv+ucWmwka1KuDazR6JS4uLq6urnRTs4C2ahdLiz8XzCZFExsX/9fydaRrMnoRhjlr+hQyCb8i2mXr0TUf3r3BVSydqYVcgHLhmJzsRWEvMpSagV+5K9QsNwQt3vt5W103L/YyEA5y6NEVNl4cBqwu/W9ty6p1aYLAj+9qzCt9I6HxSgSil5yGlxrNEPYV2OfpJh8AydDWfzWDpEzNyqi/cERI3HsSKcC0BBCYPNujlgmP6Eh6iHxASk5OQnaOR/VGYwdOlo8DqV3gJ7Zk2VpxfPCIo56ESCG/dftexmEAObFm/DQZ7+L0cK3SLiIXUPQSNQ6wo0Ac7O1m/PAdlYeHWh4yg8748TtStSi47PTkeMcKFdSgWuJzs9dGBAqqRcLv9WuPbzhVy/8OrJBJtWAKhI+QqgUYRuJLCcuQuwuOZOTYAQ3arxn8I4mRCm+4cWTh2e0kGWww20eKHOjJXgGOyclaH/k2k0d0pIKysjQ0rGJhnizLLbSCM2J4w/o+P34/sZqXJ8XKQF+fwpCqRfFZlMtBu+wuSGyAr7gdOjjY/TTtW3G9SsDzDK1SbKb7yfF7PoSr4d+AYsvU5Gjcif3SbRR7Bf/eO7talgsxcIAfM9sXCwmJ2cyVi6EzidFsJ7cbCOSyi0VBWjw/SGEJAwyMTzR9m2oNkLhTVv1KDy/zwJv01N+Dn491q+qlcJJ8tckK0fjrV//JZzq8W0+bOh73N3HxCRXdXJQb2MdnAbLSaOnZRdZtKIWecepUCk+SSVxO9vLw11uiQgTVQoqFDSO7MBsJr7Dxexaz8eIwSI0Mj4BxrfqwCZwsbUnnMTaB4hgf16psJkv7T1nwxQQ2XgJm+I55DFel5QOmypfrTMIsZakrIS9n6btXu6LD0kVDLMvMHhGuD4Wk/aoFAteus4tm/wLyDY2ii/8iTQyNEUWhxMUk5Gb7pcS/TEtRIs+yygrOx5wpvKYd+pud9UucEOzMrM5N+buxe01xBGsH/9T4z1GwZIgjUARf1cENjtScHFBrGclsUAeMs5eNTMpInX18I/Kq0V0YPtS3K9In0xgBYEgAeVtuJcX6pyT4mFv5WtqaiWYhYxDL2rTQN05NT8MoB3NnWceWN3pBu5T+4hk2zifC36DtbeW45/nd0g4BUqMExrYsya1EzgkH4uNPbpAYCTDSXF6YutrbWZJXT3Wnyme+W9l59RT+GkvCjIyuJf0kGXtHNO1ua2oJ3wQyep/BgWxCkaBODEJnaOTXzXoI2oWWhjgguyD/QUoCvuII5MP72nr4P3+CsXOri73Dl49z2Rsl3IyVtd8UcajdajVbNWjaxf+tvvbDeupLbrJ77eYqKvpLziI3PIKr2Al/cwt8AR7M2iFZtVBrQwnIGz9uJEPr5V4zOXDn17/Bhk9i2DBMKZe+X2MtmnWfTUZjUOOShgHA+sKZPIakEWBBAhqXgGbOLrg0NJCY50BuuTCSK8vN5zMd2Mar/qbhs5AlXtz6Uab+zOSV6MU7+38PLooj0xQemWxQcYsxO5a6/+ElBpKz2bVWs0PjFyMpGWcvG+nrXuvJnN3Tj6zZcbckdSCbhj8G2Sf3j12ILKJ8hrTwrHtn+ubua75n2//Zw3f6nVk2YCqJR1ozFIAhMQL8GUkAjykVPQC1yh6jGe3iVPz5jP4aPoulIivi+aklpb+zcrMfhL82NTRqWNmbXLx/+KulF3ZP7zIcAeGHH13JVb37Jjm7VLiFpw+b5vTz2+lEng82AYVBqq5/hs4U1ysOj1L220f+imc3zgfQMfKljIQT2s9dRogrMSlualiYcMzqtuZ7qdnekGrzWuCjdtUb0qyae3AIiu4VAC2XgKWlZd26dbV8kYovTzPaRfF1CxzYEkB0N1X6e8y/C5BUMTsvt3Flb/9ZOxiUiKJAMDnyObb0qodnFqNXs82GlWqwF4CEYGwkAwP18GMn+bPYwgsA9nZ874e9PPns5vOokDcfwpGVkjEL2YTjGW7h4HuGm8Y6XB5iJLE4GLoNt3NDts5BFh9xNBQeQiC1SyPRlwbJY4VeQQIakYCgXTQidpVM2sG7EfgiE+K2O6ckTJCclY58i009asNQrG3ahdPL61ZwkRFV3Ac3aXvHzFdWeZUmVWrhS8+VlJmakJ6Cb3pOFo000NOr6ezBqFVM9+IeD9VlwuKjIxI/wpkYRWUqWjvC0QsAEu/TZDSAjGQnvl0248japRd300g2gLqcJBK6Dd+PyjZZk1MIsCABBSUgaBcFBahFw10s7bEaPjUNU7PTQYkXdi1avY6Oi5U9npjsJSFxCxtJYWDfPjhuETJUiiOg8EgQicc9QvRD46OM9A3dbZ1dre1RaU2chqC5WZtY4IvoThojAdj/4BJKW6JqsjgapAwY1KjT6Oa9EHXPoPmr/+QWVX1G7ZyPkjCMLqr5OPItA49z3lkFytIwuAlNQQJKl4CgXZQuUo0xTMlKx02Lg7Sarwa6etS9Cug1tlauiTlVi7jU+ogoRObg/3UYzMWpBIc8lTjGHXl8VVxcCywfY1p+Mb5VX/bjXgJbdhcOK6N2zZeq11FGDF9UfFk58PshjTsz+PSt1/bx7Oqo5sLIIkORIfAFuyDX6WrtwOAgNAUJaJUEBI9krfo5FFoMZRyGt7H1p4ywnOxgdLExtUTXUy3L0GwhWtqLWjxnTYEutZo++3WvBNUCndRnw3QkQkZlYnGqBfxhWfnp8Oo684defu3PKSs+SCiMegtHSFUtNCtcl3219dd2K75ln8mq2LnAkQznGJqYBHDVRja17ehJrk2ABQlAAoJ2KTt/Bltvn8Bm6leqHrLgCOrP9/ZpRWkRaoc4srT2qgevqr/6TwEGqXbvhb7Qqs2TL+b0whi53/D8xVXY+SmryOhCmpgC/ji91fPX/iee3mTgxTVx8ui0aopks4e4sZgFZY9xsBBHIA5//W0A8jSvvLyPTTC98/CQ+UeoMqNkLyMljNRrPXKsAAsSUL8EhJsx9ctcVTMefHQFVU+mtB8EpYKq7PjSMxVuEDEGwMF3+La5eVrmjswoS0wtHmYSCkDYI0LWkQuS3hQbeBkdiiIobz6Gs7ukYmBXj06O50xxJm4s0gf03SiSJF8cpTj8D4dW4QQJl2gGAYIlz05eiQppiMV5/aFkO7GpRWVx6Y+gXWhRCIB2SkDQLtr5u8i5KpTVgrFhxcDvkQ1FHItn74NwuQ+nW3EEmsLbmhXd1zE+MBEhyxa6YJZgdDGaqKyF/F1pPCJjGAPpJk4SBYUFfw+cRmMkAIiM4Z8uTAIfBNnAAHZ4PEeW3F4+rfDd5XcG2fihMuF1RvIh68eQeAEWJKAlEhC0i5b8EEpbxqGAq0ceX4MzFYLGUZOR5IsLnLshz++FadeFGLVCpDRGQCK5Whr+pkVvGhYHIL5n+Pa54nr541dd2d/aq77UVC5g2G/jz8pyizgScG3MvwvJVJXkghGkyRmniVyfyDXA8FQmBwqwIAHNSkDQLpqVv0pmLygsRCCLtsWySNgqLC47Rv4Gm4oEGgldeDorRbVQU4zeNR8HJsmL2XTz2POoYAlLkrULWSl7+bTsV7+dTAP3jvmj9/of6aszmcYKxIIEVC0BwaqvagkL/KVIACHob38/1L9BOyl0YrojE2OgD8R0yoOGj9ni8zslj1zBZY2XPERqL44vskZHwrXh1dz9c3uOlcpcIBAkoH4JCNpF/TIXZiyVwBd1W1+dtp4z0qWUSCKEQBNl3VDR8/zrdxZR+nSTAcDYLp/jAIMPo5mYkfrbqU0MJJ/mvF5jtwz/hQ+lQCNIQJ0S0MzNWELxRxX7dHV1NTVlBkKrYiKBp+IS6Fu/7dEJS8TxQboa3Jgh8bA4AuBhyVckVEUcZ1Re2Xjj6MyuIzkJjj/h6+vMOVwCEhducEcW52z9IirkzIs78NdgR2IiJhTOdSN2zJPAXOjSHglkZGRERUWpYj22xR9VcJaDp2a0S1ZWVnJyshzLlTrEwUEIYJYqJK0gQLZ8caoFhUGn7F9+oDjr/sQ2/Td8Jdbrd9axDSraDBIzi9Mu1wIfqmhSsEUlyv1jF7D5w3rfZvlEqtYZ3MyQ4prhFji8abf8wnzkkmGPFTDaJoHc3FwVPQC16t1auBnTtj+8crEepJ7cPXoe51YRZug9bxClWkCAxPjiwuDXXz+sihsqalW3gp5wLg8hjfJl6efkxkZi45z8ERlDqRYMQSqzuguG3wl5yhj+dbOeKIrMQApNQQKakoBmzi6a2q3keU0TP3xhXFR4yiQzxcVdpCyK5IESetPy8pLyciKzMx+mJmTm50ugLFddW0fMQUo09pb3+V9ALA4Dj2iP9jWK0j8zPn9f+Y+BUW4Tj2/U+GLwRCpMBkbpzf0PLqIWAMkWOWMY2g7O5S2Xjj86cQkjDGjD0Bk4WnGmzyEZlhPYQl+/sYWti6GJtYGBqZ5ynnUW+sZtGzaEAE0zVXL7UpZ+GuVIvGxIRD83x4X6E8zP41+VlufeR7pUQYnv0/FR77MyeQ6RjwzZupBq7CvfLj5uVRnR71FJsage9s/No5rNrQuzQe+6rdi7O/v8Dlu1gOzKmwdsYjgEv42JYOOViGHExlOcM3OylTgFJ6tDj64wtIu4GgSDt8zxm7GlAVEUx9LYbM3gHwdsmsXJufwga5tbdbJxwn9VsWUXQxuwTSnIVQXzssRTuBlT36/Z2NJ2rkedES5iyxIrvhTETET+eXL14B+be/owVAuYI6suQvBQ+Tjgl13IQq/4dHJwQFlizmB4JJQcvHUOJ8P49GSkAmN0Ie0NA6P0Jn0TRXJOz1HtywHmQrJ9xuWYuOKVOXm5vdf/hMqV5Ar7N2jPzlFGEpRt2ERPb2qlav+rVF1FqqVsS0+5uxPOLsqVp3Rura0dnQxN1kQEZhcUSKeWhaKSjSMSihjqG2AQyoTglR/pXpDahOKB0lUI4G9apTZqeiPT5YlJy+ovGF4oC3+l0P7SbRSn//HgLbMlJDNG8XkU4CIXcJJ3kkpylExwTj7Hy6merp5MTOQjfhD+ivQcY2RHJnnipm7s7kXHJv5FIpcPmHquXJZ+sdU3/L5ydWejovtt4aNxCWiddsnPL3jy7IW/f8CEcSMp6SQlp/zy6yIJkvr5p8nulStKIODZladnkFtYaMDIystzsCxk1U0txrl6ro0MkmWQdNqp7QdTqmXc7kWI/UbEPnuMk4XtzlG/wV8LVXu7124BD1c2jeow0CvIRMnm//vpLc/eSwp9j0qKY4wKiAhkYJTeNOC6qScf+kqfkWbISM6P9Jp0FxtAMs2Djy4PbNiR7qrl4jGsSVdkx6Ex5QEw0tX9n7pUS3pubr6uMh+eOTk5N275BTx+Hvk+Kjc3Dw+0/n17VPPy5Pzhnr94ffHyDapr/JjhZmZaGoOhTAFxCoI/Mjk55dad+7fv3Ic6wfs1/4HKopw69GfcwDwNff76tb9ZXJSxnpxvqR8LdZyr1KrmXrNB9YbhH8Jeh70MDnlml5FCrrOuhU0ve9dTccr0eW/mUQdT7Lh7aktxKn5yOhr+mJowdOtv8csvAINSiWrWLhNa9aVXQgMoHLnw7A66yQlk5pYWHgYB+6KMc5SCyOpcoTbIEAMVjispBZlLHs64GcvOzZFMD8/sAfXb6+qWXnRPajOgvGmX0S6eLqKnFlwP5Ng5e1SuVcuztpOt84OX99+EPU99H2xHCEqyYBm9Sbk5Seb2Nas2aFuzsaezEt5oKf4pqWkrVm2MiSl9hQp/F7ly9aZRIwY38W3AWENBQcHho6c/xpR4l+Tl5TEItKepFdolNOzd2fNXXrx8U/jpdZu/csG/KCdH5cS46OvqocZtUZlb364n/C+8vXXUkuvtVcKPl1mQb1298Zwe39A0Pp518dXpMCQg6PHxY+vdDEsrq3e3c7mVFJukvOcUwh0w74Pw1/TsnEBCRgpejas7VdaXV31ysuWDRPAKm2zRuZ25+VL+heSKutu9EV8Lmc1fbkw1x8qcY2s4VZZ80uIcJROS4fSVI00+wbGRu++fI5Ndtqhat4aTu+o8tmXajhqIvU0tG1oWGdvpzwcd3VHDZlRyKI3G7eTbBV8QrP5vqUnMO5qSJxCdm9O2+5i2tZrwpOdPduTYaVq1uLg4RUeXlIn77+BxH5+aJsbGJCv/h49p1ULitRDWCu1yx+8Bznqi0ik9u1hbWa5f/ador86Zc5dPnbkIZP26tY2NSx/ZDDK5m1/4drlvZXfr9BYLWRRM3bYD2zVozzlpA6/6tqPn7tk536HYLgIaA11dKJh9yntQvooOa1utoYMFh6cvY0lUaRA1XC6R8zb1qO1iZU9iKBi16NlIBoZ+7aDw4orPM0Yp0sRSOauZgWe3Ws1VrV1gJCMXr8fjXXun3xlSu2B4jzotyo926evoRkospoLur1NWkRgSnjpk+vZTm/NYAUMkDQOOzskaNnxOVWflu+SkpqY9ePiEmm74VwNaNPd9GxSCgwswiDoPfBtSz6cWvRgYDqjnHo3RZqD0KK3BVUKT4AhSv15tSJZaBnnG51zYXb8SL1XfxvU5CRRHNqneyKCKD38+SZa24lQLxcTdzq15u8Ekw8ZWdmRTQRilw7Jys8e0+EJy5eMxLXo7WNigMOWRgKsKzijT8O61m7PpkbMLpczYeAbG0sSMxBgbGJJNVcBdazUVx3ZQo1ILhzgaBfHwrCM5cNaEJgkAIyV2SmY6iexYozHZLMOwrYGRJ1FsIrsgf+SQnyTvd3SvcbjB5v/xad1PFaoFC3j5KhCXXQCMjYyaNimKpIG5xcCgyDcHn7g4EZOb370H8fGJVJf2/1crzi64W+zVs4ulhTnsLnfuFlU4l2x3gT6PTygSsZGRYZ3a3qqT8oiuI1avm8a4zOWcLqeg4JsBUzm7SGT7hu1v3TpCOz/hYFTF2CwsS+ShQNKLg/G4acQV7/nbyU1/9vvu1k+b5p3aHJeezB4OW8vvvcahgFi3Nf+Tet/CHq4IBucq9vBTz26zkWwM42lrqFfyb49NqSyMhBIvjd1rwvoSFh+trLnYfFDthkQymmQXDcM58MKre1827EBjcDlGw2UbqCca15Jt60xeiInbe8vW/YNuHRHXS+KfZWasbtqDxCgRtrOz7dm9Exiam5vpfbqs1tPTzS0x7ZXe4sDEcvrcZVDWr1fn8ZPnSlyDilhphXbxqupBbY/S4VK3evdeycGlcaP69O8hdZQcBIipTMM7EY8KwYkGRnYWvA4ilTzr5YaUHISxpIrGpnJoF1z9I7WwuB3VdvU8OH6xuF7gfdy8EldcQmkQng93Caz4dzWsXINNfDfkGRvJxjAC+8XdWbEHyodBTCKKQkoYO7F1/5nH1kkgULDLx7UqyYHTh5skoGC/0OekdsH9J+TGiIZhjyoDGGdDEctE26Y9+WwKr3oPrh2w1pf+DPT2bpKeIfMroIQ15BHWVq+qVfAliWPj4rOySoJ2nRzt6S68fCclJevr67du2VScdsEjlHOpZqYip3+ap0oB6ZJVyvSh4SEkH6lBAxLOLtnZOY8CnlLcfBsxr8WSU5ISkkTOkuS8csBt6nWKDpDu2WnMVbWXc7qannWeEtrFwVDllzycy1AzEikX8chmT4qq8mwkG8Oo8ktGp7OJFccMbdJVMpOfu47YdOtYSNx7yWRy9+KISY6taC1S85jsImG2s0N1x8rlQbtYfrJlUtJoVL0BKRYJcDb+9fEIO2vgUT/6gzLdOw0kXu1evV5yoIfJuaZ3dWr9Obm5cH0C3KRxfVNTkaMtucHcvBzOpXp5ViPJ1AOrSbvki/r86FaQYu/R1S09DzIE8fDRE/iDA2ljbVXNq+TQQ9NAdTPmorvkA0xF7yjEMeF56sJwI9E/LD0dsTsVNxfw8ClCjIgEAj5djKAKPkPkpnG1Ln0Fo5nEigaZ03g2wKgUCbsLfARgOmJTKo4B87k9x0jls2rQNMTJSyWTgwD3YLh8IwciTpZsioNj05g38tam5uKIyxKeEdqVkp5ixZXFjmPLRQ+iIpuH5A+8SSUTKLE3JDT8+o27FMM+vbvhioyCgYT9H3DHDm0QHKPEGVXHSk3aRfYNiH3mwsGM4ta4UT0JRxzZZ+Qekc3D5oyROeKLTTH4hkaHkphkac6mJDENQ7vMO6WodqG5qQFgXG1RMyZwWYbYi3GzdmAjO9bwVZF2+b7DEMZRiT07MLg6Q+mzEypIGcAu3+LFFXnDXhXDqg8CNbg/sJehfkyK6D+iwIhA35q8/IYrIGvcJ1OHhGV/TIh2s3eVQCBzlxiHgrS09M3b9lAekh4elSkjP5jjwub8xSIfnOrVPF2cHRENI25GWAqMRD2YxVGqAa8m7eLhLnLI+PDxo+S9iYt3iYtPgG6nxrKvxYC3traxMFfm+9qxM+v4ZMKzkhbvRu/31av75MMyVvVZEempNQiYGojcjFMrkXqEpcgQec5e+YTWfRed28HGK4iBXhFX1oXNGVkP6i0YofTQztndRjHm4pkggHEsZjApw824vBIrBbXHO4+v8tEuIdEhjjxUC3gGPL3Uq01vJQqQs7gL7j+gWhBUjolMTIzHjh5Gz3jl2s2MjCLXSk8Pd/g0ffgYQ3eFhL5zdXFycip5qOjrGbg6K1UR0jPJDki5oZKdIfcIPT2E7pV+K0i7DhL33EEkPzUBFHjFihxCBGdyIgXhQ1cPWPEw6WNJxrq6aw8s5948gQ2JCrbNTqcRONG/5vf+Tg/5TAHO5I9U3hqpO+LULkg7JsGtSypPcQT/jV1gRfi2iiOj8NYmFgfHLZJMI2vvNy16e7BekyUX6KSnMBM1bgPPmeaZpi8zwMtUEffIgo/hGdkZUne3/+RmqTQUgVNBweO3j3kSy02GQBZEulDDR48cgpt/mtXlq7co+NyFq3+v2fTfgWN01+Ztuy9fvUk3tQpQk3aRec9cF2PQ7X73H1Gs4C0mM08ZB0TGRUU+k+Vniw6+/8pPwiRZOZl79y8nDS0v0pOzeBgVJfD8XLo4g1p45mluVJnb6ZwzZZkiAvmr/+S21fgahKmJmlSptfebPxSZlBxb1cFt9aAfSAwNw85Ew+IAhnUKZGxLjLixnzUeoY4fiRtsc1295WLybdPbPHr9oH1WkRmDzwdPo1OnNqk0/c/L14HQHNRi2rdtyQi0UH9aDT5ikUqjpdqF06Dy6vVb6tiIXTUrDjuSuj25CQLfB277d75MmWCMKujdPrfzjpgAjuS05GUbpzuJnsTPxEXLvcLPa2BkUulZnlw5+4FI9lKwr3stNhIYaJ3FfSdxdsmBxKEBNe3lGIhSOn/2/U6OgYwhiM9HqmNxoS1NqkjXLt5OVRg8VRqUw5hLs82zouFHznm5C/+ZIW5JBy7vi3tyQ1wvJx7/cv/cOD2B5TfBSSwrEtF7W7fvpUbhSqZfn+4MDt26dkBMDP1t2aLUqtSxfWufOiI+IIyxGmyqye4i6w51uQwvd+89pPjg8tHGxlpWnjzp38W+v3jraEbYy5JKYjyHFZOZ6+m/uPqf/7ObnVv0rvXpcRCbFHvR/3zks1tOon6Tj1ISgzP5vj3JsgptpA2O5XbexSu55CegrZmlt/j0G7CRoLLWaTEanb8gECaydcRs/vQMSjgoV3eqNGzb3MxcEQMAg0xCE0rl8PjFdUTDXEj65h51kIuBxLDh1tVEDvT3w15ylqhhDywDmDvJ8Z1snRE9Ru/FMTtz0arv6jfp3qZ+O/NPt513X969fvuEnVz/7lwK8rdv/sW2aoPhPUYbiP5bpieVA4CP66Yt/2ZmluRphRHl/MVrNB8EjHfq0KZdmxY0BgCs+rSNoFOH1lZWlmSv9sBaql0QrM+QEYxadAARO28og1i+5pFr+1+/uGubl6dXoYLcCZIxtWnc+9snNl4tKMBlsHFhoUXxecVG9M8xJid71wcR5zH51vwZjUJaswaVSpz36WUjgH//g0t0kw108i59TWP3AgPLR58N0y++us/Zywf5R+/xvxKJR/kMYdP0q9/uxW/7Juz9U46V4ELs5KTlNZ2rsNnSGBRNoGFOwNTQmHGth+BKTsqyitz4Pni2Ry0TwnvYoYLue//z+/zPJ+Xn5Vao4FDcxSvmWYyMcJmRF/Zs3eqpGbpGdRu07dW2nxhCGdCR76MjIqPoAff9A2gYgKWlBbQLifmMYC3VLuybsXv+j6iYEqQga9RQJNZMWeKODHvlgLgclmKTj7+hri7pG0Yyic/NXhsRmCEaA0QSKAibGhh1qtmktoun0adsRc09fAC/T0Tl45dIzM4/0ETBlZDDL72+z9YuvX1aTdr3F0nGgLtJe6riQunC1NUjd/z+772zjLFSmzgrbBo2E3U8GZQvokJQmwB64mNKQmJGKrJK42XH27kK8mfDfatDjUYdvX0ZQ9CENR4rORJwbcHZbfwzhE5pP2h+7/FSXQlwhpMc4sNOLnDsyXX2IsswJiYna0NE0A/uHCkhrGXJRStVRGb6+mY6+W/ePlGKdpE63edLUIGRfVY9O4mKioqO5jA5wKzysbjIgb6+Hq6/yMUgK3VqWpG3laGhQRX30qzaJA1gLy8vK6tSXwtGr+Tm6p2/myTHSaZRvPd+cvyeD+HI1a84KzYHK2Ozeb3GjWvVR9z1PYbAwD5x7xIkbGcPVykGlTGv/7CBPUXr5RNuBT1h4ylM3LLzdma8ftB/bh5FmrWY1ERxrEg8NMHPXUZMaC3y7ol7pHXXD+EbKq3uDvKe4TAxunmvnj4tSbY0fPm1/17/C4cDropL54wgntEteo1t2YenawM4r7i098fDq+kpGMCpScvJxaBmZcVZynSiZUyntc3KxqYoe2whelWgitWmmNr9OHaefJzhkRwUFESNzczKiogoPbswGLKfhCAgh3h6VEZuGHqUi4uLqyuHMy1NoE5Au7SL4jtXRLus2jHPNCVe8TWI4xCXk70zOvRNRqo4AgXxRvoG937eVq9iScoHFBJ+HBlIVz5GxAkyfdE5eL7bt3T9jcMKzijr8A9LzrBTZuFlf8CmmZys8D5+ctIyzi5OZEZO1vY7pzbfPv4k8i0nAaIL+9RrM8y3W++6rRgEf57ftezinngZHcThWfBbzzEIq2Rwo5uoYXwn5BmqgUUmxiCDdVWHiihK1rZ6Q9QGpWl4AlCcTjOY9l5qLA6Fj37ZRfJZfG7nL8c5dDlJU1ZhMz39zrZO7W2dyFsypW9WWdpFuQvTKu1SqvSUu8nPkRv7Ok7xXaTn5SXm5URmZ/ilxL9MK4qTUt1nUtsBlGpBzXk8XO6FvWBkyEA8BNLg/9V/Ct7c4X275/65ZNnTMyuy/mWX9iztP4XBoX+Ddj5uVTkrpnzToheDWHITtofv2n2JLyIcbwc/ffDudXh8NFQOPNPwWG/uWacFKrmxPnj0D/hnJs+MZ4zRD9+9htUHlVR2j/6dqprDIEBOF0ZaFwYB/6ajhQ1kBWXMHrKoz7ckEgempRd3k5hyBafn5x2LfX82/oOPuVUTS1snQ2NrA0OVappyJV7+mxW0S6msUhwr74oqsrR7O7nv8ZeeubJ0pHZAVAaR+2Ev+m6cwdAr1ALTc7IOBVyF1glbeAxXZ91qN9//UJJFXenbWn/98C/dRrGfwqsG/tDhb6ZTL0IIYSqXbw2ItcQXvsJSh+Nh/fXO39OIaAmpQ9gEZ57fqbdg+IFxC6ni02wCZWFmdB7B1i44OeGnJKeYf2YbzEUkphzCqPLyICUBX+Xu3dfWw/950UXu3CGTlMu57HHT0niXsidoNeyIunSCCxanaqEXEJEY4xdS5E3kbudMI9UD4BgB0wh7rvY1GsFWxMCjDg0Do/Tm8Sc3cCmnoGqhVhWR+LH5X2NxYFL6IkmGMOyTOfbRBU+zbSPnkDQvo0OXX9pLYgRYkIBGJCBoF42IXSWTUkkM83kE/xfqFGIFGsnNvvbaQU6jyKZhswY16kTLBdYRPicPml4OAOEgX239VY6BEoagZI6yig1ffxuw8cYRWPKhAlOIC8x1Q6bTjgBwZb4ybR3D6wHucxJWKHQJElCbBDRzM+bs7OzgIM5fV6G92r3GxQAAQABJREFUk+4TCjH6DAcffXwdZcH61m+z6up+Cct3trRF4Hdadsaxx7KFK0vgKVPXpH1Lb0/nOMHsH7vAxcpu1ZX9uOJjvI/LxJ8PMS6OoAnkDn4UNwXYdlvz/bNf9zKKaYqjZ+PvhDxdd+3w8ac3yNw5DubWKDmKbAKgh/Xl9vTNi8/vRGIShOkw0jkjsydMQWy2AkarJGBpaVm3LocJUPFFqrSaoqzL04x2QcwKPrKuVaCXLAF4PaHke7vqjWDjnXtyUy6X0zOeU4fGLzbQ00eUCcI4JDNUUS8eoFje773Hs/n/PXAavmy80jEzj67j6bss69RIPfDriY0rZd9FfFryuD2Ljz6+xp4R8Ulj/l2ImBgqcSe8mdcO/olNhgvPX09wqG02pYDRrATgQGTwKRZNsytR6eya0S4q3VK5Zd7J2xeV1as7VUZ6R8kZHvFePLxpN3wZspp1dP1dtQR4/3FmW2P3Wmy3YMZ6qOal1/7nXtwNT/iAeBRkhYHlvKN3Y+Qn5iTmg0RhGFSW5EMpH83fV/Z/0+ILOMLxH45kNmN2L0TwpoQh43YvkpAWGgEuvTf8RDugS+AjdAkSUI8EBO2iHjmrYxY8rMe16stnJjiMIQULm9LOnFfcInugHJjh2+cGzT+Ms5SEsYgRgS/Z25gImubUs1sUDN/cb9sMgEKlu/gDqigMw5gdsSb8I3XG7l609fYJBgd2E9duO+6eHtW8J7sLmBE75mnEkMa5GAEpSAASELRL2fkzQFn1628fKbIfXM4oMlymsbBUX3n9YHDjThJGwbWaVC0kJRxz8W3lVW9Jv+84o1hIYhLGM1oVBSXJKQBDC2Iitu81gwyGH4TanH1RUumW0ctu7vTj1i4IcLn65iGbXsAIEtCgBATtokHhK3lq+KF+Xq6o0IUStAuepFIN1Egh03Lp+MntBiJIk2eV34MPLytZ7mLYHXh4iZFphkEIT+gea6fdDHrMwEtoXgvkfnuAg5mEUUKXIAGNSEAwrWtE7MKkRRK4IvF1e5cf36yU8HJuuGhkSBx3kn+GrJGXhYFRUVPyiSQhPaXtiokyqRZqnXe51n/lzQMV7UJgK0hAbgkI2kVu0QkDFZUAQkMkqAQkHeA/wasPYQ0Xfc3nduiDKlPJkQuWsDWcWmBPevTuDUnPE+bMvqyGuz6eyxPIBAnQEhC0Cy0KAdCABBCjwzkr/HplDaGH7aHHummSTwyYS43aRWziW4TacIaUcoqCgYxipfFGijapSZ0ZTISmIAE1SEDQLmoQsjCFWAmws2ZRpDCJix0jvgMuy7BkSK5rojbHKrh9c+7i+4MrxZlPxO+stCcqOba0UQwdCrjCwAhNQQLaIAFBu2jDr1B+14DISs7Kx+LKovCRVL+NPyN7ijhKlOES16V0PNtnDBXJkIxAkYnYktl9T92lehRZvzC2/EhA0C7l57fW0p2iEAB7Zcilz0byx8CVGbVtOOkrWjty4pWOdLGyZ/CEJV/xJGBG+oYkW6hnCQYeklKABQmoWQKCdlGzwNUxHSoINPeow5jJQFcPFavaVW/oYmnH6NJsc+udk+wFIJsWGykTpu+Gn5GSmT2kko0TG6kKjLstc6K5pzYpbvVBWWtytXvufX6lIsj1C3AZloBm4l1Siz+qEKudnZ2Rkcg/P1XMorU8bU0t949b0Mm7SVRSrBtR+BZ5ITcO/Zku3r766v4ZR9Zm5+Vqw0ZgkUa64iZVapGLQb0vsikHHJ4Q/d1/S7ePZGZBxkQqTQNDL7Vl1Xo0DABhoWuvHSIx8sHmxqbkwP8eXiSbAvxZSCA7Ozs+Pl4VS7Uo/qiCsxw8NaZdoqOj5Viu1CFmZmblVrvgdHJi0lLqoVaUYf/Tp7VXvX1j5n9qFf1/avvBlsZmo3ctIJEahP97cJGhXbAYcQUr+a8TeVMQaInixOSQ/g3aI/MKiVERPKyJSBq36UfWKGUiFHSh+SDMBbdtdFMAPhcJZGVlqegBCAlAv2iJHISbMS35IZSwjKkdBlOqBa/te++XXJgY6xvu+eYPcEfF+DknNg7eMvtxRJFBYkTT7pJzfClhQbxZ3OQKNWdoBd7MRAin7F8u0tbRgaW9Y43GDKTSm6gtjVr3NNs3H8IlOBrQZHwAqrg1RUlVgeMzSqARJKB+CWjm7KL+ffKZ0TA9qZFBkcnUITezt4MrnyGK04RnZjxNS1KcDzhQVQvPvrjTc+0P9NkFReYpS8PXO34//fwOyOC29G7RcXMj07bVGqAQslKmVpDJg3evkXHLRNSi0NqrPg4fCnJGZPv5l35dazUj+SDX52UVB7fP6T6anPH/7V0HXFNXF08I2SFh7w0iIjhA3Av3HnWvuq3a1u6l1k5ra/u11Q6to446Wkfdde+tKCiiiCzZewQSCBl8Jzx8edkviwR8+b0f3Hfuueee+3/JPe/ee+65P5jvsEisdbmRmYSt5aVNd+W6eDTXfLgPk+UZHARQ0+uFLy3gOBtOWBcFUPSaqi60xjUbUW2Aq48iw5KpKxXF5rIuiDcUnHyMmhaYK3tn4DRQ/0b6Q8S0QBo2YcBWPhjl+KktO1uyoXpkQ8Swwe26YpnGd+oPh5pgKcal11/cp2JdILjZhisHLRebC7wnkJO+EIVh8mrXHbxRbXS3cVj7HlgbTIxdELi6cp07OOgKtq0bVUNzo4OCoQhfTFgXPcgRM2N6AGpB2SJJPWgra0CNCwkGLnDSFBA/P74F2xAyiQy3FDIFS7Ru+ppaMEeYwhrevofpWv336EZOeZGKHPBxsLezVPPXT34XW92xpKuwzRNLMTo9p/sItCy4CcBsJ3pLJAgEbA0BwrrY2hMxXp9H+RlQeG6PUUi/CYfvLh82Byj3s1POptxB5fo5uXdqXBJIL81FiVZP7LuvIXSxtrNMDNX2L7WhQ7hn4O/TPjRUDh7+z0Yu6BemdHbOiST5hKTpHzC3U7oMRuWceHQdTRMJAgEbRMAWZ8YEAuGtO/cHxvVWwSv1WcahI/89z5b3iWwWK65/r6GD+9vUOdIqCjfz7aarh8d27BvXNiZxxV/gTTSmYx+3xl0j6Gm4Ye5+sDbzZtxk2KtYIxKee3K3mTXUUV1K4XNYEFKZHJvYeUAbdz9tR7zokKaSdTn1PmJosfSFvcfCPkQ4LhpLNDH90ZBZn49agBUilUlh4QdLMTq9YvgctKxMJvv5vEl7/lFRRMJGEICeLSHxUW5evlgsCQzwHTywH4fDRnVraGi4dOVGcvJTYOBX10BW757dhg2No9nwCcq2ZV3Afly9fivxQbJUKlWxLtdv3t299yCKtUAoPP7f2dRn6cteX2BnZ54R2OuvfvooLTHx2f2inFRnTRvx0Np1J4oaSJ6BEW0C2nUOi35emJWS9Tg9I8nF8ofY/5d845uT25cPn9PeOxguREk4zgToSHp616HwZo2kv/rvz2qRbU0cr7v4j4p1gSf74ZCZC3et0Q243txr6Q818qwZtxRiZUIAf425hhLhjJn3B89QKQXBm+GcNBWiEbfghPbeIIVwGOqBZ6ARcl6qIiKZrN7FM8g/IiK4vYezZ/zjO0+zHvFz01wpxk+KPpeS/H3CYiO7R7XtbC4wJRLJrr0H79xVHNLzLC0Dejzo3Pz9mhaAd/y17068gqGmRnDqzIWkR48/eHcpjSb3RbLBj01YF6Gw9ubt+KvXbxcXlyIYqRgMPr9634EjSBbV3p7JYgIFbsEa3Ut4GBvTySzIwoRSp7AYuGCP9w/7f/IqyzdUbK1M6hjWZeWIeWjBqOAOcJEGTE1ISzxy+HcfxGsAzTZ3YsXRjTczk+BIYHC4epSffuD+BVjTVq/k98sHvj+zS51uXQqcLQ+DiWBlf4oFvcZ+f3Z3alG2KbrBA03Oz0AtLlbUL1Peg602S/auhaCTWLpBaV8n930LVvcIjlIvBWMydaIRlP9NWIYt9f1Zm3t8WPVsIV1Epsye8aGfmx+qzKDYIXDB7a/7fqAb/lwEEokoMOLrV95EBZorcebcZaxpQcRCr/jnjr2ffvIuhWL3+EkqalrYbBaZTAbrAmx5+YWnzlwcM2qouTQxrxzzvPWbqNOhoycPHjqBmpZGaYqlabhNSk6B0SJSy4fvv/75yve5DhzkNiPDPL9eRBryFyaOVs34hNGuG5aIJ92h36RXMaYFW6RzaKe5cz8rsfz2+ONJ10f+9i73nQE9v1/44/m9EpkUVQNC8644sqHbd/Ne//sHJXxRDmsnvjixVV2Fw4vXmhh2DGTmVKgu7KMVwdaf+I+3gzsWSsGfAA+u9wZNf7hyt0bTAnLgDBv80rRxLuozDjzo0NxjD68ZdzYMKqHVJwpJ5JVv/ow1LdgmvzH5fWqwUiQFbK7GtFAqCes34SMLmJZ6sfjchStIpb17dl37zaeotYAuMT0jC7LgHRphCA0JXP3lJ1+u+tDL0x2hPHiYjCRs8K9NWBcEFxaLGRIciKTtlP15qqr4CN3by9PH24vBoIeGBiOU6uoaJGH2v7MGz8znGODmWMl17t85TocaAS4+PfpP0cFg6SywLt+c2gFhVyxdkdHyd97678zj2yrFYXf6zjmfqRANvc2tLNZRJNwz4OQbP117f5PK1JyOIrAXFebBYOfQDxOWqcdCRgvmVOiqF2XTkegV0uGP6R+jDLAxCCLcoLdEQh0BkUw6Z9oH6nQsZc6oBTCDjf/TEBw1ImYQfn78nE+epNbViYAflpDHjx0OCyqw4oJO3sAqC2TR6bQ2ocFwdY2NhoUW6AC7vJiwKSs3z245/Arj57SJmbGgAL+I8LAOUe1u3b6H2GoY+mHbAOAitw2kpm8EjBYRCpqF5TdXetaYxYf/+tqBoh+lepls/oS39NYbFx13/fohD4zTsN4iLxvD/F2rn3z2Dzi8YRs+oXMcuPku2/cjlmhQmkah6uWHfvzMsvVF/PLr6Q9hgvFedkpZTVW5kA87hGDezJvn6sTmurJ5/cNiRkT2VA9do1G+rEGmkY6TCJYVhm5Y5s+ObdYxDsNyvrRpkbOntlELFpNefcanXTuEpWhLp9UKPhs+T1uuiXSYlQGzAUKcHHlMpvxrD50b2A+YGYM00lVMnjBGpRa0A0TtkAqDLdzq7zebQcuePWKRWqSyFz9F5f43NCQIYSgqKoGLx+PCigtCCWsTYjkNYQ0gn0xui6OCCird2cEZByPJN6iDOOMBHs6Xkye3ovitfT9unbVCpfng6kazpy7e850KHeetC5uHk9OD6/xK5/5w4eS3HBvEkjn31q/YA2ke5qURKy56Ae/XbaReHmCIix4Qf2m/o73+PpDjHUKn2EulTZPzeITr5gEHMJShS0xHuNBbSFRUVCKmBdIe7qrnOCCcT1KeIYnwtqodoEY9KThekRGBZvyrH1mzVFZcUoSVA26a2Fv1NFnZDSzA33dAXO8LF6+BI+aa738Bw46s6oPVUXkwwlqByAR3L3VNOrTtJnoWr05XodBZDioUbbeh/mFPCOuiDZ1G+p83joW6+X4ybLYK12t9xkPsZDgipbi6QiVL722EV9MLil5O8zIYHewZ5ugOLFoDwUZRfeBUzYmbPkFviYQ2BCIC8LwQykuL7GFEq+jotQkc0GFA5vNMbblG0KmNEae0FYRFfiQLJmbahbfBsh0+eiozK7u+vh7ZmAE94cTxo7AM0PtpVBXm1bBszZNuJuvCr25aOEFaRZU/VF0fOzulmTFgnTBuZEpKWn5BISALH6Aw6PTXFs5S2e8Coa0l5nvFgFp8XfzScVgXFXOoo23ONna8ig5VrZi1/MgGR5bDkr6vqOgAMV1g3mzOzi9hZVslS8cthGYBj14dDJbLiguLMUL4R0NnfTvudWxBcGse8PPrpm/9wco0e9rB3j6SxfNhMD1pzEpJfY5I+KSGXyyWLyo054fFaHL50VspGXp5HOqpnNimV6wpDIVFxeA9i0gY0L+3Sv8GHSA4KyO50Em+9cZCZ2cnU6qzaNmm1QuL1mGMcOX3Cdj+smnLX4AsVlSdSLTu1y2w9RJLNHu6XoLrtyES4nUuyC3ONbuSrVLg0r1rN19rckPHNhBmio4u+WHDtA/xO5K9GTcJK6E50+BLho2Zr7dqcJs+//av6qZl4M9vJOWl6y1uRYZQJuezwMi5PsFDXLwg6ldfJ/cZnoGrgiN78lyaWaunOSk4a2wQazhfTr2soE4Avbw5P8peS2iNsPFl246/YYYGKDD/D7vF0SwkAW5NsEgDDlBwK5M1/P7H9oJCJbcRMtlOo54qcprntpnGLu6uTf5zSKuQeS0dLSQrj11u3014kCT3dKJSqa8tmOXk5Pjbhj/LKypzc/NPnDw3eaJiyYvNMvP5Lieu7WfpUPRFFhP3jrmkp3e4L0oR/3UjsGj3GtgBA3se1dkW931lXKd+a8/sgqPAdG9V+XHiW7BpRl1Cs1H2LVwd9ZViI6S2eiEqAezGn91ddc0gq6xg+K9vm2vfjLbaTaHDK+pwV+/Rrl52ZNW3VZqd3Rzv4DCWw57C7HrTHBzwa3g98VJbP6VDfTSWrRJUOcNbrOosiQbeq/HHV76m5FuhgckQUlVVVRFJabEAKb37739zcuVOYuDWNH/ONPVtkuPGyA8NAvOz78DRK9dugcfs1m17Vn7yNlo5jUrz9rbOMB3VAU00k3XhcpXWVJGtQKgS6gmVr+mj5CcID6yyRLQLg/TAAX32HzwGCdhnhC1Oo9FV6sLmGpq+m5ZIKc8laXnRwEpzoFD2nf978sCpWKJ6WigSkEvzSZZcYeMyWFO7DPF21LwYCCrB+jZ0ZO29gj899ofpIe7V22heCkRqgemgv+Z+jo0NjFThyXUBywEXeFpffgZXwsWn95CsLgHtIFI9nBADzl0Bzp4GqXQ1LRGugqqykpoK8B8rqaksbvyLCoExE6y3g/BI7xCoRa/zGLA9+/LAj+f27Ll7pqpWdYzbM7gDHEc9oG3MwPAm3xa0IkiA99rYDR/YeLRKbzpzpIsG04I2pKejW7KAf5dfjlIsmihKe4hH/l/HN9OVfVO1lXKqExRXFLs7Kb0ia2M2mg4TYrfv3EeKjxoxGHVlUhcIfmLdukaDdYEsmNEBG+PwYv+fOrMVKc1kXQxtIep5jBSsqqpGEjxu03s/DBsRSkWlBd299x/f1AaHaUE0yXp4uSgmzsPRA7nV+Hfdjq9cLWla4BjK/QvXgNeTxtpViDV1lp1UVKnO6NuDCRcTc1P/nv812AyNQqB3hktjFk7i7cxkiMx2LuUu/NVbBHb+Q6cPF8o5JKLbmKg+MJZCIlKjdDQBTgoQNBMuCDpQwC9D6FQKpbNfW3WriZZac2oHrD+ht7aZgB5knnewvbIbjrqq0z0CngmrKy2/mxiqhkAvGw78vGSi4o1eXZ8H6Q9kBRl4XhyhLI1st/mf71cs/l5djrkosFb/z/6meeCQ4MBhQ+KwkmGGBrnt3DHS21v+tsRhK9w94GWdsC5YuPSkVZy4mUwGUqCKz29KvNhfyWLhmbjSU53G7He3rGiH27SABCeK/dZtXyyc+4VbY9B7dZk/7PjCFfcEmnpxvRTYigELErAYrpcTfPZuZT5KLjCnG4zeSk1hSC/Ji/12LgSIROOkmSINLQvTbrC0s+X6UXDHQolGJGAHKFxv/PMDhBBdFjd5XMd+2oSEefjDpS0XpcMO/3k7V9/IUBgwNMvWEm3ZXF+G/t8g296+O8/1VFlB8+hvn5++878/tQXOeJSRdPbYHzxDft3u9XXr/vn+rSl6Nmka1zrYLb5h0w5kuQUCvSyYO11lwx8yCQbCYd/lhPHyudOs7By0Lts0LaCejY5d7JRHrGGhwcgM2L37D6M7RYGbxMVL1xFwVTz2UMRNSdzJeLDz31870ppMGn5RbhTKn3+uiu03cUDMQGypnOLc7fv+5ykzm788VjiantdrNJgWmEV58+8fLqbeK+SXj4rqdWzp//64egjdJgLTRKeXrfNwcP7g4C8QYBEt2yIScErNthvHf578jo7uG2dDYIYKYrL9dukATn6cbDA1BxcEldm/8BuVDaE4JcAoDRaT9t49g5Pf6myedLw/E8/mOj4SwUSUlvDD9s+XTH2frexCtufUjuKU2waZFkQgqyj7i3VvjB+5qENoBzPCDrspN27eiS4WQDCYouJSuJAq7O0pwUEBsJJ/vzEYzMXL8n6PSrWHeMkIQ2CAHzaUshkVM12UjVoXZZcxUt8+Pc5fugbTi+CL/NvGbWizwSdv+JAB6K2JidMJF26kxNeU5gU1NBhhWpDane3t068fvn95f609jcF1EgmqKfV1MFQ3bO7fqJZE+8nd/P+4cmhv/FmsAOwxWc/LC+fs+PLmh1v/e+Ontp9PNmLjCFZy86dB//EbPwIP47WvvKFy4iR+ZRJyUiEUW0FV0w8Yf0GcnKeSb77yx0ew7R8nP8KWXV4Iox+DPK0Nkm8hZi+a3H8Jz8eTipcTjzQ8PDx+2Z5NnxRLpSQmx55GF1dXcGUyJoXCNmTUgq3Im0y+/d/m4zI7OscpIixmeN/R2Fzj0rBwgmxeQYqfPnsJLlQUl+vw7dcrYDH/6dM0CAwP45vzF6+iudABTpsyHr21tYSqj4eN6KcyMwabhhbOmwGuYlj1GAzG7FlT3NzM5u+Y8uCKb0lOeIOMjmODFVYT9TTPnupJanDkl3tIxaaE+1aXrIOCeOUX8BWdJrKG7MVTWuG/lZkMHSuMciYrD7B0SLa1LNiyPuyXt987aFj3jbQCXLD6/7jEcqYFqQXOqoG1HPy4HX5wucPXM1ucaYEG5uBevcu10okP7hSKe32tc02lB5kMpgX/Q9HG6WYn4wrLHqc2uZBoYzMj3dXFeflHy9pHKO0S9fXxeu/tJX6+tuIhpt5e2xq7wJ78kcMHgZZgTlR0BQ+Kz1a+l5CYVFpaDlkwGIzp3MFmh4QqyjfPbalAvngQ5R2KVpdaJJ+c7RIQzqLShZhdY7AuDXTwHEM5W2ICvLBglPDvom/begbg1x9OJTDLgSt6ayyuln9R9X5EEvEH//7yi6aDEvSWtQUG2DKJUw38dginwNbBBg5KSKensTloHEV4t3598VyIg5WalgELB0GB/sjyvsZSNkK0OesCBkYbNBActFtstLZcgg4Ly7CxY3aPEXvjz4CTLgBSVF3+uCATgqDsmf/VtK2fQnhdIAa7eiPhScoF/JYOGrQu/Ispn46Y9+XoRTbVFgaV1l3TcS8qSkIg/Vd3fAFnz6jQW9BtVq0gu07gj4lYo1F5OBwlnm9w/B6NoloZ0VGndVFprIeHG1wqRJu9tdGZMZvFy5YVg7dymJCB+bGL7/yet0a+GQg+P5//G/7CichZqw9BmOFjS3+Aw0gojfPOiAVq5GrZf+CczZBPJ+A8YHhG16HY4F0WajmcUwkh+nULh/1GMWtmt2jTAg2EbeU7C7IkaPxZLW3eU/RcYGGvFi01E2SrIWBbYxerwdBYca2z5/li+VSSv6PHuad3m0eZSqnYXBWBK8SULSsuv7shyicUdYvYcv3ItNgh4Cnr7uAMYYbRunbcOgHbD9Hblp4A32JYiYHAxmvHvxni5qOjObAKtWXW8smbV+jgMTELAH+j/yQdQsAdHLz4HuQ+08HTgrKy64QnywtGKx8qitU/sbrColspD5Xmni0vxNZouXRbB8+nWfKx5oxBEy1XS+uQTFgXxXOUUOn54F5CInHtqU+FTfs3FdktIQUnkcC+kFe7jYgNbNp4CGZmzIb3vxm7ZGa3YU4sLjQClrVXn9wGmzxaQoMM0/HfhEtHH1xd2m/CqpHzdYTcnxQ9cO982cxtn+uN1W1Y9Y3c3YMit81aqa0g7Kb85MjvoKc2hhZKP1aSf59fMdsrKJCp2OUHbSkT1/1VkPVYYNlfU16d/CiU5vlwGa5PK+RTfFIcJwY1j0o2WwthXWz20RipGKwSb75+BC60fI2oFs7dMuXoLVSU7SfgpOf1F/ftvH3yoyGzwMxomwSb2mUwzFxN3Ly80qyvEXA+8Y7Zq+ia4qvDuTWrT23feOVf28fQOA3zRLVrspJ96KwINjeU5ZBXJ3ws5GcIBVKTPTCN04coZXUErGNdXFxc2JhIBmZEwUJizaghIaoZEACb8cnh32E9Zla34e8MnNrWQ4NTGcT1uv/JDtj4Yq5dpd+Nf/3DIbPUWwfrYVtvHAP3NvWsVkZpIJFzRbVwnSkvamVNM29zoJsKDQ01r0xEGuzTsIRY42Rax7rQGz/GaUyUIhDAiQA4XkOcArhGRfUGjwb1I16A8vizv7/+b9vqU9vqxPU4xaqzwULL2vFv+KpFOXz/4HqwK+YdHqnXTlBaHAL29vY8Hq/FqW2owtaxLoZqSfATCJiCwPGkawk5T8GVTuMWn5Uj5s7pMfKrk39uunrY0FrAA+3tAVM1htcc/us7L8N4xVDECP6XBwHCI/nledYvdUvzKkv6/O+1R/npGlGAYccf0z8u/9/Z1WMXw/ldGnmwxGj/tsBZ/P2pXXO/UDct1XXCuJ+WEqYFixiRfgkRIMYuL+FDf0mbDIe1gEPdhmkfwUhFIwROLIflw+bABSGT4YiX+zlPS2uqyuASVNlTKBD605XjGOTiBZH2/Zy0nrMQ//zJpM3LwTFPYxUEkUDg5UGAsC4vz7MmWkqCxZW5O7+CPae/TXvfkan1qAKwIuD9BZehkK0989dHh34ztBTBTyDQKhEgrEtreKwQRmxSzEBYo4beM7M0/8qzBPSIKvXmQcjkCZ3jPhgyc+GubyBasDpDq6fsuXv6zJPbP018G/YAmaux97NTYAONudzPzKUVIYdAwIoIENbFiuCboWoK2Q52Dr4zcJoD5gSneokYtui/f/AXJLAYWg2PwV7SbwJsI0eOUCTjOVIcLdy6EjD3NWv75+su/rNm3NJBmo4cxt9cOOkLDp755965hgY0QgL+0gQngUCrRYCwLi340dIo9v++9t3IqF4qbaDZU5f2mwgHtvf6fiESGjnM3e/tgVPn9BiFnrMrlkpg8Vml4Mt2C2skg9e9Cbvrp3QZNLHzAHWXYh2AQFiEQ4mXjjy4cvSh4rwNHfxEFoHAy4YAYV1a8BOHiMiIaYFQwcsPb7ifk1JSXQkuTwt6jXmtz/hOfmFrxi89/vD6sgGTYcMH2s6S6opfL+3fcOXfEtOO+0UFtvQERP2C6539P0f5hIyO6gNDmQAXTwhHhlpitIFwwBf4nl1LfwAW5VraA5ROJAgECATUESCsizomLYaCLBvATo4eaxdAABhE73vZKXDlVBStHrtkWdwUuND2gD/ud6f/+if+rFgmD6dGfFQQSMpLh+ubU9tV6MQtgQCBgBEIENbFCNBsoggszscGRoAqP57bi5oWVLPvz+z6ZNhsDp0FFFmDbN+98zBeuZ7+EGUgEgQCBAIEAhZFgLAuFoXXgsJ5TDYYGKgAgs+rVwOjE/AH6xPa6Xr6A4g2n2+xM+TVqyYoBAIEAgQCgIB1rItIJKqrkx++a/YPhIeDGD5mF2uDAuGUMEQr9YELQufXCiCRnJ9JmBYbfHyESi8zAhKJRCCQ/zzN/oEolhDE0exijRNonY64rKysoMAim5kh8ujLEB7OuIdNlCIQIBCwBQTAtKSlpVlCEy8vL29vb0tINkImEWfMCNCIIgQCBAIEAgQCehCwzthFj1JWyqYLqmIaz31yE9eOdjOP/RdIpRWS+pw6YWm9yLzNQvfuxX+yXYfk0R16t/X8XSPDwr/WPCuRn/RMfAgEWisCPnSmJ43pSKOyGhcpTW+mD5PlGRwEcuj1L/t2Mb1gEtZFARG9prILrXHKUlQboP2QcEUBQ1JZtYIb/NJL5cWGFNLFSyaTdWW/yIN9G3C9uFP6z1U+pFYpj7ghEGjJCDAplP5O7r14ru4085+mFR0kj6LNFxPWRc9XhLAuegAyVzacNw7XSBev/UW5d/hl5hJLyCEQIBBQQWCYi9cIVy+GmQYrKsKJW/wIENZFgVUzRIni2dMW+AR70RhHNLkRK1TBkQJPMPKS7jgYCRYCgZcFAQqJvNAnJJrr9LI02LbbaYvWRSAQ3rpzf2CcIngJgmFtXd3d+MRnaRlSqTQkOKhHtxgWi2nb8GrWbqSbdwOp4WhpvuZsgkogQCBgFAJLfEM7ODgaVdT6hSqr+Lm5+fkFhWKxJMDfN7J9uIpO4Mecl18IV0VFJXgeR3eOcnK06eOTbcu6pD7LuHr9VuKDZLAfKtaluLh03W9bAFYEceA5dfrC28sW+Xh7qjwDo2/j+ox7+Ph2QeFzZp2A3iAzWo5AJq2hsRyc3P28gsqqSspL82X8MleKEtSj3HyyRbWJ1RVG10IUJBAgEMAiMMrVW920FMlkdEdXF1cfHscxOy9dUFHkJBHT7Iz3la2WNdRS6G5uvoOj47C1m5IGs7Fr78E7dxOwQtqEBi+YO93BgYMQ09Izt/y5m19dg/IcPXZq2pTx3bvFoBRbSyh1edZSTiisvXk7/ur122BCEB3slB8/GJvfN21HTQvCIxAKN/+56/OV75tL7Q4hneACaQ+yU7Yf+DnCnmqE5BIaa9G0D1zVFtK3Ht0oTH/IoMh31yOf6R7+yYJKsawZJuReVEn8JxBopQi4U+lj3HywjauGGY6YwQv7jscSIZ1RkLHnwM8eRh2XkCiTrZz7hTY3GZWK8N+eOXdZxbRAWZik2bFr3xtL5kG6pkawaesu+IuVKZZIdu7e7+HhFhToj6XbTtp4G27GNhw6evLgoROoaWmUrNTn3r2XiOTCRtSVH7+9YN4MpHYgpjw1/6akjv7hP727sZBt8KizwT98+eLv1E0LaDt/zOKwuElCqQTFzZFKG+BktoEXKpZIEAi8hAiMdfPFtrpcInl1/pdj1UwL8AR7Ba98c30Zi4vlx5Ou8Az47e3fzG5a6sVisC6IAp06Rq795tN+fXogt4+fpMJcGaThzRsxLRCIZNnrC1Z8/Da6KHDm7CWE2Qb/2oR1QXCh0WhBQU1G2E7Z3yMp6QnC06d3d29vz+hOURHtwhBK8uOnFoL10/lfZxnyglNEIi8a97oOZYZ2imOHdMQy9OS5YG+JNIEAgYARCID/cSzPGVuw9+AZrlzNjvgI28cLVldgXvWwZTWmM+isDyebbZoEW8WTlGf19fUIZdIrozgc9tjRiiNTM7KyISvhwSOEoWuXTuFtQ2E5oFePWISCMCBpW/trE9bFgcMBQNd89UnPbl0QgFQ2cxQWlyB0f9+mwS86GMzO0RDD0VwoDxvyqliGdwFm3OhFeutdMGZxqVQR/d6LznRDdtjoLUkwEAgQCGhBIIqttJJfTKX3whxopKUQyS+yl7YsFXqhqHbZ1A9UiOa6LSlpWg5wdXV2cpI3BGZo2Cx5dHP41NXJd2GXljbtYWjTJriRTHJybGoywoAQbe2vTay7jBk1BMFFinblyoOGutqmkJfoegyb3YR+jWWCwSH69GnX9eiJzWE4NmQVNTREBkXiebpcnxBSYRbKGcxkl5h7Gz8qnEgQCLwMCAQwlHxHu0QPxNPqqYNm/Jp8A8+2GD6bZ/YJMVTDQQP6woXeQkIkqgf/WITi5CSfn/9x7RdYBkhXVFVhGVRybeS2mayLQKi0HiVDrYgWGMjKq/pgzBHGsvJyJIEGQq4V1mJlSCRilbqwuUakfXzbkYoz9RakcvC62IcHd8jAWBdne1sJaKq3jQQDgYBtIuCg7IDTrX13PHrCBEkV2Q7PVv6R3cZmPs/AIxMnD/VFgHON/Ndu3EF6SNAwIrxpCQDLCUs1t27fQyiREW2Vs+o1qhoU0DTowTJbOt1M1qWgMB/bEqrytwGbhaTt7JTCnPh4exUUymOo3Lx9L65fLwqFkvNiQkxlDq26prqiqkJdoNGUjiGd0nBYF3sqXgczL1dv7PeUqw8KozUnChIIvCQI0JWXaR1xv+qRYVpCrD8AIJvBBrdVM4JpZ6dVGqzenzx9HqmrS0xHdJIGW/vZc5erG12Toffr00vJlDY0yKQ2c/KsTay7YIFrSiu5jJFiYjoi9IKConW/bgY/PHCiQCiWPsxAVN80RNWgJIZUX4c36FCp8kFeWC8yjDwiSSBAIIAXAYFE4YoJZbKLn+MsKRM3Lafr5q/HYYF0S8Cfu//gMdihAfzwDj0Os7yPSigsKj515iJy27d3d/BIRrNsLdFMYxcWi41tuUSs9G3AZiFpsvLYpWNUREhwYHpGFuSmpWfBhbDBXw6naQEGoYDjGY1szrmmYnxRhBsETdOgqGLaEsnPErCgV4rF2jgJOoEAgQAeBPhSpR/RneRb/u4BegtClHEevOYrT8JrLHU54cxHr67UmGUcEUYepS/29mElXLl2C3ZfIJQJ40cii/xYBljD/23jNmQg5eLsNGb0UGwupOk0hoeHuwrRWrfYjs6COnh7KgW0z89XmihTr9iOrDqoem3BrN1//5v06AmY9HbhbbgOHJidhIJenh7Y4mwWx4ynh91NS+RnPVAZd2OrQ9NuFPtbj292j+iBUrQlKnNSXTF7KjNFSitS2koRdB0ITI8dEubhjzI8Lsjcf++88ui3KbN/WDRcKCeaOPbw2r3sFOSWQ2e+P3gGmgWJIn75wYSLxWqBFRb1Huft6PrD2d01IsXiH1IFViBW1MC2Xfq06SQQ1WaW5p99cqeqjnj6WHiMTGcpw5iSfJMUN0WvrH3n/2biMC0gh1JRUFFb48pR8kzTK18Hg8p8PsKZmZW978BRJN0hKqJ/354qEsAcbtm2u6xMPvMP/k3QJTIZGpaNKMphQVSENOdtM1kXQ5sEYbhUioAbOKCJEAHlr7/9GUn7+yvtolIpZeLt/uOb2ihP6eoQeO7cbr3WZfOR37GmpUJcn4t7Sk1H1S951vTYoSOjlLxLvxr92pwdX97MbNolgOITFxazauR89BZN5FeWotaFy2B/NnIBmoUkfpr09vBf3rmY2rSUihBf6zMu2j/8jyuHVKwLFMcKRJiDXLy2zloZ11YRtyO/smTS5uU3MpJU6iJuDUXgiaAaW8RDJj1z9/SQWNX3eixPVU3V86QrTvg6Ymd72k97v1u9cA1WgnnTVVX8DZt2IIv5MCiZPWuyuvwTJ8/B/kqEDiMbX1+lV3Z1fqtTbNS6oJ7HGgG6dOUGLMBAFtXePqZzB408phPf3bKiHW7TAtV5kMjfbPp4+aJvtVV9+Mq/pOdPsLlXK5v28WCJFk1H+4iDnWSeXJkrS+rtIPNwkNnbNRTV2OXxKWUCu8Iau5xKu+vPaRbVwULCF+2SH4bmxXXpGdLh9X4Tz7/zW7dv5yXlp2OrQ95alh/ecDNTqU9/WqiYqZc1hphLLcp+bY/8UTqxHEZF9Z7Xc/SWWcvbfjZZYtSSqSubd+39Td6Obh8d+nX3ndO19aLX+oz/ZtySo0t/CFs1qVzIxypp42kmtaGrr9jXUerJaXBmyXy4Mg+2tFZChm9RQbVdSeO36FmJ/aOi5utbRDLprarS7pjwS0+uHXHiOMW266oRzJraml+2rvTAZ1oQCYG1NetPbFmm9tqhUb6hRJjpgvkuZDc+ODTNmzNNfVDyKDnlv1NNq/3tI9qCc5OhtTQ/f/N9Awxqm52mo7EgOCjsKnr46MnNW/GItGFD41BnZYPk62Yur6n47s/P2qmNn3SXgly3OsHq399dMmuls4PSzmHI2nBwnX1eGlYCXyI+Wy63kc3wGRpWPzmqblQ7kQtLdVCoXnt1HflcGu3wE9ruBKVtBOqcNkWJz36SkCN/s9sbf/bM49vQcf8wYdnQX97CKkkmyX0Rk/LTLqXex9KxaWRWtlokRHkOJV5u7xXcLah9iJvP06JsLDPO9Iyuw8C0fH9m19ozu5Aia07vaOvpP7v7yIW9x3535i+ccqzIxqHLZnWuGx0uGhKmtMihTaV8vt3RJ/R/HtCvZjXHywpEHMdaFxaFcvP09vzSvLF9VOOMPctN3XdgnQe+OTFs65jpD1ZtWfHlgtVYolnSEMIyN68AETVm5FB0qzgqHFbyt27fg9xCXOS5r05Fs2w5YaPWRWMXeOTYKTDgKJpRke2GDOqP3pqeSMpMepj5qCD3GbOqLNRw04Io4C4R79iyQshgc509fT2DSioKK8oKGqrLXdSGQXuLnsM7l+lq65DgypYt6lq7KLbW11Gmg00ly4HRMD5SBNePI2u23GVuvMXMqVIE31Rhts3bY0nXYPVlSEQ3dwcn9fUSI3R+VpwN1sXH0c046zKoXSxUuv7iP9iqN109DNalX1hnG7cuUZ7ipd1rZ3auY+L1upe30psrW9ytFq7UEsqG28zt9xnVdaqLqVg0TEzDyeJHSnKx0caYdpTihAtf3zsHMZLdXP0cONznuWmCimLPBqm74aYFUc9PyP/x5ze4Xm18vIID/YLbBbU3UW0oDnbl9h3Fu87hY6fgQsXyeNw1Xy0/cuw0bLFEiBWVVe9//AXKAInpU1/p3VPzKA3L1vxpG7UuumfGYCvl8KEDhgzqByv8ZoTswuWDLH4Zz2SJHIo9B1wYi56XFj2HV2X5KEbNtJwoybvHl6/OWejjzZV+PaTm1Wj9vvw6FICBzkf9hHAdekT/5DQ7rcxGvy0am3Ar81GEV1AHn9BzKXc1MhhE7OQXBvwZxh7JE+buX1Vbk6s8EQorLjZ+/lu/4PovBwt6BeAarGjDM8xN+tOomtVDajbdYX5xgW05G3OitMCfwe7soLSvWT5G4ZeL+fJt2A6NlzY9cdId7MgNRWm5RWmPU13aLTCDddG9kwbWmEExPDw49W9ONtvqL+DMnJHDB0H7Nc53+fp4gatYQIAfHJuDxuFpTrDMUhcELjtYknvBknNic7vU/jCihsfQOAI0phEwjhneVrTqLPvn6+yWcmIAOHpBU40I4IGsu6AwuXEcPxk2O9I75FzKnayypukLNBdnAvzQsCv/OEtZkY1Nb/h2aM3ibkKN3k1GKMaikd7uXTu5g2jOfu6FdJoREvAU2ZSXPh5OXnH2MJfaeCo1kQdGJ0inp1EOnS7HKjamE/SNGhmA6O/noy3LunSbsy46QBwzSpcTiOk4NsM3Mr22emd+VgG+HZpGtMiZKftrCh9WWYwoq7sIg0paO0IwJqJ+6l5uYbU5h4y668Wfq+LFXt+4B4JJpatLOLb0f1gizFAhC/gIEVmbifEPb9hwC2XLKM17dZvSdASahScBY3HkJRQPs9V5OnmJD86sCnCC2VT5MpUZPzBddmZ+5e83mR+c5IgkZhYOekobGg4U5zwSVL3qGejaQuLDOuq0Lgj4sV06mfEpNJso27IuzdZszRUph87UzGMsNbNWAB5i15TnRowVprlcT3/xwVlVbmwDllg0C9JO7R0ofvRO2Yy/HU+nWur1U3vlZshBfMb23j2TWqxYnI9XduRDqimoKt107TCk2TTm6A6923oE/G/iW9P/XGWcEiqB9f6Y/jEs6SOinhY2OacZJ9nspT7sJ/hmqGV34SztUds3uH7cTsesCou8pqQI+MvTH4509ert6Oai6fXC7KARAjUiQFgXBSwijmNy48S6m4PjQ2X/LgWTgSmBVAqbWp7XCcstHExiaJjo35lVdMs/T0cG6cisylf3c/c91LCTy0B4zMmuMqNFadyQK1Y+wwMZl+y5e/p40nXddedXlX5+fAvCs/zw7+fe/nVa7JB1F/65nZWsu6C2XHvMGmFMQDiMjRBODl0p2IS24s1Cb/h1LMyGKXaGWq7SSA/pjSXlQ7Y6Wc5xGZZh4PJjsDxoDEd7GpNiHp8CH6ZTXnEhINOjk5/l8Gkdki3fG7UcnERs3r3GuEPhVOaxkvyWozjplci6fdObb8+EPYW0ZyqfTWvYFm+7LsvgAQxPsMLwrSTqE6RimRQ2qfRt03l4ZA/jrItQXBfC87W3oyDbZbqsmQO6efNc8749bjtfs+2TqsExrNn0cec0XH2tov9mpwcFFuyFcuqEcJmxUbHO9LsZmSAwuutwM4ptlaLMY89bJTQtpVGxvuJdk5vPtKCwbBxXPSDE/As8qHxDE8i4BC3V0bcNpI0Yg2pcIKmsle8GZ1GVhmv8xgAkDgylwYcjE1yTSCKJEjJpxblgtEKVT+dFVbWFxOeDaprTtCBNBt/3E3MqfbiW9cu3BXhfTh0s+NagA1AHB/kv0BIfhqbAO5aoyEZkBjtL/5tbSbPGY4SZhkMzK7tvcH5SbI3q1R4ANnrQsIjuMPV0JyvZCB9i9bELVBXlHQJ/nxRmYauFLTX9w2JiAyNSi3NQOmyLgXR6SR5KgcTpx7eGte8B+/PfOdAUwQiIGs0YtlSzpWd0rl05wJwv+Pg193SQHZtTFb1edfcxfgktkRO6KS8vL0tobrmu1QhtrdMvAAQ2hYIRwNlCEYjJcXBmpRPTbJ7HhjaKTScdnlUV/YuToN76g2DorCHEQ/egyHEd+y3p9wq05Z39iq4cf9NUOn02jfFK57h3B02vrhMefXgFK2f7zRNL+01cM24pZF1Kvefh4DKv1yhQILei+Hr6AyznlutHPx46+824SbAL55975yCLbk9d1GccJIyYu8NKNj0d6SHZNF4pTpfpMg2S0MFTsmNS1ez9pu80M6haazLDuSHe3t7W1KBZ6raOdWmWphlfica3V+PFWazkDyOqozwNnlW4l2f/sCiczuzBoHlyGD4UO1517bPa+nyRKCmYG983yLANmCEu0l/HVM89YP2uIWHFXyjStWLRrG2fawsQqeKRDKU+P775ixNbkeLI01fxSIaspXvXlgmUZiDvPn/y1X9/fjpi3pEl36NVlwmqpv/5qYrBh80ur27//PjrP/694GvwPYP4lTBxR7On3s5MnrJ5JVrWKglwPjbCGeR0Kitf2I3JiGDSvLjs0HpxRU1dTp2oQCK+3tM3vY2rYV/LGZ1FJ57W2ZqfiMbHofJkNfIQRAQBwrpo+CaovL1q4LABUlc/8WvdDFuD3ZfkRqLPGxY1rWskV7kF3ZDbOrHoaNKRsooNk9pnc+h4f0ezokVb4+uvNUs4KWW1m+7ABwyCjKFZsOfx+MNrpZpO3IEgx9gJNLQIGlIMKLCa8sWJJm8xhKFCUA2jlkxNWylXHdt0LS3Rmc2bEjMop6KoqLocQiZrrPrMkzudvp75ev+J7b2DBaK6b0/vhPENBOHHizKqq1kTXwwSwPsBfpHFNXYn09r7uC8d0U3r5rNCftmepM1s8t9j2ykZY921wP7f4yl0Yb35N8HorpfItRwC5BbRk1qu/VjJX5/cdjjxMlDaeQbuuqMI9YPlsZ10/Jtlnbzw9gsnnjrbsZaP6iCfL8LzuZJ65XnBqukdsvEwA8/jIkqHdS44mQk2G0EgxEXy9D15RAOcn+0JkV3afNPRLxIn/4H4Pz3s/9czAK+L83eXWStOc3AKtxZbF+eg+Efyac/Ppi79fNob1lKjRdRr/elyG4TJ9i3upKg6/KZlZ2LIgM5X8JsWeCJ9w/rO6HthY3xvKb6tmREe0mkd8XYiNvjEX06VVg3Au2uyWkTelTxt/oCj+E0LQDqxy7zgwHOnnykF/tIB9bKeQhcWvi+cDikWziLGVvgBJqyLBqxsf91l1UC8/cL2xK5z484asWUPAqu8Pnjn7uSxGgDSRPrUSk5HmnQhaPoRCHWRwGqHfj75VCH5Yt67s3uvxsOswuPj6NUr6vKhx7hWsCEG83t9rOO6pqK2jlvrzmTqUMwGswjrouGh2PjYpX9wfTt3XHNi/yT5ze2/R0MLcZPm9v1p54MYPOwQCjcuBFdvhUcawWNpBHDuyZfJSCcyZo2Ped1ofXhMzpCYUzezcU15LexaCzGIja6rGQoSYxf8IBPWBT9WtsIJhzjhUeVqJmdEl+MqsR3xFFThmdF7z/EUTxWixtsZHQnrohEYWyTiHLjsSeo0s9fnJjaAy+B4ev6TWaHfhwjc60eEK21ENbFqorgVESCsixXBN7Lq8e1xdeI853WOLDPsWgXH2ei2O8uE+l/aXonEpZiRzSaKmQ+B/iH1eKKdPiykT+611yzVhnq0S66YjUfUhPa4Xp7wiCJ4rIsAYV2si7/Btcf61nNxHNxy+EnbzoFxBkvXUsDPOfRKdm8tmQoyKNbZ26STphSyiJQlEegfhGt8kFO3ROMRBsapNjr6kzs5+l93+gYTXyHjALa5UoR1sblHoluh3oES3QxIbnQbY7ap65Ac12E9nuFLzwBc6umoiMhqBgT6BOnvwe/kcsZ0XmZGZWCStpayWK/AAEeZDw/XsqJeUZZgsOlFIUs02ASZhHUxATxrFIWxi95qb2Q7Bbm11ctmEIMLm5dY0HQkiY6CXXz0q6ejOJHVPAj08NNvXcrre5hdmT7hC8uF+vucLj761TO7bjgF6p8gxinoJWDTv85mCRDgMCXdJ0UbXam9vb3t+xMb3TooCDtL9BavlvbRy2MEgx19GIn0h+6COJ3ZdAshci2KQKCTFE/Y0yCvBWZXg0qxv1cQODgkQ7fkCHfJkce6WVp2LnilSiQWGeVTKBQ4CNVG0LGOdSksLCwoKLAEBKGhoTyeqTGvbNk+wbFLenELdB+il8cIhghfiLqox7q0NTDAlBFqEEVMRKCNm/6vEBxuHeEfa2JFGovTGODgrse6GBqmTGNFFiKaZWaMz+enpaVZQkMIvWw78TFtxcpZAmijZdr4fhe97eIyvfXyGMHg7dRWItMzMQAndlApZvkBGqEgUQQXAnQ7/Q+IL7LUydYsmp9eLX24trtjX88PQG/bXiYG64xdbBNhe7HIu/F4WkeJuK05fHmhmTUySaVYLFA+f9fo5pNJ+vsFEO7E0f8DNk6H4hqKN1fPiB66Bgudl26czkQpFQTIODpIoVjpnDQVCabcOrLlJ+Xo/rhzzGldHCj2jlQay46iu1KcuV5U+7ZO8tg2FKntLg7hbIul2QjrokCYVVE0GjlnsK66Y0C4IsPkVJlYdI9fcaOqNF9kUjCuBhKOjoFEYtMtFVCyVgxfGD3WhUPDZQJ1gOpCpXXlukRyeM5UmguVXi0RV0rEz2sF96orkjVFPtYhSm/WYp8Qjr2pv4IaiWRjXrreuvAz0MjkaK5zZwdHTxoTekYKiVwpEZWJ6xOqK+Orympk+qe2dNRVL9X/LZI1mIqJNgXYdPmJ1Lo/XHOYtmAmp5ejS2cHJw6Fqrs6Q3NHOUdDEX5dlaEFXzZ+S32HXjYcdbcXusghLp5wJVSXHyrOK6w3fr8YBH3Su98lrzzBx7mzbpWMy3Vh6d8vWWNCEPUAJnusq3ckxxGrnoM9FS4/Bqu3k1u5WHSqrPBqZYm0wVQbhlQRwuLw7E2dBaoUm81TDl6xhzh7xrl4MJXftd1pTLjaQah/D//bVaXHS/NLja20FoeyDnS8geywTwpPulKQ5q1y/oNasWr93zK1MhgC2JUJ7r5tzDT9gBFMJA1DgLAuCryaYbmls4MzdBC/5Tx7KqxWVGxIqkZE0vtmV1mTYQnrIpXVO+I4BxPsnyENauKF6ZpX3HyHunjpLutMpU/3DOjr6LY+JxUGNLqZW1xuIIO1zD9M97s2hUzu6ejWleeyLT/zLt+A+PkoGnjMvzPD+BcgtCKNiZrabJI+62LcVwiprrej60zPQDilVGPtBLE5EbAh61JbW/c0Na2gsBhOHG8XHhYYoGHxoKKiMi0jq7i41MmR161rNLjfmRGs5nEVY9hR3gsI/zXn2cOaSiOUz6+mePP0zE2V1ySQSBOMEK67yLOCM21YullItWJSea0xriKLfUJhEkOP9BfZvgzWyqD2a5+nFJswCnwhzFb+d+Q4vuYbYk/GhR6wLfQJcbKnnikvMrQBBTX6fzUubFl5TZYzJ9BQ4Xr56+qT9fLk8XGBoC5nsLPHJA9/dXqLoMAmjaep6bl5+WKxJMDfNwqWf14AABwkSURBVLK9rsl5YIZu0MvLw5abZhPWBZA6duLs+YtX0U0wcDtsyIAxoxSetbBFZsdf++7eS0TRPHXm4msLZ/l463nbRfn1JoKC2qc/vUcS1rBNfu/hSyW19lQax1FcJ7AT1boqz3KAJgu9g795/qTA8GWY9HJKF1891oUqvaC3sUYwFJb9rde6pJbq77nUq57m4a9uWnRjyLWnvunX5pusx7VSkxYhdEywCaWSajuKPZsnhUFSXQ2YPqrac1Rvi3EUfzprkU+wimmpl8oqIWAwg0Oxp0oEVVyZlElR+sFO9PAvkS/GVBhUaQHfTiQh6T3tOPn5H33arzFIMh5mT+Y9vWypJUrN1MuPMEQ5OGo0LSUyWQOdZU9niKsrHWQSljKGOIVj2cpFIimVERXSAUs0MX3j5t1/j/wnFCrWZcG6vLZglvoLdHl5xdXrt2/eig8I8FuyaLaJ9Vq0uDFP0ewKHT1x5uy5yypiT5254OPtGRPd9AjBlmBNCzCXlpVv/nP3io/eplLN04rRfSeS+k6sk9Tvv3Y4Lf6ML42pohKe2zKpJLbvhIExg7DMBWUF2/b96CZWzDbQKZR53kGrMw3eM5Yi/+HpmZaO9S0UiCrYdLxDAayqOtK+bP39wpNig59FDNcpzlnpFUwbhtv3/+iKGax40BgzPAK25Gfo0Nm4LFildw2PXThiHra4TCpZt/c7dlmB2ce4VDL5Db82WNMlbpDVu/m9NfVDsvLOuC1HNwozHmKXZOBb9Gl6jaGThMlF9tE+et5R6KRL2OabJZ1TejfMVf8JLk8Mty5MCmW+V5CKkhVcl9envs9mKAX/33NmV0Hyda5RNia1TjB48KyFneNUKjLx9n5i0q69B1WEPEpOOXLs9CvjRiB0qVSW9Ojxtet3HqekIhSzfw9VFDD91sgRqOkVoxIqq/jnzl9Bbjt1jFwwd7qLc1O3+O/hEwidz68+ffYikh4Y12fShNFIGsaGV67dQtLm+suwp83qP/m1+avzGgx2iyymMT5+Z4OKaQHFvFy8li/5ntu+B1bJAAa7C9cZS8GTvvkclwNM/LMv8UjDz5OQuT3IWY9VA2k38KmHrXeiu9IUqA4MP1n8PSsgAlsWlh8CEDc/LNW0dLFMOm3OqlnKpgVEwjDmnZkrwrqPlMKZJ2b9DHbxBMcwVCQM2nqPeu3t6R+rmBZgWDBm8fBX3hRihmt0O8o4Nx+0LM7Ejef6XwI6ehRll97GKRAnW1ruN3g4r2bi+pJjRQ139sIOSupksrC+Ez6c87mKaYEi04fMnLtgdbGOQStWLiadSbJb8ca6IeY2LbDce+Df40g9MCG2YN6MkOBA5Bamc2CkgqTXrF2/aesu1LQA0Xb25CMaqv+1vnWJv5eILKc7OHDAtER37jDxhfGoqKxqXIYhJT5MhrlI0N7by3PC+JFx/XqhY5p79x+ot8p0ireTxxtzvyowxC0H3rhXLP5eR9VTBk6v4rliGeKc3LG3eNJXs6gSHFNBYTwwzOZc9KaKf8aj3rk0RS+Jh7+noys41KGcejGcMXZJNUfJJI9wNefW0VqpZOqk9zydtU639u82nBceiypsegK6+WHK1bXvObqD9lmXNv7t+gyfA4MbtOoePFdYgEFv8SQupCsw18ZvTyE9z1+hLdcIejE/tbuP/l9ragklj2/w/Gp/Z6WfkmNYTL9O/bUp6ezgPHPqB7WGOHY/k4g/XbLWLEdaqGj1LC2zsrIKIS6cPzO6U9S82VORW+gYU9OahuYCoXzMZ2dHZjBQf23zuE2q6GPGW+tbl7z8QqQ9ocGBiDX29lTMk1RV8SE363kOwhPWJriJOaRpFJybVwBjRoRo3r+uXOfwbsPxy+zQfaRe5sVT3hdivtOhTA7MqesthWUQScjn0/V3Je4cyaWkd7EFTUnfTdvQzk3+IHR/0sooqaWGNSdGeSUfD4aLpn+IxTCKw4PtILoV05Gr6lvkGRTiE6KDH7KmDZtTZL7hSzsOj4FxTimi2A/r1jQZok2N6PCuNRgTCzMkHTlNw31tRVToFzKodTjePXr6ZWQUX1Epa/Ttk6x38cQ3O/5Uv+VT0aE9mwvOMiixpKFBfeiJ5iKJAI8AO6+mzkQlS/0W1vamjHvDjIcRYKvIyy9Abl1cnJyd5L74Tk6OTGaTCYFpGyTX08Nt/NgRa75aERoSiFDUl2QQuu38tbO6KoMG9Hn7zUVwjX6xhl8vVnzxYUADGpaVNQ0PUbvNZjV5L0EwuKqqJstv9ra80nN0eq3+aWK5hjLpiB6j9CrAYbDrHRUvWdAvhBrulb8nEX150VVhN6//nuad1MWBL6+g4lEA80c8vLsScCmGFRWF2dpiAIZOivcPWAkP5+hzccVWqT0taZC9OmqB9nxFTkhEd8WNaalINg8roEc3/e8owD9m8HRsqfYGIlAjsjuWgmuUKeYvFdSVYesyLn372frefo/xlN2TYLB1UdnaEoTv6cwYMR+PPsCTTmqICY7EyWwoW4eoCKQDXDB3BlIWPJiQqRq45XCaFo3eemPh4IF9kf4QYTN8bs9Q1UzlN+xN09TaNJVXd/pCJ7vAhHh6yPvi+vqmDWAQABSRwWAovoK1dfrXAzTVrJ9mb0exg7msehwGBvfLY0RYTH78GbRuFxquHznKD4l/kxkb6qtZ+srRKA28hrfKqtu4OIRiixuUrhVXVpVNa+OCYzKORPrrvmHWhacyn4MfwzbRWAxheT+ZZOQbBvYnWt5AcnRwxoPP4G7DDqXcwcOpl8cJs+ICTmIDuwzSWwQYwv3bHZVKnF4MfN1ohiEPEnbeZ06KavpZ6agx1EV459mYHlHXdfDozUrJO9Weh2tm9WGhfWKB/qG5So1c5d34A2IHqzBovHVycILVF3fV0asG3oFdR+cX5mvIMJqEmdOCZWZ0pRmR9+DhYzSCcptQVVcFtE6NikukYo2qent6owWbLdFM1iUt4xm2SVSVbgWTV15Ref7iNYQQG9sJMSdgzDEs8iR2VIg+CaBXVJaXlBWrMJtyO7DzkIzbh/VKoNLxOpj5ewZgv6cuFH1WQq3uWjF5azzjzZ4KDzQ1liaCG1uSXTqqvOb3Nl4DtPHooOdXPKosnd7WVaCDB806nEx7XqmYnUDpOhIqIViMx1D710lH7epZMmUHLXUGlOLKc6uTShgvOneUbkQCXKvRUvUk1e85mqWeqMfMBbkYHm7gVCoto9wu2Fl/jV19C+4k9woP/pfLVAwZ1fXRRrmbviWU9S1T0UptjHL6+ut4f0dYKWxYI8J8PBxx60mjk3CsrXo5uguFuH4FGC10JamYVwoVPhi1HDl+CiEGBwW4uWqN6kTWNCEMmzrqcbRIpVIL3Vp/ZgzbMIBm89Zd4saZMTqdNnyI1j4Ra12wEsyeljXgem0X4965IqxTGgnVqxlOPE1Yf4ONhw14/B3rvSkLrj5eiZMfZYtP30yrHdfWtQal6E6svYJXJVSOvfLPw2gMwW8KlWloAvsCaIdZEtMnpwHrQKyPWVc+VnUGbvMGEsmYbw44uOuqQ1NeQwP5p2tN08ua8pVoMd4FpYX90wrPKVFx3Fx4MCva+RsuQ78NA2EFfPL2e8ZYFxEGCpBTXFGEQzU5SwO+8LLY91ecko1m++fAEXCFRYqj7sgapZHtjF9u1CjQ7MRmGrvg1Pvfw/89z85FmKdMGotOMqp7dqNTZMBMo+J7L8KphDJbPT6zIRbqX/RGBKdmP8HWUGlUpNXMcsqWu4wFsfqHL1AXg0rq6bXn/pNTXKf/hXr2w9auMQ1hyrJy3+zuhx1iaWRUEI8+pt3JMfwpYLt2cHEzFkOFHoansDNjbLkjFsxZ6P/RPkxPgogshtemqQRGDqwhPc1JaesXrolPidbQIONgVVfKxHuz7R7zvT7CQCdcXX+AI8w/L7qQGBkT9gePpdWnDq37XuYWruzHfv64vqJIqc/POaDFDUpUKccESspIGhiDa/hCg9d8HAPQxPS7rw6bZ5BKupnramtLSU0mBMt5++592FaJUPr37QljF2yuSlrj2IVqT3N/saNDhb/5b5vJuoQGt8G2LT9fQ88FW4ouXr6OsA0d3L971xi0CJw4iaTRKTLs2MXRUbEu6uTobPrpYWi9+ZUljw+fdMTMXaBZKglPEimnJMfPTWnrhgoPcvv8WQL2i18oMuDnhxX4wUnOsDb1vo64ugYo2NGznESaezPJu57cPdBzQoBrD6w0SBdUJD3L30OR3ezum+2pvx2K0pV1pCVHzLCubgiGiVgMFaqYlmJTqMevHx3Va6xeMWdvmKPBmqo5ffVI2+n6rcvBi/tZL34UmsTgotWJybP3cS+/VomLu5GpX8Cj8oo+l56F05l9I3xn8liqs/lP8o4Vlp3gUe928mzyxMEp/HQqFeZ7cTKrsBVg9thC1t2Ei+p7zlSKwO3Vh1fQhSv1XCylKCOJzTJ4aI6VoJKWNO6vUCHC7ovde/9FiOFtQye+MkqFQeVW/Z0bGMDt1ryqqlRq0K2tzIwVl5RCoBdEdbDYY0YNxTYD9c8TvVjeF4kUC5I0wxfGscJ1pDce+BmPaUEk7D68QYcoJOvC/fMemFfOOqk0BfcLu4rw6jq7uQcN7tO7+ub39vnXlzJDWBJSkBuRmRWbntUzLyeiuijEnTS2l/c/YFpUKtJ7O/8gr6jaPF8k3Bjital6lVdheHD3dOPwRYWsdJtfmkcr1fB6pMRk7I20MKu0qkR3aRi4PHtwSTcPztzrz2nrDFzqcGbJ+vg/7uq2kSPqXVnYJjc7Mj2rd9bzmKLccGlFcBjrrb5+ZzoaaFrgBQW+RTh1Vmd7VKPk08GtqUzPT1dnU6FcvrhfhaLt1odG/+2o/l+3tuJ46HV1oo2bdiBTcDwed+G8GXo3S9r+zJh5OgU88OngAZewjZt2IsstYCrmzp6qYpYRzzGQgO5cRfbBAMXd3RU7S6ajFkOz/ji728+Qrt+ltnrHf1t01AKTHg8uH8AyxBsV4xaVcDGd9vtNY+apQQLdvsGdXefPKwvkFXpy6ljGHsqyPZ5xJFnhv4fqZlwCMNx+QheGqbmpicoYGleRtlLudpRvt+hao+LXVG3/62uzrOdr1AE8HTZu/0KmawWoYfXGD1xxzOdolK9OXH6ak15m8LINIseBLvVyEAby8v24Fa5sxQufei26KbP38QpNeEHhS8RPBU37QqAiqp3dvn9+qNAZfu377V94GDK1KUx7cPHxLd2tMCV3286/S0qbPL/nzJrMZOr/Xat0kqbUbqGyNmFdYNRSWNTk6AULWSr+edDy0BdueWnpWcioJSn5CYJI6IttleYF6MeD62uSrhoqsz7twR///qKx1N2U2ycOrFfZO3m8rEAjM37ih6c4j4uM7Brw16KNE7ZVv3XCyLlybTLF6bowPL7/ZzhqUFtZs9BdhPxvNy+H8YG6tLyS3F82f+JmYQU8yORvfnlL4whGKpWs3vC+h1mdgmB/7vS/DR4Eq4NjNOWP24wTKaa+oBwtzcMqANZ349YVMFmNJaLp77audORrWPZAGdQTMIdx478/d1/CO9xRl6CDcv7C1aRHTR1ar55d24aF6mBGswwxjmihZk1Y9oeKpykPHiYnPHiEct67/xAu9DYkWD5L1r5dmCOPCxHJamoEP/+yCYYyCA/ERYCoMCiziQmJTJpbUXw94VJe6j0niYiEY7lFvUa73NSvf1nmFRjRJiAiuk00jNBTMh9nZD1yFfIdlB174AAoOAtLXYJBFJg6H77N8fbrFZ4OGnpDg0QZylwmJA/901EgMv+XHD+GhuqMkx+GUGt/ft3BNywssH2nsM5VNfyk9MSMrMfUsnx3C5sWREMwMH9tXUX28A8Nat8+MJLD5NxNuZP+/ImoIN1deW8HzhbpZruXR520m7tvOh/jYaC7hNlyL6ZT3zxqhheUZ8JqmAnABu6DwORHdn9b7+IZFBDRPjjK3cn9zuPbzzIf1+SlOhv1EN1pdOHDK6sSr/qHxvTt3C/MJ9AsKJSWlh86ehIVlZub/9P6Tegtm81cNH8WeotNqIehw+baQtr61qXqRagDBI5nL+LqILfglwwJWNWfOX3ibxu3QeAdcCpD/MrAtMyfMwPiKJsLx617vrMrlw8mDIuqoVY9rKzIMpOfwvXiTUcpuFgj/+OaqmMlSm9bamLwEiAo0+gdvHMLKnkMzB4tvKWN5IPznYb+6ZRTZdqwCbMEpaIHHgxVihh3q60/lXdABRmZcN08hkiWd4FG9Up6FNMCgnwzUFl+AVzxZxEJsOTNsIBpQYQfSma8fbxh3WjF/JIetc2RfSvbftwuR1mDeV5QduRn+tKZnpidZ3Q7O3pFcWlF8eXES4i+0JsYZ1rQ5vrZNTRkxF/OiD/Gcnlvweco3egEBBBDnZVACOo0iwjkcrWaXvOgZrTeOApa37rAOWBtQoO1qerr0+T7GNEu7P13lhw4dDwzM5vDYcOEGHjsoWHHtBU3iN5sq2T3+RXbCjLMaAoS8qk9f3cCA+PFbY4RTG6V3ZCtjoaGFDPoWRDMzY/AbzeZ/DrS5leqlfcmWkqR82nUMTsdYV7OXBWIGmQ/5aTCMXRBTHP6d5lLPW1y4AVaRwcIYxeVghDJF1kd8HB3U8mytVvrW5eoyHZw4cElKND/g3eW4uE0ksfyPTM4ie0vyblaoccpyAj9n5bad9/gtHdaVU9/iRHF8Re5kkmd8Q8PTqDCX4TgbCkI/JXAhJMrd07iu3Ms+2P44Srz45Na38qNhqtCXL8m6zEcSWDeyNlG64OnIMzzv7NsER5OhGfcmGH4ma3LSfQRGPwtDMatyrIVGQ8tYVqQNuRVUfpudP7yPN4N2JiW401+eoY9YLMTYVrw4tUC+c49o3Vc5wRxYiyke16V3eCtjpYwLajCh0vyPktPeiJQclNGc4lEsyFg/bFLszVVb0UyrktCfiaw8ViclMIsvfz4GcrF9bDkqBKvAn9xgzi/PM/ZlcBcO7x6XHvjPURVaoTlrn1JjI9PckxdaFGRS9zaJAIlAsqo7Y7DwkRrh9dEeEjNpWN1HfmHa6z/XWWBK4q5ZGqTA/srf8pOhTCpsM7PUvam0VYEJ92H6ZRXXAjMPToZsuUYp/TWxUZYF8XzJPPc7jX6evpTqMdK8hUZLS2VUU6ZuNuxp3/9muGCXgFiE9U/k0r96BQnqZBqohyieMtC4FQq/WwabXZ03aoBAvwhITS2ERZXwO34m0vsUoGF5weUq4cIMefLi5Rppt7FOtPvZsjfQaO7DjdVVmsvT1iXVvuEb2TT+v1BGxgqWhhbNzHKGNdnOK9l4y3mLSMCiLVaUF+uhkll5D/jmXseMF7tXLe0hzDS8HEMuK1vvcv8/RYz10T3wpcL+FbSWutYFzgEzIzRwLCPgmrJiJbYilpK+nwaHS6vE7JBofWdvMSdvCQxPhIOXbPDGgTkiM+hJRZS7uXS4L21stbiMxgtBcaXWU+YyNp0hwlXjI+4R4Ckk6c4qvFbpA0TCOz/IJ+aUGAP22hOW2z9RlvtLYIO3ZSFOkD0fEVbwME61sW58WML7deoAywzaKS3XCKsw8PRXn+RYMuE/BPoJA11lXpyZO5sKcWOXFhjl88np5TYg18AwtBMf7VtNnlRPZXFrZA1cChUuzq+DF+w9BdF8f7X/ahpDHY1WY4JSyKSmrz1VbNOOkGwp9LrqIx6WQOPJBPX4T0NQXNFJlPBWsBFIjX5yHb2Fvvy4CvU4M6RCsRkCOUCK/aJhVRLbLA1WXezCZCY45x1FosVGhpqNp1sVZB1rIttokF5cUyIAF/UfdtsBR6tsioocOHhtAoPnHmTKBH3ih3cy78TudHQV8iEuy7+7VZZ4oHZK2dR3R7VCoMjuvWO7EdtkC8V1JGlh+JP5jy9G8t1sWi9qPAnwhpuYMS42BEcstx9S0ohnUu+mpBwoZuDiZt90RpMTcAuq4QWvDppZPPzipraTNd+ApiRoltdMcK6KB4p+8XxseXCahcOr0w58KqCj0iZCwFNA4dKcb1jx76bB82ASnJys0X18hWjDn7h6xauufbs/uFDv7ZlmHOvnPrIQdrQUOTkvm7ZKqi3uKSIXy0/ucffxevTSe9klRWs2LKyH4NpzgCCmkB40NCw+q1feEwOn19VXCoPwefE4r4+Yl5V3OSPtn3WUVwHJ8EAkfg0MwI+XNe8/AykUm9n+aHsxEcHAsR3VAFOhFcQetMzMBJNE4lmQ6BGIvHvPnJho2lRr7R3m+i3FqzJUj7MQ53NFApMipa6eH/2qty0qH8CXbw2vf1rvKYAl+rMRlPAtPz61q9gWtQlAHHj0v/l8CBQTmubvFVvrK1RWDS6uFRxSODADt1tTUNb04ewLoon0sE3tJ1nINx7OjhfunaFyZe6Mbh0i0V2UlRMpF4g8JhKm9JrzIs7Df/9nD1GjlkstMwaDNSXVCt4f8p7Gip+QWLTmavnr35aa6klEIjG+N6M5S9q0/z/mzmr0pTP+tXMR1DNhACPwW7j7C3MLS0ubYqsPKv/GF9Xs0U4NJOaNieGmBlTPBI4SXTtK2+8s++nExdO1wiFkFFbI1BkEymzIwBx3xXDRVKRULj+3d/0VtIzLOb82X9Y0loFp6CelK94qVTQcaQaghtImB/BiH5TGVQ90eDdHJzahfeRPU9QiJc1GK0AyUf2YplcLs/dr2OQq7dCspZUn9jRhff/U8o0FgElIcSNJgSqSPwqkuKwjDDvgN8Wf6qJkaApIUCMXZTg8OK5fjJolhfP1sPDKSndWm7q6Fzmi6Uv3W3q2jlON4MBuZgZpgKBYFj3IXjKTh06tfrFMalyfowQPMW18YDMSYOnaMvF0kf3Hl4okL8AEZ9mRiDI3efC19sdWlSgzGaGCK2OsC4oFE2JjkHhD9cfXj3zrWHRvb2dCTOjio9Z75V6ZRfcy6SRbaKU1DBhWw52VV9mR8W5XM9msCrqTQ2CoNSExhu+qD7AXf/ABSkoozb5l6vLISiWQCDSP3Tdgk+Sfjni4+JhCfmtTyaZWB5sfQ+11bQI9Rnz8/Gn0/VMWFmi1ajPmLurO5dr/MHvRuuG+oxxHbjubkSnZjSQREErIECMXawAOlElgQCBAIFAq0eAsC6t/hETDSQQIBAgELACAoR1sQLoRJUEAgQCBAKtHgHCurT6R0w0kECAQIBAwAoIENbFCqATVRIIEAgQCLR6BAjr0uofMdFAAgECAQIBKyBAWBcrgE5USSBAIEAg0OoRIKxLq3/ERAMJBAgECASsgABhXawAOlElgQCBAIFAq0eAsC6t/hETDSQQIBAgELACAkQkGCuATlRJIEAgQCDQ6hEgxi6t/hETDSQQIBAgELACAoR1sQLoRJUEAgQCBAKtHgHCurT6R0w0kECAQIBAwAoIENbFCqATVRIIEAgQCLR6BAjr0uofMdFAAgECAQIBKyBAWBcrgE5USSBAIEAg0OoRIKxLq3/ERAMJBAgECASsgABhXawAOlElgQCBAIFAq0eAsC6t/hETDSQQIBAgELACAoR1sQLoRJUEAgQCBAKtHgHCurT6R0w0kECAQIBAwAoIENbFCqATVRIIEAgQCLR6BAjr0uofMdFAAgECAQIBKyDwfyqjupoB9yd9AAAAAElFTkSuQmCC;" vertex="1" parent="1">
          <mxGeometry x="651" y="500" width="336.1" height="586.78" as="geometry" />
        </mxCell>
        <mxCell id="G5BfxSge_Kpje7iybyFv-4" value="&lt;font style=&quot;font-size: 24px;&quot;&gt;DHT 11&lt;/font&gt;" style="whiteSpace=wrap;html=1;aspect=fixed;fillColor=#1ba1e2;fontColor=#ffffff;strokeColor=#006EAF;" vertex="1" parent="1">
          <mxGeometry x="310" y="1140" width="180" height="180" as="geometry" />
        </mxCell>
        <mxCell id="G5BfxSge_Kpje7iybyFv-5" value="4.7 kOhm" style="rounded=0;whiteSpace=wrap;html=1;direction=south;" vertex="1" parent="1">
          <mxGeometry x="549" y="1186" width="60" height="120" as="geometry" />
        </mxCell>
        <mxCell id="G5BfxSge_Kpje7iybyFv-9" value="" style="endArrow=none;html=1;rounded=0;entryX=1;entryY=0.75;entryDx=0;entryDy=0;exitX=0.75;exitY=1;exitDx=0;exitDy=0;" edge="1" parent="1" source="G5BfxSge_Kpje7iybyFv-5" target="G5BfxSge_Kpje7iybyFv-4">
          <mxGeometry width="50" height="50" relative="1" as="geometry">
            <mxPoint x="-111" y="920" as="sourcePoint" />
            <mxPoint x="-61" y="870" as="targetPoint" />
          </mxGeometry>
        </mxCell>
        <mxCell id="G5BfxSge_Kpje7iybyFv-10" value="" style="endArrow=none;html=1;rounded=0;entryX=0.5;entryY=1;entryDx=0;entryDy=0;" edge="1" parent="1" target="G5BfxSge_Kpje7iybyFv-5">
          <mxGeometry width="50" height="50" relative="1" as="geometry">
            <mxPoint x="489" y="1246" as="sourcePoint" />
            <mxPoint x="-61" y="870" as="targetPoint" />
          </mxGeometry>
        </mxCell>
        <mxCell id="G5BfxSge_Kpje7iybyFv-11" value="" style="endArrow=none;html=1;rounded=0;entryX=0.75;entryY=0;entryDx=0;entryDy=0;fillColor=#f8cecc;strokeColor=#b85450;strokeWidth=5;" edge="1" parent="1" target="G5BfxSge_Kpje7iybyFv-5">
          <mxGeometry width="50" height="50" relative="1" as="geometry">
            <mxPoint x="1090" y="1276" as="sourcePoint" />
            <mxPoint x="960" y="1276" as="targetPoint" />
          </mxGeometry>
        </mxCell>
        <mxCell id="G5BfxSge_Kpje7iybyFv-12" value="" style="endArrow=none;html=1;rounded=0;entryX=0.75;entryY=0;entryDx=0;entryDy=0;fillColor=#f8cecc;strokeColor=#b85450;strokeWidth=5;" edge="1" parent="1">
          <mxGeometry width="50" height="50" relative="1" as="geometry">
            <mxPoint x="1092" y="657" as="sourcePoint" />
            <mxPoint x="962" y="657" as="targetPoint" />
          </mxGeometry>
        </mxCell>
        <mxCell id="G5BfxSge_Kpje7iybyFv-13" value="" style="endArrow=none;html=1;rounded=0;fillColor=#f8cecc;strokeColor=#b85450;strokeWidth=5;" edge="1" parent="1">
          <mxGeometry width="50" height="50" relative="1" as="geometry">
            <mxPoint x="1090" y="1278" as="sourcePoint" />
            <mxPoint x="1090" y="658" as="targetPoint" />
          </mxGeometry>
        </mxCell>
        <mxCell id="G5BfxSge_Kpje7iybyFv-14" value="" style="endArrow=none;html=1;rounded=0;strokeWidth=5;strokeColor=#ada4a4;" edge="1" parent="1">
          <mxGeometry width="50" height="50" relative="1" as="geometry">
            <mxPoint x="635" y="1249" as="sourcePoint" />
            <mxPoint x="635" y="549" as="targetPoint" />
          </mxGeometry>
        </mxCell>
        <mxCell id="G5BfxSge_Kpje7iybyFv-15" value="" style="endArrow=none;html=1;rounded=0;strokeWidth=5;strokeColor=#ada4a4;" edge="1" parent="1">
          <mxGeometry width="50" height="50" relative="1" as="geometry">
            <mxPoint x="632" y="548" as="sourcePoint" />
            <mxPoint x="672" y="548" as="targetPoint" />
          </mxGeometry>
        </mxCell>
        <mxCell id="G5BfxSge_Kpje7iybyFv-16" value="" style="endArrow=none;html=1;rounded=0;strokeWidth=5;strokeColor=#ada4a4;" edge="1" parent="1">
          <mxGeometry width="50" height="50" relative="1" as="geometry">
            <mxPoint x="608" y="1246.62" as="sourcePoint" />
            <mxPoint x="637" y="1247" as="targetPoint" />
          </mxGeometry>
        </mxCell>
        <mxCell id="G5BfxSge_Kpje7iybyFv-19" value="" style="endArrow=none;html=1;rounded=0;entryX=0.75;entryY=0;entryDx=0;entryDy=0;fillColor=#f8cecc;strokeColor=#000000;strokeWidth=5;" edge="1" parent="1">
          <mxGeometry width="50" height="50" relative="1" as="geometry">
            <mxPoint x="560" y="1160" as="sourcePoint" />
            <mxPoint x="489" y="1160" as="targetPoint" />
          </mxGeometry>
        </mxCell>
        <mxCell id="G5BfxSge_Kpje7iybyFv-20" value="" style="endArrow=none;html=1;rounded=0;entryX=0.75;entryY=0;entryDx=0;entryDy=0;fillColor=#f8cecc;strokeColor=#000000;strokeWidth=5;" edge="1" parent="1">
          <mxGeometry width="50" height="50" relative="1" as="geometry">
            <mxPoint x="672" y="602" as="sourcePoint" />
            <mxPoint x="561" y="602" as="targetPoint" />
          </mxGeometry>
        </mxCell>
        <mxCell id="G5BfxSge_Kpje7iybyFv-21" value="" style="endArrow=none;html=1;rounded=0;strokeWidth=5;strokeColor=#000000;" edge="1" parent="1">
          <mxGeometry width="50" height="50" relative="1" as="geometry">
            <mxPoint x="560" y="1161" as="sourcePoint" />
            <mxPoint x="560" y="601" as="targetPoint" />
          </mxGeometry>
        </mxCell>
      </root>
    </mxGraphModel>
  </diagram>
</mxfile>
